<svg xmlns="http://www.w3.org/2000/svg" version="1.1" xmlns:xlink="http://www.w3.org/1999/xlink" xmlns:svgjs="http://svgjs.dev/svgjs" width="1400" height="560" preserveAspectRatio="none" viewBox="0 0 1400 560">
    <g mask="url(&quot;#SvgjsMask1101&quot;)" fill="none">
        <g mask="url(&quot;#SvgjsMask1102&quot;)">
            <path d="M108.5 542.5L139.5 573.5L325.5 573.5L356.5 542.5L356.5 201.5" stroke-width="5.17" stroke="rgba(219, 236, 255, 1)"></path>
            <path d="M100.75 542.5 a7.75 7.75 0 1 0 15.5 0 a7.75 7.75 0 1 0 -15.5 0zM348.75 201.5 a7.75 7.75 0 1 0 15.5 0 a7.75 7.75 0 1 0 -15.5 0z" fill="rgba(219, 236, 255, 1)"></path>
            <path d="M201.5 46.5L232.5 46.5L263.5 15.5L759.5 15.5L790.5 46.5" stroke-width="5.17" stroke="rgba(219, 236, 255, 1)"></path>
            <path d="M193.75 46.5 a7.75 7.75 0 1 0 15.5 0 a7.75 7.75 0 1 0 -15.5 0zM782.75 46.5 a7.75 7.75 0 1 0 15.5 0 a7.75 7.75 0 1 0 -15.5 0z" fill="rgba(219, 236, 255, 1)"></path>
            <path d="M294.5 542.5L139.5 542.5L15.5 418.5L15.5 108.5" stroke-width="5.17" stroke="rgba(219, 236, 255, 1)"></path>
            <path d="M286.75 542.5 a7.75 7.75 0 1 0 15.5 0 a7.75 7.75 0 1 0 -15.5 0zM7.75 108.5 a7.75 7.75 0 1 0 15.5 0 a7.75 7.75 0 1 0 -15.5 0z" fill="rgba(219, 236, 255, 1)"></path>
            <path d="M1100.5 232.5L914.5 418.5L914.5 573.5" stroke-width="5.17" stroke="rgba(219, 236, 255, 1)"></path>
            <path d="M1092.75 232.5 a7.75 7.75 0 1 0 15.5 0 a7.75 7.75 0 1 0 -15.5 0zM906.75 573.5 a7.75 7.75 0 1 0 15.5 0 a7.75 7.75 0 1 0 -15.5 0z" fill="rgba(219, 236, 255, 1)"></path>
            <path d="M46.5 201.5L46.5 418.5L139.5 511.5L325.5 511.5" stroke-width="5.17" stroke="rgba(219, 236, 255, 1)"></path>
            <path d="M38.75 201.5 a7.75 7.75 0 1 0 15.5 0 a7.75 7.75 0 1 0 -15.5 0zM317.75 511.5 a7.75 7.75 0 1 0 15.5 0 a7.75 7.75 0 1 0 -15.5 0z" fill="rgba(219, 236, 255, 1)"></path>
            <path d="M480.5 449.5L883.5 449.5" stroke-width="5.17" stroke="rgba(219, 236, 255, 1)"></path>
            <path d="M472.75 449.5 a7.75 7.75 0 1 0 15.5 0 a7.75 7.75 0 1 0 -15.5 0zM875.75 449.5 a7.75 7.75 0 1 0 15.5 0 a7.75 7.75 0 1 0 -15.5 0z" fill="rgba(219, 236, 255, 1)"></path>
            <path d="M387.5 77.5L573.5 77.5L604.5 108.5L728.5 108.5L759.5 77.5L821.5 77.5L883.5 139.5L883.5 232.5" stroke-width="5.17" stroke="rgba(219, 236, 255, 1)"></path>
            <path d="M379.75 77.5 a7.75 7.75 0 1 0 15.5 0 a7.75 7.75 0 1 0 -15.5 0zM875.75 232.5 a7.75 7.75 0 1 0 15.5 0 a7.75 7.75 0 1 0 -15.5 0z" fill="rgba(219, 236, 255, 1)"></path>
            <path d="M1379.5 511.5L1410.5 542.5L1410.5 573.5" stroke-width="5.17" stroke="rgba(219, 236, 255, 1)"></path>
            <path d="M1371.75 511.5 a7.75 7.75 0 1 0 15.5 0 a7.75 7.75 0 1 0 -15.5 0zM1402.75 573.5 a7.75 7.75 0 1 0 15.5 0 a7.75 7.75 0 1 0 -15.5 0z" fill="rgba(219, 236, 255, 1)"></path>
            <path d="M325.5 108.5L449.5 108.5L511.5 170.5L511.5 232.5L480.5 263.5L480.5 418.5L387.5 511.5L387.5 573.5" stroke-width="5.17" stroke="rgba(219, 236, 255, 1)"></path>
            <path d="M317.75 108.5 a7.75 7.75 0 1 0 15.5 0 a7.75 7.75 0 1 0 -15.5 0zM379.75 573.5 a7.75 7.75 0 1 0 15.5 0 a7.75 7.75 0 1 0 -15.5 0z" fill="rgba(219, 236, 255, 1)"></path>
            <path d="M1193.5 108.5L1193.5 15.5" stroke-width="5.17" stroke="rgba(219, 236, 255, 1)"></path>
            <path d="M1185.75 108.5 a7.75 7.75 0 1 0 15.5 0 a7.75 7.75 0 1 0 -15.5 0zM1185.75 15.5 a7.75 7.75 0 1 0 15.5 0 a7.75 7.75 0 1 0 -15.5 0z" fill="rgba(219, 236, 255, 1)"></path>
            <path d="M759.5 46.5L728.5 77.5L604.5 77.5L573.5 46.5L263.5 46.5L170.5 139.5" stroke-width="5.17" stroke="rgba(219, 236, 255, 1)"></path>
            <path d="M751.75 46.5 a7.75 7.75 0 1 0 15.5 0 a7.75 7.75 0 1 0 -15.5 0zM162.75 139.5 a7.75 7.75 0 1 0 15.5 0 a7.75 7.75 0 1 0 -15.5 0z" fill="rgba(219, 236, 255, 1)"></path>
            <path d="M1410.5 263.5L1224.5 77.5L1224.5 15.5" stroke-width="5.17" stroke="rgba(219, 236, 255, 1)"></path>
            <path d="M1402.75 263.5 a7.75 7.75 0 1 0 15.5 0 a7.75 7.75 0 1 0 -15.5 0zM1216.75 15.5 a7.75 7.75 0 1 0 15.5 0 a7.75 7.75 0 1 0 -15.5 0z" fill="rgba(219, 236, 255, 1)"></path>
            <path d="M108.5 108.5L108.5 15.5" stroke-width="5.17" stroke="rgba(219, 236, 255, 1)"></path>
            <path d="M100.75 108.5 a7.75 7.75 0 1 0 15.5 0 a7.75 7.75 0 1 0 -15.5 0zM100.75 15.5 a7.75 7.75 0 1 0 15.5 0 a7.75 7.75 0 1 0 -15.5 0z" fill="rgba(219, 236, 255, 1)"></path>
            <path d="M1131.5 325.5L1410.5 325.5" stroke-width="5.17" stroke="rgba(219, 236, 255, 1)"></path>
            <path d="M1123.75 325.5 a7.75 7.75 0 1 0 15.5 0 a7.75 7.75 0 1 0 -15.5 0zM1402.75 325.5 a7.75 7.75 0 1 0 15.5 0 a7.75 7.75 0 1 0 -15.5 0z" fill="rgba(219, 236, 255, 1)"></path>
            <path d="M1224.5 542.5L1379.5 387.5L1410.5 387.5" stroke-width="5.17" stroke="rgba(219, 236, 255, 1)"></path>
            <path d="M1216.75 542.5 a7.75 7.75 0 1 0 15.5 0 a7.75 7.75 0 1 0 -15.5 0zM1402.75 387.5 a7.75 7.75 0 1 0 15.5 0 a7.75 7.75 0 1 0 -15.5 0z" fill="rgba(219, 236, 255, 1)"></path>
            <path d="M263.5 387.5L325.5 387.5" stroke-width="5.17" stroke="rgba(219, 236, 255, 1)"></path>
            <path d="M255.75 387.5 a7.75 7.75 0 1 0 15.5 0 a7.75 7.75 0 1 0 -15.5 0zM317.75 387.5 a7.75 7.75 0 1 0 15.5 0 a7.75 7.75 0 1 0 -15.5 0z" fill="rgba(219, 236, 255, 1)"></path>
            <path d="M821.5 356.5L821.5 418.5" stroke-width="5.17" stroke="rgba(219, 236, 255, 1)"></path>
            <path d="M813.75 356.5 a7.75 7.75 0 1 0 15.5 0 a7.75 7.75 0 1 0 -15.5 0zM813.75 418.5 a7.75 7.75 0 1 0 15.5 0 a7.75 7.75 0 1 0 -15.5 0z" fill="rgba(219, 236, 255, 1)"></path>
            <path d="M1100.5 46.5L1069.5 15.5L790.5 15.5" stroke-width="5.17" stroke="rgba(219, 236, 255, 1)"></path>
            <path d="M1092.75 46.5 a7.75 7.75 0 1 0 15.5 0 a7.75 7.75 0 1 0 -15.5 0zM782.75 15.5 a7.75 7.75 0 1 0 15.5 0 a7.75 7.75 0 1 0 -15.5 0z" fill="rgba(219, 236, 255, 1)"></path>
            <path d="M1038.5 542.5L1100.5 542.5L1286.5 356.5L1317.5 356.5L1348.5 387.5" stroke-width="5.17" stroke="rgba(219, 236, 255, 1)"></path>
            <path d="M1030.75 542.5 a7.75 7.75 0 1 0 15.5 0 a7.75 7.75 0 1 0 -15.5 0zM1340.75 387.5 a7.75 7.75 0 1 0 15.5 0 a7.75 7.75 0 1 0 -15.5 0z" fill="rgba(219, 236, 255, 1)"></path>
            <path d="M1007.5 356.5L1224.5 139.5L1255.5 139.5L1410.5 294.5" stroke-width="5.17" stroke="rgba(219, 236, 255, 1)"></path>
            <path d="M999.75 356.5 a7.75 7.75 0 1 0 15.5 0 a7.75 7.75 0 1 0 -15.5 0zM1402.75 294.5 a7.75 7.75 0 1 0 15.5 0 a7.75 7.75 0 1 0 -15.5 0z" fill="rgba(219, 236, 255, 1)"></path>
            <path d="M666.5 387.5L790.5 387.5" stroke-width="5.17" stroke="rgba(219, 236, 255, 1)"></path>
            <path d="M658.75 387.5 a7.75 7.75 0 1 0 15.5 0 a7.75 7.75 0 1 0 -15.5 0zM782.75 387.5 a7.75 7.75 0 1 0 15.5 0 a7.75 7.75 0 1 0 -15.5 0z" fill="rgba(219, 236, 255, 1)"></path>
            <path d="M170.5 232.5L325.5 77.5L356.5 77.5" stroke-width="5.17" stroke="rgba(219, 236, 255, 1)"></path>
            <path d="M162.75 232.5 a7.75 7.75 0 1 0 15.5 0 a7.75 7.75 0 1 0 -15.5 0zM348.75 77.5 a7.75 7.75 0 1 0 15.5 0 a7.75 7.75 0 1 0 -15.5 0z" fill="rgba(219, 236, 255, 1)"></path>
            <path d="M852.5 263.5L852.5 294.5L914.5 356.5L945.5 356.5L1131.5 170.5L1131.5 15.5" stroke-width="5.17" stroke="rgba(219, 236, 255, 1)"></path>
            <path d="M844.75 263.5 a7.75 7.75 0 1 0 15.5 0 a7.75 7.75 0 1 0 -15.5 0zM1123.75 15.5 a7.75 7.75 0 1 0 15.5 0 a7.75 7.75 0 1 0 -15.5 0z" fill="rgba(219, 236, 255, 1)"></path>
            <path d="M170.5 325.5L77.5 418.5" stroke-width="5.17" stroke="rgba(219, 236, 255, 1)"></path>
            <path d="M162.75 325.5 a7.75 7.75 0 1 0 15.5 0 a7.75 7.75 0 1 0 -15.5 0zM69.75 418.5 a7.75 7.75 0 1 0 15.5 0 a7.75 7.75 0 1 0 -15.5 0z" fill="rgba(219, 236, 255, 1)"></path>
            <path d="M1193.5 480.5L1255.5 480.5L1317.5 418.5L1317.5 387.5" stroke-width="5.17" stroke="rgba(219, 236, 255, 1)"></path>
            <path d="M1185.75 480.5 a7.75 7.75 0 1 0 15.5 0 a7.75 7.75 0 1 0 -15.5 0zM1309.75 387.5 a7.75 7.75 0 1 0 15.5 0 a7.75 7.75 0 1 0 -15.5 0z" fill="rgba(219, 236, 255, 1)"></path>
            <path d="M1069.5 170.5L914.5 170.5" stroke-width="5.17" stroke="rgba(219, 236, 255, 1)"></path>
            <path d="M1061.75 170.5 a7.75 7.75 0 1 0 15.5 0 a7.75 7.75 0 1 0 -15.5 0zM906.75 170.5 a7.75 7.75 0 1 0 15.5 0 a7.75 7.75 0 1 0 -15.5 0z" fill="rgba(219, 236, 255, 1)"></path>
            <path d="M1100.5 387.5L1100.5 511.5" stroke-width="5.17" stroke="rgba(219, 236, 255, 1)"></path>
            <path d="M1092.75 387.5 a7.75 7.75 0 1 0 15.5 0 a7.75 7.75 0 1 0 -15.5 0zM1092.75 511.5 a7.75 7.75 0 1 0 15.5 0 a7.75 7.75 0 1 0 -15.5 0z" fill="rgba(219, 236, 255, 1)"></path>
            <path d="M1069.5 139.5L1038.5 139.5L945.5 46.5L821.5 46.5" stroke-width="5.17" stroke="rgba(219, 236, 255, 1)"></path>
            <path d="M1061.75 139.5 a7.75 7.75 0 1 0 15.5 0 a7.75 7.75 0 1 0 -15.5 0zM813.75 46.5 a7.75 7.75 0 1 0 15.5 0 a7.75 7.75 0 1 0 -15.5 0z" fill="rgba(219, 236, 255, 1)"></path>
            <path d="M511.5 325.5L511.5 418.5" stroke-width="5.17" stroke="rgba(219, 236, 255, 1)"></path>
            <path d="M503.75 325.5 a7.75 7.75 0 1 0 15.5 0 a7.75 7.75 0 1 0 -15.5 0zM503.75 418.5 a7.75 7.75 0 1 0 15.5 0 a7.75 7.75 0 1 0 -15.5 0z" fill="rgba(219, 236, 255, 1)"></path>
            <path d="M1007.5 232.5L1007.5 263.5L945.5 325.5L914.5 325.5L883.5 294.5L883.5 263.5L914.5 232.5L914.5 201.5" stroke-width="5.17" stroke="rgba(219, 236, 255, 1)"></path>
            <path d="M999.75 232.5 a7.75 7.75 0 1 0 15.5 0 a7.75 7.75 0 1 0 -15.5 0zM906.75 201.5 a7.75 7.75 0 1 0 15.5 0 a7.75 7.75 0 1 0 -15.5 0z" fill="rgba(219, 236, 255, 1)"></path>
            <path d="M1131.5 263.5L1224.5 170.5L1255.5 170.5L1286.5 201.5L1286.5 232.5L1224.5 294.5L1100.5 294.5L1007.5 387.5L976.5 387.5" stroke-width="5.17" stroke="rgba(219, 236, 255, 1)"></path>
            <path d="M1123.75 263.5 a7.75 7.75 0 1 0 15.5 0 a7.75 7.75 0 1 0 -15.5 0zM968.75 387.5 a7.75 7.75 0 1 0 15.5 0 a7.75 7.75 0 1 0 -15.5 0z" fill="rgba(219, 236, 255, 1)"></path>
            <path d="M232.5 201.5L294.5 139.5L449.5 139.5L480.5 170.5L480.5 232.5L387.5 325.5L387.5 480.5" stroke-width="5.17" stroke="rgba(219, 236, 255, 1)"></path>
            <path d="M224.75 201.5 a7.75 7.75 0 1 0 15.5 0 a7.75 7.75 0 1 0 -15.5 0zM379.75 480.5 a7.75 7.75 0 1 0 15.5 0 a7.75 7.75 0 1 0 -15.5 0z" fill="rgba(219, 236, 255, 1)"></path>
            <path d="M77.5 511.5L77.5 573.5" stroke-width="5.17" stroke="rgba(219, 236, 255, 1)"></path>
            <path d="M69.75 511.5 a7.75 7.75 0 1 0 15.5 0 a7.75 7.75 0 1 0 -15.5 0zM69.75 573.5 a7.75 7.75 0 1 0 15.5 0 a7.75 7.75 0 1 0 -15.5 0z" fill="rgba(219, 236, 255, 1)"></path>
            <path d="M759.5 542.5L697.5 480.5L604.5 480.5L542.5 542.5L449.5 542.5L418.5 511.5" stroke-width="5.17" stroke="rgba(219, 236, 255, 1)"></path>
            <path d="M751.75 542.5 a7.75 7.75 0 1 0 15.5 0 a7.75 7.75 0 1 0 -15.5 0zM410.75 511.5 a7.75 7.75 0 1 0 15.5 0 a7.75 7.75 0 1 0 -15.5 0z" fill="rgba(219, 236, 255, 1)"></path>
            <path d="M666.5 542.5L697.5 573.5L883.5 573.5" stroke-width="5.17" stroke="rgba(219, 236, 255, 1)"></path>
            <path d="M658.75 542.5 a7.75 7.75 0 1 0 15.5 0 a7.75 7.75 0 1 0 -15.5 0zM875.75 573.5 a7.75 7.75 0 1 0 15.5 0 a7.75 7.75 0 1 0 -15.5 0z" fill="rgba(219, 236, 255, 1)"></path>
            <path d="M201.5 356.5L325.5 232.5L325.5 170.5" stroke-width="5.17" stroke="rgba(219, 236, 255, 1)"></path>
            <path d="M193.75 356.5 a7.75 7.75 0 1 0 15.5 0 a7.75 7.75 0 1 0 -15.5 0zM317.75 170.5 a7.75 7.75 0 1 0 15.5 0 a7.75 7.75 0 1 0 -15.5 0z" fill="rgba(219, 236, 255, 1)"></path>
            <path d="M108.5 356.5L108.5 139.5L15.5 46.5L15.5 15.5" stroke-width="5.17" stroke="rgba(219, 236, 255, 1)"></path>
            <path d="M100.75 356.5 a7.75 7.75 0 1 0 15.5 0 a7.75 7.75 0 1 0 -15.5 0zM7.75 15.5 a7.75 7.75 0 1 0 15.5 0 a7.75 7.75 0 1 0 -15.5 0z" fill="rgba(219, 236, 255, 1)"></path>
            <path d="M728.5 294.5L511.5 294.5" stroke-width="5.17" stroke="rgba(219, 236, 255, 1)"></path>
            <path d="M720.75 294.5 a7.75 7.75 0 1 0 15.5 0 a7.75 7.75 0 1 0 -15.5 0zM503.75 294.5 a7.75 7.75 0 1 0 15.5 0 a7.75 7.75 0 1 0 -15.5 0z" fill="rgba(219, 236, 255, 1)"></path>
            <path d="M418.5 232.5L418.5 263.5L387.5 294.5" stroke-width="5.17" stroke="rgba(219, 236, 255, 1)"></path>
            <path d="M410.75 232.5 a7.75 7.75 0 1 0 15.5 0 a7.75 7.75 0 1 0 -15.5 0zM379.75 294.5 a7.75 7.75 0 1 0 15.5 0 a7.75 7.75 0 1 0 -15.5 0z" fill="rgba(219, 236, 255, 1)"></path>
            <path d="M294.5 418.5L108.5 418.5" stroke-width="5.17" stroke="rgba(219, 236, 255, 1)"></path>
            <path d="M286.75 418.5 a7.75 7.75 0 1 0 15.5 0 a7.75 7.75 0 1 0 -15.5 0zM100.75 418.5 a7.75 7.75 0 1 0 15.5 0 a7.75 7.75 0 1 0 -15.5 0z" fill="rgba(219, 236, 255, 1)"></path>
            <path d="M1379.5 108.5L1348.5 139.5L1348.5 170.5L1410.5 232.5" stroke-width="5.17" stroke="rgba(219, 236, 255, 1)"></path>
            <path d="M1371.75 108.5 a7.75 7.75 0 1 0 15.5 0 a7.75 7.75 0 1 0 -15.5 0zM1402.75 232.5 a7.75 7.75 0 1 0 15.5 0 a7.75 7.75 0 1 0 -15.5 0z" fill="rgba(219, 236, 255, 1)"></path>
            <path d="M728.5 325.5L852.5 201.5L852.5 139.5L821.5 108.5L759.5 108.5L697.5 170.5L697.5 263.5" stroke-width="5.17" stroke="rgba(219, 236, 255, 1)"></path>
            <path d="M720.75 325.5 a7.75 7.75 0 1 0 15.5 0 a7.75 7.75 0 1 0 -15.5 0zM689.75 263.5 a7.75 7.75 0 1 0 15.5 0 a7.75 7.75 0 1 0 -15.5 0z" fill="rgba(219, 236, 255, 1)"></path>
            <path d="M1100.5 356.5L945.5 511.5L945.5 573.5" stroke-width="5.17" stroke="rgba(219, 236, 255, 1)"></path>
            <path d="M1092.75 356.5 a7.75 7.75 0 1 0 15.5 0 a7.75 7.75 0 1 0 -15.5 0zM937.75 573.5 a7.75 7.75 0 1 0 15.5 0 a7.75 7.75 0 1 0 -15.5 0z" fill="rgba(219, 236, 255, 1)"></path>
            <path d="M356.5 170.5L387.5 201.5L387.5 263.5" stroke-width="5.17" stroke="rgba(219, 236, 255, 1)"></path>
            <path d="M348.75 170.5 a7.75 7.75 0 1 0 15.5 0 a7.75 7.75 0 1 0 -15.5 0zM379.75 263.5 a7.75 7.75 0 1 0 15.5 0 a7.75 7.75 0 1 0 -15.5 0z" fill="rgba(219, 236, 255, 1)"></path>
            <path d="M1255.5 449.5L1255.5 418.5L1286.5 387.5" stroke-width="5.17" stroke="rgba(219, 236, 255, 1)"></path>
            <path d="M1247.75 449.5 a7.75 7.75 0 1 0 15.5 0 a7.75 7.75 0 1 0 -15.5 0zM1278.75 387.5 a7.75 7.75 0 1 0 15.5 0 a7.75 7.75 0 1 0 -15.5 0z" fill="rgba(219, 236, 255, 1)"></path>
            <path d="M139.5 139.5L139.5 15.5" stroke-width="5.17" stroke="rgba(219, 236, 255, 1)"></path>
            <path d="M131.75 139.5 a7.75 7.75 0 1 0 15.5 0 a7.75 7.75 0 1 0 -15.5 0zM131.75 15.5 a7.75 7.75 0 1 0 15.5 0 a7.75 7.75 0 1 0 -15.5 0z" fill="rgba(219, 236, 255, 1)"></path>
            <path d="M1317.5 511.5L1348.5 511.5L1379.5 542.5L1379.5 573.5" stroke-width="5.17" stroke="rgba(219, 236, 255, 1)"></path>
            <path d="M1309.75 511.5 a7.75 7.75 0 1 0 15.5 0 a7.75 7.75 0 1 0 -15.5 0zM1371.75 573.5 a7.75 7.75 0 1 0 15.5 0 a7.75 7.75 0 1 0 -15.5 0z" fill="rgba(219, 236, 255, 1)"></path>
            <path d="M976.5 511.5L976.5 573.5" stroke-width="5.17" stroke="rgba(219, 236, 255, 1)"></path>
            <path d="M968.75 511.5 a7.75 7.75 0 1 0 15.5 0 a7.75 7.75 0 1 0 -15.5 0zM968.75 573.5 a7.75 7.75 0 1 0 15.5 0 a7.75 7.75 0 1 0 -15.5 0z" fill="rgba(219, 236, 255, 1)"></path>
            <path d="M790.5 232.5L728.5 232.5" stroke-width="5.17" stroke="rgba(219, 236, 255, 1)"></path>
            <path d="M782.75 232.5 a7.75 7.75 0 1 0 15.5 0 a7.75 7.75 0 1 0 -15.5 0zM720.75 232.5 a7.75 7.75 0 1 0 15.5 0 a7.75 7.75 0 1 0 -15.5 0z" fill="rgba(219, 236, 255, 1)"></path>
            <path d="M945.5 263.5L945.5 201.5" stroke-width="5.17" stroke="rgba(219, 236, 255, 1)"></path>
            <path d="M937.75 263.5 a7.75 7.75 0 1 0 15.5 0 a7.75 7.75 0 1 0 -15.5 0zM937.75 201.5 a7.75 7.75 0 1 0 15.5 0 a7.75 7.75 0 1 0 -15.5 0z" fill="rgba(219, 236, 255, 1)"></path>
            <path d="M604.5 356.5L666.5 356.5L697.5 325.5" stroke-width="5.17" stroke="rgba(219, 236, 255, 1)"></path>
            <path d="M596.75 356.5 a7.75 7.75 0 1 0 15.5 0 a7.75 7.75 0 1 0 -15.5 0zM689.75 325.5 a7.75 7.75 0 1 0 15.5 0 a7.75 7.75 0 1 0 -15.5 0z" fill="rgba(219, 236, 255, 1)"></path>
            <path d="M1410.5 15.5L1410.5 201.5" stroke-width="5.17" stroke="rgba(219, 236, 255, 1)"></path>
            <path d="M1402.75 15.5 a7.75 7.75 0 1 0 15.5 0 a7.75 7.75 0 1 0 -15.5 0zM1402.75 201.5 a7.75 7.75 0 1 0 15.5 0 a7.75 7.75 0 1 0 -15.5 0z" fill="rgba(219, 236, 255, 1)"></path>
            <path d="M294.5 294.5L201.5 387.5L139.5 387.5" stroke-width="5.17" stroke="rgba(219, 236, 255, 1)"></path>
            <path d="M286.75 294.5 a7.75 7.75 0 1 0 15.5 0 a7.75 7.75 0 1 0 -15.5 0zM131.75 387.5 a7.75 7.75 0 1 0 15.5 0 a7.75 7.75 0 1 0 -15.5 0z" fill="rgba(219, 236, 255, 1)"></path>
            <path d="M449.5 325.5L449.5 418.5L418.5 449.5" stroke-width="5.17" stroke="rgba(219, 236, 255, 1)"></path>
            <path d="M441.75 325.5 a7.75 7.75 0 1 0 15.5 0 a7.75 7.75 0 1 0 -15.5 0zM410.75 449.5 a7.75 7.75 0 1 0 15.5 0 a7.75 7.75 0 1 0 -15.5 0z" fill="rgba(219, 236, 255, 1)"></path>
            <path d="M139.5 170.5L201.5 170.5L294.5 77.5" stroke-width="5.17" stroke="rgba(219, 236, 255, 1)"></path>
            <path d="M131.75 170.5 a7.75 7.75 0 1 0 15.5 0 a7.75 7.75 0 1 0 -15.5 0zM286.75 77.5 a7.75 7.75 0 1 0 15.5 0 a7.75 7.75 0 1 0 -15.5 0z" fill="rgba(219, 236, 255, 1)"></path>
            <path d="M1286.5 511.5L1286.5 573.5" stroke-width="5.17" stroke="rgba(219, 236, 255, 1)"></path>
            <path d="M1278.75 511.5 a7.75 7.75 0 1 0 15.5 0 a7.75 7.75 0 1 0 -15.5 0zM1278.75 573.5 a7.75 7.75 0 1 0 15.5 0 a7.75 7.75 0 1 0 -15.5 0z" fill="rgba(219, 236, 255, 1)"></path>
            <path d="M821.5 201.5L821.5 139.5" stroke-width="5.17" stroke="rgba(219, 236, 255, 1)"></path>
            <path d="M813.75 201.5 a7.75 7.75 0 1 0 15.5 0 a7.75 7.75 0 1 0 -15.5 0zM813.75 139.5 a7.75 7.75 0 1 0 15.5 0 a7.75 7.75 0 1 0 -15.5 0z" fill="rgba(219, 236, 255, 1)"></path>
            <path d="M263.5 480.5L294.5 480.5L325.5 449.5L325.5 418.5" stroke-width="5.17" stroke="rgba(219, 236, 255, 1)"></path>
            <path d="M255.75 480.5 a7.75 7.75 0 1 0 15.5 0 a7.75 7.75 0 1 0 -15.5 0zM317.75 418.5 a7.75 7.75 0 1 0 15.5 0 a7.75 7.75 0 1 0 -15.5 0z" fill="rgba(219, 236, 255, 1)"></path>
            <path d="M542.5 170.5L573.5 139.5L573.5 108.5" stroke-width="5.17" stroke="rgba(219, 236, 255, 1)"></path>
            <path d="M534.75 170.5 a7.75 7.75 0 1 0 15.5 0 a7.75 7.75 0 1 0 -15.5 0zM565.75 108.5 a7.75 7.75 0 1 0 15.5 0 a7.75 7.75 0 1 0 -15.5 0z" fill="rgba(219, 236, 255, 1)"></path>
            <path d="M1131.5 356.5L1131.5 480.5" stroke-width="5.17" stroke="rgba(219, 236, 255, 1)"></path>
            <path d="M1123.75 356.5 a7.75 7.75 0 1 0 15.5 0 a7.75 7.75 0 1 0 -15.5 0zM1123.75 480.5 a7.75 7.75 0 1 0 15.5 0 a7.75 7.75 0 1 0 -15.5 0z" fill="rgba(219, 236, 255, 1)"></path>
            <path d="M15.5 542.5L15.5 449.5" stroke-width="5.17" stroke="rgba(219, 236, 255, 1)"></path>
            <path d="M7.75 542.5 a7.75 7.75 0 1 0 15.5 0 a7.75 7.75 0 1 0 -15.5 0zM7.75 449.5 a7.75 7.75 0 1 0 15.5 0 a7.75 7.75 0 1 0 -15.5 0z" fill="rgba(219, 236, 255, 1)"></path>
            <path d="M480.5 480.5L573.5 480.5" stroke-width="5.17" stroke="rgba(219, 236, 255, 1)"></path>
            <path d="M472.75 480.5 a7.75 7.75 0 1 0 15.5 0 a7.75 7.75 0 1 0 -15.5 0zM565.75 480.5 a7.75 7.75 0 1 0 15.5 0 a7.75 7.75 0 1 0 -15.5 0z" fill="rgba(219, 236, 255, 1)"></path>
            <path d="M666.5 263.5L511.5 263.5" stroke-width="5.17" stroke="rgba(219, 236, 255, 1)"></path>
            <path d="M658.75 263.5 a7.75 7.75 0 1 0 15.5 0 a7.75 7.75 0 1 0 -15.5 0zM503.75 263.5 a7.75 7.75 0 1 0 15.5 0 a7.75 7.75 0 1 0 -15.5 0z" fill="rgba(219, 236, 255, 1)"></path>
            <path d="M201.5 449.5L108.5 449.5" stroke-width="5.17" stroke="rgba(219, 236, 255, 1)"></path>
            <path d="M193.75 449.5 a7.75 7.75 0 1 0 15.5 0 a7.75 7.75 0 1 0 -15.5 0zM100.75 449.5 a7.75 7.75 0 1 0 15.5 0 a7.75 7.75 0 1 0 -15.5 0z" fill="rgba(219, 236, 255, 1)"></path>
            <path d="M945.5 139.5L914.5 108.5L914.5 77.5" stroke-width="5.17" stroke="rgba(219, 236, 255, 1)"></path>
            <path d="M937.75 139.5 a7.75 7.75 0 1 0 15.5 0 a7.75 7.75 0 1 0 -15.5 0zM906.75 77.5 a7.75 7.75 0 1 0 15.5 0 a7.75 7.75 0 1 0 -15.5 0z" fill="rgba(219, 236, 255, 1)"></path>
            <path d="M232.5 294.5L232.5 232.5L294.5 170.5" stroke-width="5.17" stroke="rgba(219, 236, 255, 1)"></path>
            <path d="M224.75 294.5 a7.75 7.75 0 1 0 15.5 0 a7.75 7.75 0 1 0 -15.5 0zM286.75 170.5 a7.75 7.75 0 1 0 15.5 0 a7.75 7.75 0 1 0 -15.5 0z" fill="rgba(219, 236, 255, 1)"></path>
            <path d="M1007.5 573.5L1007.5 511.5L1069.5 449.5L1069.5 418.5" stroke-width="5.17" stroke="rgba(219, 236, 255, 1)"></path>
            <path d="M999.75 573.5 a7.75 7.75 0 1 0 15.5 0 a7.75 7.75 0 1 0 -15.5 0zM1061.75 418.5 a7.75 7.75 0 1 0 15.5 0 a7.75 7.75 0 1 0 -15.5 0z" fill="rgba(219, 236, 255, 1)"></path>
            <path d="M728.5 542.5L697.5 542.5L666.5 511.5L604.5 511.5L542.5 573.5L511.5 573.5" stroke-width="5.17" stroke="rgba(219, 236, 255, 1)"></path>
            <path d="M720.75 542.5 a7.75 7.75 0 1 0 15.5 0 a7.75 7.75 0 1 0 -15.5 0zM503.75 573.5 a7.75 7.75 0 1 0 15.5 0 a7.75 7.75 0 1 0 -15.5 0z" fill="rgba(219, 236, 255, 1)"></path>
            <path d="M1317.5 294.5L1379.5 294.5" stroke-width="5.17" stroke="rgba(219, 236, 255, 1)"></path>
            <path d="M1309.75 294.5 a7.75 7.75 0 1 0 15.5 0 a7.75 7.75 0 1 0 -15.5 0zM1371.75 294.5 a7.75 7.75 0 1 0 15.5 0 a7.75 7.75 0 1 0 -15.5 0z" fill="rgba(219, 236, 255, 1)"></path>
            <path d="M604.5 201.5L604.5 170.5L635.5 139.5L697.5 139.5" stroke-width="5.17" stroke="rgba(219, 236, 255, 1)"></path>
            <path d="M596.75 201.5 a7.75 7.75 0 1 0 15.5 0 a7.75 7.75 0 1 0 -15.5 0zM689.75 139.5 a7.75 7.75 0 1 0 15.5 0 a7.75 7.75 0 1 0 -15.5 0z" fill="rgba(219, 236, 255, 1)"></path>
            <path d="M573.5 201.5L604.5 232.5L635.5 232.5L666.5 201.5L666.5 170.5" stroke-width="5.17" stroke="rgba(219, 236, 255, 1)"></path>
            <path d="M565.75 201.5 a7.75 7.75 0 1 0 15.5 0 a7.75 7.75 0 1 0 -15.5 0zM658.75 170.5 a7.75 7.75 0 1 0 15.5 0 a7.75 7.75 0 1 0 -15.5 0z" fill="rgba(219, 236, 255, 1)"></path>
            <path d="M1193.5 263.5L1224.5 263.5L1255.5 232.5L1255.5 201.5" stroke-width="5.17" stroke="rgba(219, 236, 255, 1)"></path>
            <path d="M1185.75 263.5 a7.75 7.75 0 1 0 15.5 0 a7.75 7.75 0 1 0 -15.5 0zM1247.75 201.5 a7.75 7.75 0 1 0 15.5 0 a7.75 7.75 0 1 0 -15.5 0z" fill="rgba(219, 236, 255, 1)"></path>
            <path d="M1410.5 480.5L1317.5 480.5" stroke-width="5.17" stroke="rgba(219, 236, 255, 1)"></path>
            <path d="M1402.75 480.5 a7.75 7.75 0 1 0 15.5 0 a7.75 7.75 0 1 0 -15.5 0zM1309.75 480.5 a7.75 7.75 0 1 0 15.5 0 a7.75 7.75 0 1 0 -15.5 0z" fill="rgba(219, 236, 255, 1)"></path>
            <path d="M542.5 325.5L666.5 325.5" stroke-width="5.17" stroke="rgba(219, 236, 255, 1)"></path>
            <path d="M534.75 325.5 a7.75 7.75 0 1 0 15.5 0 a7.75 7.75 0 1 0 -15.5 0zM658.75 325.5 a7.75 7.75 0 1 0 15.5 0 a7.75 7.75 0 1 0 -15.5 0z" fill="rgba(219, 236, 255, 1)"></path>
            <path d="M325.5 325.5L325.5 263.5" stroke-width="5.17" stroke="rgba(219, 236, 255, 1)"></path>
            <path d="M317.75 325.5 a7.75 7.75 0 1 0 15.5 0 a7.75 7.75 0 1 0 -15.5 0zM317.75 263.5 a7.75 7.75 0 1 0 15.5 0 a7.75 7.75 0 1 0 -15.5 0z" fill="rgba(219, 236, 255, 1)"></path>
            <path d="M852.5 325.5L914.5 387.5" stroke-width="5.17" stroke="rgba(219, 236, 255, 1)"></path>
            <path d="M844.75 325.5 a7.75 7.75 0 1 0 15.5 0 a7.75 7.75 0 1 0 -15.5 0zM906.75 387.5 a7.75 7.75 0 1 0 15.5 0 a7.75 7.75 0 1 0 -15.5 0z" fill="rgba(219, 236, 255, 1)"></path>
            <path d="M1069.5 46.5L1038.5 77.5L1007.5 77.5L976.5 46.5" stroke-width="5.17" stroke="rgba(219, 236, 255, 1)"></path>
            <path d="M1061.75 46.5 a7.75 7.75 0 1 0 15.5 0 a7.75 7.75 0 1 0 -15.5 0zM968.75 46.5 a7.75 7.75 0 1 0 15.5 0 a7.75 7.75 0 1 0 -15.5 0z" fill="rgba(219, 236, 255, 1)"></path>
            <path d="M821.5 325.5L790.5 356.5L759.5 356.5" stroke-width="5.17" stroke="rgba(219, 236, 255, 1)"></path>
            <path d="M813.75 325.5 a7.75 7.75 0 1 0 15.5 0 a7.75 7.75 0 1 0 -15.5 0zM751.75 356.5 a7.75 7.75 0 1 0 15.5 0 a7.75 7.75 0 1 0 -15.5 0z" fill="rgba(219, 236, 255, 1)"></path>
            <path d="M77.5 201.5L77.5 139.5L46.5 108.5" stroke-width="5.17" stroke="rgba(219, 236, 255, 1)"></path>
            <path d="M69.75 201.5 a7.75 7.75 0 1 0 15.5 0 a7.75 7.75 0 1 0 -15.5 0zM38.75 108.5 a7.75 7.75 0 1 0 15.5 0 a7.75 7.75 0 1 0 -15.5 0z" fill="rgba(219, 236, 255, 1)"></path>
            <path d="M263.5 449.5L232.5 480.5L139.5 480.5" stroke-width="5.17" stroke="rgba(219, 236, 255, 1)"></path>
            <path d="M255.75 449.5 a7.75 7.75 0 1 0 15.5 0 a7.75 7.75 0 1 0 -15.5 0zM131.75 480.5 a7.75 7.75 0 1 0 15.5 0 a7.75 7.75 0 1 0 -15.5 0z" fill="rgba(219, 236, 255, 1)"></path>
            <path d="M1162.5 15.5L1162.5 108.5" stroke-width="5.17" stroke="rgba(219, 236, 255, 1)"></path>
            <path d="M1154.75 15.5 a7.75 7.75 0 1 0 15.5 0 a7.75 7.75 0 1 0 -15.5 0zM1154.75 108.5 a7.75 7.75 0 1 0 15.5 0 a7.75 7.75 0 1 0 -15.5 0z" fill="rgba(219, 236, 255, 1)"></path>
            <path d="M1348.5 15.5L1255.5 15.5" stroke-width="5.17" stroke="rgba(219, 236, 255, 1)"></path>
            <path d="M1340.75 15.5 a7.75 7.75 0 1 0 15.5 0 a7.75 7.75 0 1 0 -15.5 0zM1247.75 15.5 a7.75 7.75 0 1 0 15.5 0 a7.75 7.75 0 1 0 -15.5 0z" fill="rgba(219, 236, 255, 1)"></path>
            <path d="M1193.5 387.5L1193.5 418.5L1162.5 449.5" stroke-width="5.17" stroke="rgba(219, 236, 255, 1)"></path>
            <path d="M1185.75 387.5 a7.75 7.75 0 1 0 15.5 0 a7.75 7.75 0 1 0 -15.5 0zM1154.75 449.5 a7.75 7.75 0 1 0 15.5 0 a7.75 7.75 0 1 0 -15.5 0z" fill="rgba(219, 236, 255, 1)"></path>
            <path d="M852.5 418.5L852.5 356.5" stroke-width="5.17" stroke="rgba(219, 236, 255, 1)"></path>
            <path d="M844.75 418.5 a7.75 7.75 0 1 0 15.5 0 a7.75 7.75 0 1 0 -15.5 0zM844.75 356.5 a7.75 7.75 0 1 0 15.5 0 a7.75 7.75 0 1 0 -15.5 0z" fill="rgba(219, 236, 255, 1)"></path>
            <path d="M1100.5 170.5L1100.5 108.5" stroke-width="5.17" stroke="rgba(219, 236, 255, 1)"></path>
            <path d="M1092.75 170.5 a7.75 7.75 0 1 0 15.5 0 a7.75 7.75 0 1 0 -15.5 0zM1092.75 108.5 a7.75 7.75 0 1 0 15.5 0 a7.75 7.75 0 1 0 -15.5 0z" fill="rgba(219, 236, 255, 1)"></path>
            <path d="M170.5 201.5L139.5 232.5L139.5 263.5L201.5 325.5" stroke-width="5.17" stroke="rgba(219, 236, 255, 1)"></path>
            <path d="M162.75 201.5 a7.75 7.75 0 1 0 15.5 0 a7.75 7.75 0 1 0 -15.5 0zM193.75 325.5 a7.75 7.75 0 1 0 15.5 0 a7.75 7.75 0 1 0 -15.5 0z" fill="rgba(219, 236, 255, 1)"></path>
            <path d="M1317.5 46.5L1379.5 46.5" stroke-width="5.17" stroke="rgba(219, 236, 255, 1)"></path>
            <path d="M1309.75 46.5 a7.75 7.75 0 1 0 15.5 0 a7.75 7.75 0 1 0 -15.5 0zM1371.75 46.5 a7.75 7.75 0 1 0 15.5 0 a7.75 7.75 0 1 0 -15.5 0z" fill="rgba(219, 236, 255, 1)"></path>
            <path d="M387.5 170.5L449.5 170.5" stroke-width="5.17" stroke="rgba(219, 236, 255, 1)"></path>
            <path d="M379.75 170.5 a7.75 7.75 0 1 0 15.5 0 a7.75 7.75 0 1 0 -15.5 0zM441.75 170.5 a7.75 7.75 0 1 0 15.5 0 a7.75 7.75 0 1 0 -15.5 0z" fill="rgba(219, 236, 255, 1)"></path>
            <path d="M1193.5 542.5L1162.5 542.5L1131.5 573.5" stroke-width="5.17" stroke="rgba(219, 236, 255, 1)"></path>
            <path d="M1185.75 542.5 a7.75 7.75 0 1 0 15.5 0 a7.75 7.75 0 1 0 -15.5 0zM1123.75 573.5 a7.75 7.75 0 1 0 15.5 0 a7.75 7.75 0 1 0 -15.5 0z" fill="rgba(219, 236, 255, 1)"></path>
            <path d="M46.5 542.5L46.5 480.5" stroke-width="5.17" stroke="rgba(219, 236, 255, 1)"></path>
            <path d="M38.75 542.5 a7.75 7.75 0 1 0 15.5 0 a7.75 7.75 0 1 0 -15.5 0zM38.75 480.5 a7.75 7.75 0 1 0 15.5 0 a7.75 7.75 0 1 0 -15.5 0z" fill="rgba(219, 236, 255, 1)"></path>
            <path d="M976.5 201.5L976.5 263.5" stroke-width="5.17" stroke="rgba(219, 236, 255, 1)"></path>
            <path d="M968.75 201.5 a7.75 7.75 0 1 0 15.5 0 a7.75 7.75 0 1 0 -15.5 0zM968.75 263.5 a7.75 7.75 0 1 0 15.5 0 a7.75 7.75 0 1 0 -15.5 0z" fill="rgba(219, 236, 255, 1)"></path>
            <path d="M77.5 294.5L77.5 387.5" stroke-width="5.17" stroke="rgba(219, 236, 255, 1)"></path>
            <path d="M69.75 294.5 a7.75 7.75 0 1 0 15.5 0 a7.75 7.75 0 1 0 -15.5 0zM69.75 387.5 a7.75 7.75 0 1 0 15.5 0 a7.75 7.75 0 1 0 -15.5 0z" fill="rgba(219, 236, 255, 1)"></path>
            <path d="M790.5 418.5L728.5 418.5" stroke-width="5.17" stroke="rgba(219, 236, 255, 1)"></path>
            <path d="M782.75 418.5 a7.75 7.75 0 1 0 15.5 0 a7.75 7.75 0 1 0 -15.5 0zM720.75 418.5 a7.75 7.75 0 1 0 15.5 0 a7.75 7.75 0 1 0 -15.5 0z" fill="rgba(219, 236, 255, 1)"></path>
            <path d="M1162.5 356.5L1224.5 356.5" stroke-width="5.17" stroke="rgba(219, 236, 255, 1)"></path>
            <path d="M1154.75 356.5 a7.75 7.75 0 1 0 15.5 0 a7.75 7.75 0 1 0 -15.5 0zM1216.75 356.5 a7.75 7.75 0 1 0 15.5 0 a7.75 7.75 0 1 0 -15.5 0z" fill="rgba(219, 236, 255, 1)"></path>
        </g>
    </g>
    <defs>
        <mask id="SvgjsMask1101">
            <rect width="1400" height="560" fill="#ffffff"></rect>
        </mask>
        <mask id="SvgjsMask1102">
            <rect width="1400" height="560" fill="white"></rect>
            <path d="M104.62 542.5 a3.88 3.88 0 1 0 7.76 0 a3.88 3.88 0 1 0 -7.76 0zM352.62 201.5 a3.88 3.88 0 1 0 7.76 0 a3.88 3.88 0 1 0 -7.76 0z" fill="black"></path>
            <path d="M197.62 46.5 a3.88 3.88 0 1 0 7.76 0 a3.88 3.88 0 1 0 -7.76 0zM786.62 46.5 a3.88 3.88 0 1 0 7.76 0 a3.88 3.88 0 1 0 -7.76 0z" fill="black"></path>
            <path d="M290.62 542.5 a3.88 3.88 0 1 0 7.76 0 a3.88 3.88 0 1 0 -7.76 0zM11.62 108.5 a3.88 3.88 0 1 0 7.76 0 a3.88 3.88 0 1 0 -7.76 0z" fill="black"></path>
            <path d="M1096.62 232.5 a3.88 3.88 0 1 0 7.76 0 a3.88 3.88 0 1 0 -7.76 0zM910.62 573.5 a3.88 3.88 0 1 0 7.76 0 a3.88 3.88 0 1 0 -7.76 0z" fill="black"></path>
            <path d="M42.62 201.5 a3.88 3.88 0 1 0 7.76 0 a3.88 3.88 0 1 0 -7.76 0zM321.62 511.5 a3.88 3.88 0 1 0 7.76 0 a3.88 3.88 0 1 0 -7.76 0z" fill="black"></path>
            <path d="M476.62 449.5 a3.88 3.88 0 1 0 7.76 0 a3.88 3.88 0 1 0 -7.76 0zM879.62 449.5 a3.88 3.88 0 1 0 7.76 0 a3.88 3.88 0 1 0 -7.76 0z" fill="black"></path>
            <path d="M383.62 77.5 a3.88 3.88 0 1 0 7.76 0 a3.88 3.88 0 1 0 -7.76 0zM879.62 232.5 a3.88 3.88 0 1 0 7.76 0 a3.88 3.88 0 1 0 -7.76 0z" fill="black"></path>
            <path d="M1375.62 511.5 a3.88 3.88 0 1 0 7.76 0 a3.88 3.88 0 1 0 -7.76 0zM1406.62 573.5 a3.88 3.88 0 1 0 7.76 0 a3.88 3.88 0 1 0 -7.76 0z" fill="black"></path>
            <path d="M321.62 108.5 a3.88 3.88 0 1 0 7.76 0 a3.88 3.88 0 1 0 -7.76 0zM383.62 573.5 a3.88 3.88 0 1 0 7.76 0 a3.88 3.88 0 1 0 -7.76 0z" fill="black"></path>
            <path d="M1189.62 108.5 a3.88 3.88 0 1 0 7.76 0 a3.88 3.88 0 1 0 -7.76 0zM1189.62 15.5 a3.88 3.88 0 1 0 7.76 0 a3.88 3.88 0 1 0 -7.76 0z" fill="black"></path>
            <path d="M755.62 46.5 a3.88 3.88 0 1 0 7.76 0 a3.88 3.88 0 1 0 -7.76 0zM166.62 139.5 a3.88 3.88 0 1 0 7.76 0 a3.88 3.88 0 1 0 -7.76 0z" fill="black"></path>
            <path d="M1406.62 263.5 a3.88 3.88 0 1 0 7.76 0 a3.88 3.88 0 1 0 -7.76 0zM1220.62 15.5 a3.88 3.88 0 1 0 7.76 0 a3.88 3.88 0 1 0 -7.76 0z" fill="black"></path>
            <path d="M104.62 108.5 a3.88 3.88 0 1 0 7.76 0 a3.88 3.88 0 1 0 -7.76 0zM104.62 15.5 a3.88 3.88 0 1 0 7.76 0 a3.88 3.88 0 1 0 -7.76 0z" fill="black"></path>
            <path d="M1127.62 325.5 a3.88 3.88 0 1 0 7.76 0 a3.88 3.88 0 1 0 -7.76 0zM1406.62 325.5 a3.88 3.88 0 1 0 7.76 0 a3.88 3.88 0 1 0 -7.76 0z" fill="black"></path>
            <path d="M1220.62 542.5 a3.88 3.88 0 1 0 7.76 0 a3.88 3.88 0 1 0 -7.76 0zM1406.62 387.5 a3.88 3.88 0 1 0 7.76 0 a3.88 3.88 0 1 0 -7.76 0z" fill="black"></path>
            <path d="M259.62 387.5 a3.88 3.88 0 1 0 7.76 0 a3.88 3.88 0 1 0 -7.76 0zM321.62 387.5 a3.88 3.88 0 1 0 7.76 0 a3.88 3.88 0 1 0 -7.76 0z" fill="black"></path>
            <path d="M817.62 356.5 a3.88 3.88 0 1 0 7.76 0 a3.88 3.88 0 1 0 -7.76 0zM817.62 418.5 a3.88 3.88 0 1 0 7.76 0 a3.88 3.88 0 1 0 -7.76 0z" fill="black"></path>
            <path d="M1096.62 46.5 a3.88 3.88 0 1 0 7.76 0 a3.88 3.88 0 1 0 -7.76 0zM786.62 15.5 a3.88 3.88 0 1 0 7.76 0 a3.88 3.88 0 1 0 -7.76 0z" fill="black"></path>
            <path d="M1034.62 542.5 a3.88 3.88 0 1 0 7.76 0 a3.88 3.88 0 1 0 -7.76 0zM1344.62 387.5 a3.88 3.88 0 1 0 7.76 0 a3.88 3.88 0 1 0 -7.76 0z" fill="black"></path>
            <path d="M1003.62 356.5 a3.88 3.88 0 1 0 7.76 0 a3.88 3.88 0 1 0 -7.76 0zM1406.62 294.5 a3.88 3.88 0 1 0 7.76 0 a3.88 3.88 0 1 0 -7.76 0z" fill="black"></path>
            <path d="M662.62 387.5 a3.88 3.88 0 1 0 7.76 0 a3.88 3.88 0 1 0 -7.76 0zM786.62 387.5 a3.88 3.88 0 1 0 7.76 0 a3.88 3.88 0 1 0 -7.76 0z" fill="black"></path>
            <path d="M166.62 232.5 a3.88 3.88 0 1 0 7.76 0 a3.88 3.88 0 1 0 -7.76 0zM352.62 77.5 a3.88 3.88 0 1 0 7.76 0 a3.88 3.88 0 1 0 -7.76 0z" fill="black"></path>
            <path d="M848.62 263.5 a3.88 3.88 0 1 0 7.76 0 a3.88 3.88 0 1 0 -7.76 0zM1127.62 15.5 a3.88 3.88 0 1 0 7.76 0 a3.88 3.88 0 1 0 -7.76 0z" fill="black"></path>
            <path d="M166.62 325.5 a3.88 3.88 0 1 0 7.76 0 a3.88 3.88 0 1 0 -7.76 0zM73.62 418.5 a3.88 3.88 0 1 0 7.76 0 a3.88 3.88 0 1 0 -7.76 0z" fill="black"></path>
            <path d="M1189.62 480.5 a3.88 3.88 0 1 0 7.76 0 a3.88 3.88 0 1 0 -7.76 0zM1313.62 387.5 a3.88 3.88 0 1 0 7.76 0 a3.88 3.88 0 1 0 -7.76 0z" fill="black"></path>
            <path d="M1065.62 170.5 a3.88 3.88 0 1 0 7.76 0 a3.88 3.88 0 1 0 -7.76 0zM910.62 170.5 a3.88 3.88 0 1 0 7.76 0 a3.88 3.88 0 1 0 -7.76 0z" fill="black"></path>
            <path d="M1096.62 387.5 a3.88 3.88 0 1 0 7.76 0 a3.88 3.88 0 1 0 -7.76 0zM1096.62 511.5 a3.88 3.88 0 1 0 7.76 0 a3.88 3.88 0 1 0 -7.76 0z" fill="black"></path>
            <path d="M1065.62 139.5 a3.88 3.88 0 1 0 7.76 0 a3.88 3.88 0 1 0 -7.76 0zM817.62 46.5 a3.88 3.88 0 1 0 7.76 0 a3.88 3.88 0 1 0 -7.76 0z" fill="black"></path>
            <path d="M507.62 325.5 a3.88 3.88 0 1 0 7.76 0 a3.88 3.88 0 1 0 -7.76 0zM507.62 418.5 a3.88 3.88 0 1 0 7.76 0 a3.88 3.88 0 1 0 -7.76 0z" fill="black"></path>
            <path d="M1003.62 232.5 a3.88 3.88 0 1 0 7.76 0 a3.88 3.88 0 1 0 -7.76 0zM910.62 201.5 a3.88 3.88 0 1 0 7.76 0 a3.88 3.88 0 1 0 -7.76 0z" fill="black"></path>
            <path d="M1127.62 263.5 a3.88 3.88 0 1 0 7.76 0 a3.88 3.88 0 1 0 -7.76 0zM972.62 387.5 a3.88 3.88 0 1 0 7.76 0 a3.88 3.88 0 1 0 -7.76 0z" fill="black"></path>
            <path d="M228.62 201.5 a3.88 3.88 0 1 0 7.76 0 a3.88 3.88 0 1 0 -7.76 0zM383.62 480.5 a3.88 3.88 0 1 0 7.76 0 a3.88 3.88 0 1 0 -7.76 0z" fill="black"></path>
            <path d="M73.62 511.5 a3.88 3.88 0 1 0 7.76 0 a3.88 3.88 0 1 0 -7.76 0zM73.62 573.5 a3.88 3.88 0 1 0 7.76 0 a3.88 3.88 0 1 0 -7.76 0z" fill="black"></path>
            <path d="M755.62 542.5 a3.88 3.88 0 1 0 7.76 0 a3.88 3.88 0 1 0 -7.76 0zM414.62 511.5 a3.88 3.88 0 1 0 7.76 0 a3.88 3.88 0 1 0 -7.76 0z" fill="black"></path>
            <path d="M662.62 542.5 a3.88 3.88 0 1 0 7.76 0 a3.88 3.88 0 1 0 -7.76 0zM879.62 573.5 a3.88 3.88 0 1 0 7.76 0 a3.88 3.88 0 1 0 -7.76 0z" fill="black"></path>
            <path d="M197.62 356.5 a3.88 3.88 0 1 0 7.76 0 a3.88 3.88 0 1 0 -7.76 0zM321.62 170.5 a3.88 3.88 0 1 0 7.76 0 a3.88 3.88 0 1 0 -7.76 0z" fill="black"></path>
            <path d="M104.62 356.5 a3.88 3.88 0 1 0 7.76 0 a3.88 3.88 0 1 0 -7.76 0zM11.62 15.5 a3.88 3.88 0 1 0 7.76 0 a3.88 3.88 0 1 0 -7.76 0z" fill="black"></path>
            <path d="M724.62 294.5 a3.88 3.88 0 1 0 7.76 0 a3.88 3.88 0 1 0 -7.76 0zM507.62 294.5 a3.88 3.88 0 1 0 7.76 0 a3.88 3.88 0 1 0 -7.76 0z" fill="black"></path>
            <path d="M414.62 232.5 a3.88 3.88 0 1 0 7.76 0 a3.88 3.88 0 1 0 -7.76 0zM383.62 294.5 a3.88 3.88 0 1 0 7.76 0 a3.88 3.88 0 1 0 -7.76 0z" fill="black"></path>
            <path d="M290.62 418.5 a3.88 3.88 0 1 0 7.76 0 a3.88 3.88 0 1 0 -7.76 0zM104.62 418.5 a3.88 3.88 0 1 0 7.76 0 a3.88 3.88 0 1 0 -7.76 0z" fill="black"></path>
            <path d="M1375.62 108.5 a3.88 3.88 0 1 0 7.76 0 a3.88 3.88 0 1 0 -7.76 0zM1406.62 232.5 a3.88 3.88 0 1 0 7.76 0 a3.88 3.88 0 1 0 -7.76 0z" fill="black"></path>
            <path d="M724.62 325.5 a3.88 3.88 0 1 0 7.76 0 a3.88 3.88 0 1 0 -7.76 0zM693.62 263.5 a3.88 3.88 0 1 0 7.76 0 a3.88 3.88 0 1 0 -7.76 0z" fill="black"></path>
            <path d="M1096.62 356.5 a3.88 3.88 0 1 0 7.76 0 a3.88 3.88 0 1 0 -7.76 0zM941.62 573.5 a3.88 3.88 0 1 0 7.76 0 a3.88 3.88 0 1 0 -7.76 0z" fill="black"></path>
            <path d="M352.62 170.5 a3.88 3.88 0 1 0 7.76 0 a3.88 3.88 0 1 0 -7.76 0zM383.62 263.5 a3.88 3.88 0 1 0 7.76 0 a3.88 3.88 0 1 0 -7.76 0z" fill="black"></path>
            <path d="M1251.62 449.5 a3.88 3.88 0 1 0 7.76 0 a3.88 3.88 0 1 0 -7.76 0zM1282.62 387.5 a3.88 3.88 0 1 0 7.76 0 a3.88 3.88 0 1 0 -7.76 0z" fill="black"></path>
            <path d="M135.62 139.5 a3.88 3.88 0 1 0 7.76 0 a3.88 3.88 0 1 0 -7.76 0zM135.62 15.5 a3.88 3.88 0 1 0 7.76 0 a3.88 3.88 0 1 0 -7.76 0z" fill="black"></path>
            <path d="M1313.62 511.5 a3.88 3.88 0 1 0 7.76 0 a3.88 3.88 0 1 0 -7.76 0zM1375.62 573.5 a3.88 3.88 0 1 0 7.76 0 a3.88 3.88 0 1 0 -7.76 0z" fill="black"></path>
            <path d="M972.62 511.5 a3.88 3.88 0 1 0 7.76 0 a3.88 3.88 0 1 0 -7.76 0zM972.62 573.5 a3.88 3.88 0 1 0 7.76 0 a3.88 3.88 0 1 0 -7.76 0z" fill="black"></path>
            <path d="M786.62 232.5 a3.88 3.88 0 1 0 7.76 0 a3.88 3.88 0 1 0 -7.76 0zM724.62 232.5 a3.88 3.88 0 1 0 7.76 0 a3.88 3.88 0 1 0 -7.76 0z" fill="black"></path>
            <path d="M941.62 263.5 a3.88 3.88 0 1 0 7.76 0 a3.88 3.88 0 1 0 -7.76 0zM941.62 201.5 a3.88 3.88 0 1 0 7.76 0 a3.88 3.88 0 1 0 -7.76 0z" fill="black"></path>
            <path d="M600.62 356.5 a3.88 3.88 0 1 0 7.76 0 a3.88 3.88 0 1 0 -7.76 0zM693.62 325.5 a3.88 3.88 0 1 0 7.76 0 a3.88 3.88 0 1 0 -7.76 0z" fill="black"></path>
            <path d="M1406.62 15.5 a3.88 3.88 0 1 0 7.76 0 a3.88 3.88 0 1 0 -7.76 0zM1406.62 201.5 a3.88 3.88 0 1 0 7.76 0 a3.88 3.88 0 1 0 -7.76 0z" fill="black"></path>
            <path d="M290.62 294.5 a3.88 3.88 0 1 0 7.76 0 a3.88 3.88 0 1 0 -7.76 0zM135.62 387.5 a3.88 3.88 0 1 0 7.76 0 a3.88 3.88 0 1 0 -7.76 0z" fill="black"></path>
            <path d="M445.62 325.5 a3.88 3.88 0 1 0 7.76 0 a3.88 3.88 0 1 0 -7.76 0zM414.62 449.5 a3.88 3.88 0 1 0 7.76 0 a3.88 3.88 0 1 0 -7.76 0z" fill="black"></path>
            <path d="M135.62 170.5 a3.88 3.88 0 1 0 7.76 0 a3.88 3.88 0 1 0 -7.76 0zM290.62 77.5 a3.88 3.88 0 1 0 7.76 0 a3.88 3.88 0 1 0 -7.76 0z" fill="black"></path>
            <path d="M1282.62 511.5 a3.88 3.88 0 1 0 7.76 0 a3.88 3.88 0 1 0 -7.76 0zM1282.62 573.5 a3.88 3.88 0 1 0 7.76 0 a3.88 3.88 0 1 0 -7.76 0z" fill="black"></path>
            <path d="M817.62 201.5 a3.88 3.88 0 1 0 7.76 0 a3.88 3.88 0 1 0 -7.76 0zM817.62 139.5 a3.88 3.88 0 1 0 7.76 0 a3.88 3.88 0 1 0 -7.76 0z" fill="black"></path>
            <path d="M259.62 480.5 a3.88 3.88 0 1 0 7.76 0 a3.88 3.88 0 1 0 -7.76 0zM321.62 418.5 a3.88 3.88 0 1 0 7.76 0 a3.88 3.88 0 1 0 -7.76 0z" fill="black"></path>
            <path d="M538.62 170.5 a3.88 3.88 0 1 0 7.76 0 a3.88 3.88 0 1 0 -7.76 0zM569.62 108.5 a3.88 3.88 0 1 0 7.76 0 a3.88 3.88 0 1 0 -7.76 0z" fill="black"></path>
            <path d="M1127.62 356.5 a3.88 3.88 0 1 0 7.76 0 a3.88 3.88 0 1 0 -7.76 0zM1127.62 480.5 a3.88 3.88 0 1 0 7.76 0 a3.88 3.88 0 1 0 -7.76 0z" fill="black"></path>
            <path d="M11.62 542.5 a3.88 3.88 0 1 0 7.76 0 a3.88 3.88 0 1 0 -7.76 0zM11.62 449.5 a3.88 3.88 0 1 0 7.76 0 a3.88 3.88 0 1 0 -7.76 0z" fill="black"></path>
            <path d="M476.62 480.5 a3.88 3.88 0 1 0 7.76 0 a3.88 3.88 0 1 0 -7.76 0zM569.62 480.5 a3.88 3.88 0 1 0 7.76 0 a3.88 3.88 0 1 0 -7.76 0z" fill="black"></path>
            <path d="M662.62 263.5 a3.88 3.88 0 1 0 7.76 0 a3.88 3.88 0 1 0 -7.76 0zM507.62 263.5 a3.88 3.88 0 1 0 7.76 0 a3.88 3.88 0 1 0 -7.76 0z" fill="black"></path>
            <path d="M197.62 449.5 a3.88 3.88 0 1 0 7.76 0 a3.88 3.88 0 1 0 -7.76 0zM104.62 449.5 a3.88 3.88 0 1 0 7.76 0 a3.88 3.88 0 1 0 -7.76 0z" fill="black"></path>
            <path d="M941.62 139.5 a3.88 3.88 0 1 0 7.76 0 a3.88 3.88 0 1 0 -7.76 0zM910.62 77.5 a3.88 3.88 0 1 0 7.76 0 a3.88 3.88 0 1 0 -7.76 0z" fill="black"></path>
            <path d="M228.62 294.5 a3.88 3.88 0 1 0 7.76 0 a3.88 3.88 0 1 0 -7.76 0zM290.62 170.5 a3.88 3.88 0 1 0 7.76 0 a3.88 3.88 0 1 0 -7.76 0z" fill="black"></path>
            <path d="M1003.62 573.5 a3.88 3.88 0 1 0 7.76 0 a3.88 3.88 0 1 0 -7.76 0zM1065.62 418.5 a3.88 3.88 0 1 0 7.76 0 a3.88 3.88 0 1 0 -7.76 0z" fill="black"></path>
            <path d="M724.62 542.5 a3.88 3.88 0 1 0 7.76 0 a3.88 3.88 0 1 0 -7.76 0zM507.62 573.5 a3.88 3.88 0 1 0 7.76 0 a3.88 3.88 0 1 0 -7.76 0z" fill="black"></path>
            <path d="M1313.62 294.5 a3.88 3.88 0 1 0 7.76 0 a3.88 3.88 0 1 0 -7.76 0zM1375.62 294.5 a3.88 3.88 0 1 0 7.76 0 a3.88 3.88 0 1 0 -7.76 0z" fill="black"></path>
            <path d="M600.62 201.5 a3.88 3.88 0 1 0 7.76 0 a3.88 3.88 0 1 0 -7.76 0zM693.62 139.5 a3.88 3.88 0 1 0 7.76 0 a3.88 3.88 0 1 0 -7.76 0z" fill="black"></path>
            <path d="M569.62 201.5 a3.88 3.88 0 1 0 7.76 0 a3.88 3.88 0 1 0 -7.76 0zM662.62 170.5 a3.88 3.88 0 1 0 7.76 0 a3.88 3.88 0 1 0 -7.76 0z" fill="black"></path>
            <path d="M1189.62 263.5 a3.88 3.88 0 1 0 7.76 0 a3.88 3.88 0 1 0 -7.76 0zM1251.62 201.5 a3.88 3.88 0 1 0 7.76 0 a3.88 3.88 0 1 0 -7.76 0z" fill="black"></path>
            <path d="M1406.62 480.5 a3.88 3.88 0 1 0 7.76 0 a3.88 3.88 0 1 0 -7.76 0zM1313.62 480.5 a3.88 3.88 0 1 0 7.76 0 a3.88 3.88 0 1 0 -7.76 0z" fill="black"></path>
            <path d="M538.62 325.5 a3.88 3.88 0 1 0 7.76 0 a3.88 3.88 0 1 0 -7.76 0zM662.62 325.5 a3.88 3.88 0 1 0 7.76 0 a3.88 3.88 0 1 0 -7.76 0z" fill="black"></path>
            <path d="M321.62 325.5 a3.88 3.88 0 1 0 7.76 0 a3.88 3.88 0 1 0 -7.76 0zM321.62 263.5 a3.88 3.88 0 1 0 7.76 0 a3.88 3.88 0 1 0 -7.76 0z" fill="black"></path>
            <path d="M848.62 325.5 a3.88 3.88 0 1 0 7.76 0 a3.88 3.88 0 1 0 -7.76 0zM910.62 387.5 a3.88 3.88 0 1 0 7.76 0 a3.88 3.88 0 1 0 -7.76 0z" fill="black"></path>
            <path d="M1065.62 46.5 a3.88 3.88 0 1 0 7.76 0 a3.88 3.88 0 1 0 -7.76 0zM972.62 46.5 a3.88 3.88 0 1 0 7.76 0 a3.88 3.88 0 1 0 -7.76 0z" fill="black"></path>
            <path d="M817.62 325.5 a3.88 3.88 0 1 0 7.76 0 a3.88 3.88 0 1 0 -7.76 0zM755.62 356.5 a3.88 3.88 0 1 0 7.76 0 a3.88 3.88 0 1 0 -7.76 0z" fill="black"></path>
            <path d="M73.62 201.5 a3.88 3.88 0 1 0 7.76 0 a3.88 3.88 0 1 0 -7.76 0zM42.62 108.5 a3.88 3.88 0 1 0 7.76 0 a3.88 3.88 0 1 0 -7.76 0z" fill="black"></path>
            <path d="M259.62 449.5 a3.88 3.88 0 1 0 7.76 0 a3.88 3.88 0 1 0 -7.76 0zM135.62 480.5 a3.88 3.88 0 1 0 7.76 0 a3.88 3.88 0 1 0 -7.76 0z" fill="black"></path>
            <path d="M1158.62 15.5 a3.88 3.88 0 1 0 7.76 0 a3.88 3.88 0 1 0 -7.76 0zM1158.62 108.5 a3.88 3.88 0 1 0 7.76 0 a3.88 3.88 0 1 0 -7.76 0z" fill="black"></path>
            <path d="M1344.62 15.5 a3.88 3.88 0 1 0 7.76 0 a3.88 3.88 0 1 0 -7.76 0zM1251.62 15.5 a3.88 3.88 0 1 0 7.76 0 a3.88 3.88 0 1 0 -7.76 0z" fill="black"></path>
            <path d="M1189.62 387.5 a3.88 3.88 0 1 0 7.76 0 a3.88 3.88 0 1 0 -7.76 0zM1158.62 449.5 a3.88 3.88 0 1 0 7.76 0 a3.88 3.88 0 1 0 -7.76 0z" fill="black"></path>
            <path d="M848.62 418.5 a3.88 3.88 0 1 0 7.76 0 a3.88 3.88 0 1 0 -7.76 0zM848.62 356.5 a3.88 3.88 0 1 0 7.76 0 a3.88 3.88 0 1 0 -7.76 0z" fill="black"></path>
            <path d="M1096.62 170.5 a3.88 3.88 0 1 0 7.76 0 a3.88 3.88 0 1 0 -7.76 0zM1096.62 108.5 a3.88 3.88 0 1 0 7.76 0 a3.88 3.88 0 1 0 -7.76 0z" fill="black"></path>
            <path d="M166.62 201.5 a3.88 3.88 0 1 0 7.76 0 a3.88 3.88 0 1 0 -7.76 0zM197.62 325.5 a3.88 3.88 0 1 0 7.76 0 a3.88 3.88 0 1 0 -7.76 0z" fill="black"></path>
            <path d="M1313.62 46.5 a3.88 3.88 0 1 0 7.76 0 a3.88 3.88 0 1 0 -7.76 0zM1375.62 46.5 a3.88 3.88 0 1 0 7.76 0 a3.88 3.88 0 1 0 -7.76 0z" fill="black"></path>
            <path d="M383.62 170.5 a3.88 3.88 0 1 0 7.76 0 a3.88 3.88 0 1 0 -7.76 0zM445.62 170.5 a3.88 3.88 0 1 0 7.76 0 a3.88 3.88 0 1 0 -7.76 0z" fill="black"></path>
            <path d="M1189.62 542.5 a3.88 3.88 0 1 0 7.76 0 a3.88 3.88 0 1 0 -7.76 0zM1127.62 573.5 a3.88 3.88 0 1 0 7.76 0 a3.88 3.88 0 1 0 -7.76 0z" fill="black"></path>
            <path d="M42.62 542.5 a3.88 3.88 0 1 0 7.76 0 a3.88 3.88 0 1 0 -7.76 0zM42.62 480.5 a3.88 3.88 0 1 0 7.76 0 a3.88 3.88 0 1 0 -7.76 0z" fill="black"></path>
            <path d="M972.62 201.5 a3.88 3.88 0 1 0 7.76 0 a3.88 3.88 0 1 0 -7.76 0zM972.62 263.5 a3.88 3.88 0 1 0 7.76 0 a3.88 3.88 0 1 0 -7.76 0z" fill="black"></path>
            <path d="M73.62 294.5 a3.88 3.88 0 1 0 7.76 0 a3.88 3.88 0 1 0 -7.76 0zM73.62 387.5 a3.88 3.88 0 1 0 7.76 0 a3.88 3.88 0 1 0 -7.76 0z" fill="black"></path>
            <path d="M786.62 418.5 a3.88 3.88 0 1 0 7.76 0 a3.88 3.88 0 1 0 -7.76 0zM724.62 418.5 a3.88 3.88 0 1 0 7.76 0 a3.88 3.88 0 1 0 -7.76 0z" fill="black"></path>
            <path d="M1158.62 356.5 a3.88 3.88 0 1 0 7.76 0 a3.88 3.88 0 1 0 -7.76 0zM1220.62 356.5 a3.88 3.88 0 1 0 7.76 0 a3.88 3.88 0 1 0 -7.76 0z" fill="black"></path>
        </mask>
    </defs>
</svg>