<svg width="37" height="20" viewBox="0 0 37 20" fill="none" xmlns="http://www.w3.org/2000/svg">
<g clip-path="url(#clip0_29236_976)">
<path d="M3.33333 10H16.6667C16.8877 10 17.0996 10.0878 17.2559 10.2441C17.4122 10.4004 17.5 10.6123 17.5 10.8333V13.3333C17.5 14.2174 17.1488 15.0652 16.5237 15.6904C15.8986 16.3155 15.0507 16.6667 14.1667 16.6667H5.83333C4.94928 16.6667 4.10143 16.3155 3.47631 15.6904C2.85119 15.0652 2.5 14.2174 2.5 13.3333V10.8333C2.5 10.6123 2.5878 10.4004 2.74408 10.2441C2.90036 10.0878 3.11232 10 3.33333 10V10Z" stroke="url(#paint0_linear_29236_976)" stroke-width="2" stroke-linecap="round" stroke-linejoin="round"/>
<path d="M5 10V4.16667C5 3.72464 5.17559 3.30072 5.48816 2.98816C5.80072 2.67559 6.22464 2.5 6.66667 2.5H9.16667V4.375" stroke="url(#paint1_linear_29236_976)" stroke-width="2" stroke-linecap="round" stroke-linejoin="round"/>
<path d="M3.33398 17.5L4.16732 16.25" stroke="url(#paint2_linear_29236_976)" stroke-width="2" stroke-linecap="round" stroke-linejoin="round"/>
<path d="M16.6673 17.5L15.834 16.25" stroke="url(#paint3_linear_29236_976)" stroke-width="2" stroke-linecap="round" stroke-linejoin="round"/>
</g>
<path d="M28.756 16V15.048L31.64 11.926C32.2093 11.3193 32.662 10.82 32.998 10.428C33.3433 10.036 33.5953 9.686 33.754 9.378C33.9127 9.07 33.992 8.74333 33.992 8.398C33.992 7.82867 33.824 7.39 33.488 7.082C33.152 6.774 32.7087 6.62 32.158 6.62C31.598 6.62 31.122 6.78333 30.73 7.11C30.338 7.42733 30.0673 7.88 29.918 8.468L28.672 8.146C28.7933 7.586 29.0173 7.10067 29.344 6.69C29.6707 6.27933 30.0767 5.962 30.562 5.738C31.0473 5.514 31.5793 5.402 32.158 5.402C32.7927 5.402 33.348 5.528 33.824 5.78C34.3093 6.02267 34.6873 6.36333 34.958 6.802C35.238 7.24067 35.378 7.74933 35.378 8.328C35.378 8.71067 35.2987 9.084 35.14 9.448C34.9813 9.812 34.748 10.1993 34.44 10.61C34.132 11.0113 33.7307 11.478 33.236 12.01L30.66 14.81H35.602V16H28.756Z" fill="#6C727F"/>
<defs>
<linearGradient id="paint0_linear_29236_976" x1="10" y1="12.4351" x2="10" y2="16.6667" gradientUnits="userSpaceOnUse">
<stop stop-color="#514B96"/>
<stop offset="1" stop-color="#423E76"/>
</linearGradient>
<linearGradient id="paint1_linear_29236_976" x1="7.08333" y1="5.2395" x2="7.08333" y2="10" gradientUnits="userSpaceOnUse">
<stop stop-color="#514B96"/>
<stop offset="1" stop-color="#423E76"/>
</linearGradient>
<linearGradient id="paint2_linear_29236_976" x1="3.75065" y1="16.7066" x2="3.75065" y2="17.5" gradientUnits="userSpaceOnUse">
<stop stop-color="#514B96"/>
<stop offset="1" stop-color="#423E76"/>
</linearGradient>
<linearGradient id="paint3_linear_29236_976" x1="16.2507" y1="16.7066" x2="16.2507" y2="17.5" gradientUnits="userSpaceOnUse">
<stop stop-color="#514B96"/>
<stop offset="1" stop-color="#423E76"/>
</linearGradient>
<clipPath id="clip0_29236_976">
<rect width="20" height="20" fill="white"/>
</clipPath>
</defs>
</svg>
