<svg width="619" height="500" viewBox="0 0 619 500" fill="none" xmlns="http://www.w3.org/2000/svg">
<mask id="mask0_29240_5962" style="mask-type:alpha" maskUnits="userSpaceOnUse" x="0" y="0" width="619" height="500">
<rect x="0.75" y="0.75" width="617.5" height="498.5" rx="7.25" fill="#F7F7FD" stroke="#E0DEF7" stroke-width="1.5"/>
</mask>
<g mask="url(#mask0_29240_5962)">
<path d="M474.296 414.625H394.375L361.717 445.763L413.933 450.642L474.296 414.625Z" fill="url(#paint0_linear_29240_5962)"/>
<path d="M459.024 455.155H414.451L466.896 421.691L489.022 429.062V437.831H475.132L473.111 447.025H452.413L459.024 455.155Z" fill="url(#paint1_linear_29240_5962)"/>
<path d="M381.564 449.289H269.639L264.457 493.998H369.68L408.068 462.571L381.564 449.289Z" fill="url(#paint2_linear_29240_5962)"/>
<path d="M527.91 389.886H421.258V345.83H529.004L527.91 389.886Z" fill="url(#paint3_linear_29240_5962)"/>
<path d="M415.605 278.78L488.885 213.631L640.809 264.054L567.529 329.203L415.605 278.78Z" fill="#423E76"/>
<path d="M613.697 264.055C613.697 264.055 613.758 264.009 613.788 263.979L501.437 226.686C496.149 231.321 487.244 233.539 481.469 231.625C481.438 231.625 481.408 231.594 481.378 231.594L441.531 267.018C441.531 267.018 441.653 267.049 441.714 267.064C447.458 268.979 447.929 274.252 442.793 278.917L555.098 316.195C555.098 316.195 555.113 316.18 555.128 316.165C560.386 311.484 569.337 309.25 575.127 311.15L614.639 276.03C608.849 274.1 608.424 268.751 613.697 264.055Z" fill="url(#paint4_linear_29240_5962)"/>
<path d="M530.977 290.398C551.35 283.546 564.723 268.646 560.846 257.119C556.969 245.592 537.31 241.803 516.937 248.655C496.564 255.508 483.192 270.407 487.069 281.934C490.946 293.461 510.604 297.25 530.977 290.398Z" fill="url(#paint5_linear_29240_5962)"/>
<path d="M472.046 249.237C475.602 246.076 481.636 244.571 485.541 245.863C489.447 247.155 489.736 250.772 486.18 253.917C482.623 257.078 476.59 258.583 472.685 257.291C468.779 255.999 468.49 252.383 472.046 249.237Z" fill="url(#paint6_linear_29240_5962)"/>
<path d="M568.699 281.303C572.255 278.142 578.288 276.638 582.194 277.929C586.099 279.221 586.388 282.838 582.832 285.984C579.276 289.145 573.243 290.649 569.337 289.358C565.431 288.066 565.143 284.449 568.699 281.303Z" fill="url(#paint7_linear_29240_5962)"/>
<path d="M416.426 255.908L501.346 206.883L639.988 286.925L555.067 335.95L416.426 255.908Z" fill="#5245ED"/>
<path d="M613.423 281.454C613.423 281.454 613.484 281.424 613.514 281.409L510.996 222.217C504.887 225.697 495.708 226.062 490.45 223.022C490.419 223.007 490.404 222.992 490.374 222.977L444.205 249.632C444.205 249.632 444.312 249.693 444.372 249.723C449.615 252.747 449.008 258.021 443.035 261.546L545.508 320.708C545.508 320.708 545.523 320.708 545.538 320.693C551.632 317.167 560.842 316.787 566.145 319.811L611.934 293.384C606.645 290.329 607.314 284.995 613.423 281.47V281.454Z" fill="#E0DEF7"/>
<path d="M527.082 290.578C548.418 287.977 564.522 276.082 563.05 264.01C561.579 251.938 543.089 244.26 521.752 246.861C500.416 249.462 484.312 261.357 485.784 273.429C487.255 285.501 505.745 293.179 527.082 290.578Z" fill="#A8A2F6"/>
<path d="M477.684 238.37C481.802 235.999 488.018 235.741 491.589 237.793C495.145 239.844 494.705 243.446 490.586 245.817C486.468 248.187 480.252 248.446 476.681 246.394C473.125 244.342 473.566 240.741 477.684 238.37Z" fill="#A8A2F6"/>
<path d="M565.872 289.265C569.99 286.894 576.206 286.636 579.777 288.687C583.333 290.739 582.892 294.34 578.774 296.711C574.655 299.082 568.44 299.34 564.869 297.289C561.313 295.237 561.753 291.635 565.872 289.265Z" fill="#A8A2F6"/>
<path d="M69.7383 285.619V117.769L181.907 53V220.85L69.7383 285.619Z" fill="#E8E6F9"/>
<path d="M98.7804 126.143L154.462 94.0019C156.635 92.7557 157.957 90.4458 157.957 87.9383C157.957 85.3244 155.131 83.6832 152.866 84.9901L97.1847 117.132C95.0116 118.378 93.6895 120.688 93.6895 123.195C93.6895 125.809 96.5161 127.45 98.7804 126.143Z" fill="#5245ED"/>
<path d="M85.0109 224.846L140.692 192.705C142.866 191.459 144.188 189.149 144.188 186.641C144.188 184.028 141.361 182.386 139.097 183.693L83.4152 215.835C81.2421 217.081 79.9199 219.391 79.9199 221.898C79.9199 224.512 82.7465 226.153 85.0109 224.846Z" fill="#5245ED"/>
<path d="M79.9199 160.821C79.9199 158.314 81.2572 156.004 83.4152 154.758L166.634 106.705C168.898 105.398 171.724 107.039 171.724 109.653C171.724 112.161 170.387 114.471 168.229 115.717L85.0109 163.769C82.7465 165.076 79.9199 163.435 79.9199 160.821Z" fill="#5245ED"/>
<path d="M79.9199 181.186C79.9199 178.679 81.2572 176.369 83.4152 175.123L166.634 127.07C168.898 125.763 171.724 127.405 171.724 130.018C171.724 132.526 170.387 134.836 168.229 136.082L85.0109 184.135C82.7465 185.442 79.9199 183.8 79.9199 181.186Z" fill="#5245ED"/>
<path d="M79.9199 201.534C79.9199 199.027 81.2572 196.717 83.4152 195.47L166.634 147.418C168.898 146.111 171.724 147.752 171.724 150.366C171.724 152.874 170.387 155.183 168.229 156.43L85.0109 204.482C82.7465 205.789 79.9199 204.148 79.9199 201.534Z" fill="#5245ED"/>
<path d="M129.463 230.682C129.463 230.682 138.672 209.725 144.189 208.403C149.705 207.081 143.55 215.956 147.122 219.451C150.693 222.946 154.857 200.212 159.431 200.166C163.99 200.121 157.638 210.242 161.817 212.43C165.981 214.618 171.741 200.926 171.741 200.926" stroke="#5245ED" stroke-width="2.2" stroke-miterlimit="10" stroke-linecap="round"/>
<path d="M512.667 313.961L255.246 462.571L47.459 342.607L304.88 193.996L512.667 313.961Z" fill="#E8E6F9"/>
<path d="M438.492 338.398H331.84V294.357H439.586L438.492 338.398Z" fill="url(#paint8_linear_29240_5962)"/>
<path d="M212.727 85.9609L326.551 151.748V357.104L212.727 291.317V85.9609Z" fill="#D8D6F5"/>
<path d="M150.631 327.166V275.102L264.456 340.889V392.954L150.631 327.166Z" fill="#D8D6F5"/>
<path d="M249.837 366.01V327.03L233.91 317.836V356.816L249.837 366.01Z" fill="white"/>
<path d="M236.721 322.715L247.024 328.657V361.133L236.721 355.191V322.715Z" fill="url(#paint9_linear_29240_5962)"/>
<path d="M249.836 366.01L252.207 364.642V325.662L249.836 327.03V366.01Z" fill="#D8D6F5"/>
<path d="M236.721 355.191L239.091 353.823V324.083L236.721 322.715V355.191Z" fill="#D8D6F5"/>
<path d="M233.91 317.836L236.281 316.469L252.207 325.663L249.837 327.031L233.91 317.836Z" fill="#E8E6F9"/>
<path d="M236.721 355.19L239.091 353.822L247.024 358.397V361.132L236.721 355.19Z" fill="#E8E6F9"/>
<path d="M212.893 344.748V305.768L196.967 296.574V335.539L212.893 344.748Z" fill="white"/>
<path d="M199.777 301.438L210.081 307.379V339.855L199.777 333.913V301.438Z" fill="url(#paint10_linear_29240_5962)"/>
<path d="M212.893 344.748L215.263 343.38V304.4L212.893 305.768V344.748Z" fill="#D8D6F5"/>
<path d="M199.777 333.929L202.148 332.561V302.805L199.777 301.438V333.929Z" fill="#D8D6F5"/>
<path d="M196.967 296.575L199.338 295.207L215.264 304.401L212.893 305.769L196.967 296.575Z" fill="#E8E6F9"/>
<path d="M199.777 333.913L202.148 332.545L210.081 337.134V339.87L199.777 333.913Z" fill="#E8E6F9"/>
<path d="M175.903 323.473V284.493L159.977 275.299V314.279L175.903 323.473Z" fill="white"/>
<path d="M162.787 280.178L173.091 286.12V318.596L162.787 312.654V280.178Z" fill="url(#paint11_linear_29240_5962)"/>
<path d="M175.902 323.473L178.273 322.105V283.125L175.902 284.493V323.473Z" fill="#D8D6F5"/>
<path d="M162.787 312.654L165.158 311.286V281.545L162.787 280.178V312.654Z" fill="#D8D6F5"/>
<path d="M159.977 275.299L162.347 273.932L178.274 283.126L175.903 284.493L159.977 275.299Z" fill="#E8E6F9"/>
<path d="M162.787 312.653L165.158 311.285L173.091 315.859V318.595L162.787 312.653Z" fill="#E8E6F9"/>
<path d="M313.376 207.323V168.343L297.449 159.148V198.129L313.376 207.323Z" fill="white"/>
<path d="M300.26 164.027L310.563 169.969V202.445L300.26 196.503V164.027Z" fill="url(#paint12_linear_29240_5962)"/>
<path d="M313.375 207.322L315.746 205.955V166.975L313.375 168.342V207.322Z" fill="#D8D6F5"/>
<path d="M300.26 196.503L302.63 195.135V165.395L300.26 164.027V196.503Z" fill="#D8D6F5"/>
<path d="M297.449 159.149L299.82 157.781L315.746 166.975L313.376 168.343L297.449 159.149Z" fill="#E8E6F9"/>
<path d="M300.26 196.502L302.63 195.135L310.563 199.709V202.444L300.26 196.502Z" fill="#E8E6F9"/>
<path d="M276.43 186.063V147.083L260.504 137.889V176.869L276.43 186.063Z" fill="white"/>
<path d="M263.314 142.768L273.618 148.71V181.185L263.314 175.243V142.768Z" fill="url(#paint13_linear_29240_5962)"/>
<path d="M276.43 186.063L278.8 184.695V145.715L276.43 147.083V186.063Z" fill="#D8D6F5"/>
<path d="M263.314 175.243L265.685 173.876V144.135L263.314 142.768V175.243Z" fill="#D8D6F5"/>
<path d="M260.504 137.889L262.875 136.521L278.801 145.716L276.43 147.083L260.504 137.889Z" fill="#E8E6F9"/>
<path d="M263.314 175.243L265.685 173.875L273.618 178.449V181.185L263.314 175.243Z" fill="#E8E6F9"/>
<path d="M239.442 164.787V125.823L223.516 116.613V155.593L239.442 164.787Z" fill="white"/>
<path d="M226.326 121.492L236.63 127.434V159.91L226.326 153.968V121.492Z" fill="url(#paint14_linear_29240_5962)"/>
<path d="M239.441 164.788L241.812 163.42V124.455L239.441 125.823V164.788Z" fill="#D8D6F5"/>
<path d="M226.326 153.968L228.697 152.6V122.86L226.326 121.492V153.968Z" fill="#D8D6F5"/>
<path d="M223.516 116.614L225.886 115.246L241.813 124.455L239.442 125.823L223.516 116.614Z" fill="#E8E6F9"/>
<path d="M226.326 153.967L228.697 152.6L236.63 157.189V159.925L226.326 153.967Z" fill="#E8E6F9"/>
<path d="M326.55 357.105V238.234L264.455 340.89V392.954L326.55 357.105Z" fill="#E0DEF7"/>
<path d="M326.551 357.105V151.734L388.645 182.69V321.256L326.551 357.105Z" fill="#E0DEF7"/>
<path d="M334.104 212.612V173.632L350.03 164.438V203.418L334.104 212.612Z" fill="white"/>
<path d="M347.218 201.792L336.914 207.734V175.258L347.218 169.316V201.792Z" fill="url(#paint15_linear_29240_5962)"/>
<path d="M334.103 212.611L331.732 211.244V172.264L334.103 173.631V212.611Z" fill="#D8D6F5"/>
<path d="M347.218 201.792L344.848 200.424V170.669L347.218 169.301V201.792Z" fill="#D8D6F5"/>
<path d="M350.03 164.438L347.659 163.07L331.732 172.264L334.103 173.632L350.03 164.438Z" fill="#E8E6F9"/>
<path d="M347.218 201.792L344.847 200.424L336.914 204.998V207.734L347.218 201.792Z" fill="#E8E6F9"/>
<path d="M258.984 338.413V349.947L326.55 238.265V226.73L258.984 338.413Z" fill="#5245ED"/>
<path d="M394.101 173.936V185.471L326.551 151.794V140.26L394.101 173.936Z" fill="#5245ED"/>
<path d="M212.726 160.943L326.551 226.731L258.985 338.413L145.16 272.625L212.726 160.943Z" fill="#A8A2F6"/>
<path d="M145.16 284.159L258.985 349.947V338.412L145.16 272.625V284.159Z" fill="#5245ED"/>
<path d="M212.727 74.4727L326.551 140.26V151.795L212.727 86.0071V74.4727Z" fill="#5245ED"/>
<path d="M239.199 278.719L243.059 276.501L248.956 266.121L239.199 269.996V278.719Z" fill="url(#paint16_linear_29240_5962)"/>
<path d="M239.912 271.424L248.954 266.121L262.814 242.186L239.912 255.589V271.424Z" fill="#DFDCFA"/>
<path d="M218.622 220.637L198.061 238.326V254.967L239.199 278.719V262.079L218.622 220.637Z" fill="url(#paint17_linear_29240_5962)"/>
<path d="M225.112 266.805V246.745L209.186 237.551V257.611L225.112 266.805Z" fill="#A8A2F6"/>
<path d="M211.996 242.43L222.3 248.372V261.943L211.996 256.001V242.43Z" fill="url(#paint18_linear_29240_5962)"/>
<path d="M225.111 266.805L227.482 265.437V245.377L225.111 246.745V266.805Z" fill="#A8A2F6"/>
<path d="M211.996 255.985L214.367 254.618V243.797L211.996 242.43V255.985Z" fill="#2516DF"/>
<path d="M209.186 237.551L211.556 236.184L227.483 245.378L225.112 246.745L209.186 237.551Z" fill="#A8A2F6"/>
<path d="M211.996 255.985L214.367 254.617L222.3 259.207V261.942L211.996 255.985Z" fill="#CBC7FA"/>
<path d="M219.762 215.014L196.77 234.8L196.785 244.07L217.498 226.259L239.914 271.425V255.589L219.762 215.014Z" fill="#5245ED"/>
<path d="M262.815 189.893L219.762 215.013L239.913 255.589L262.815 242.185V189.893Z" fill="#CBC7FA"/>
<path d="M342.371 340.557V301.577L358.297 292.383V331.348L342.371 340.557Z" fill="white"/>
<path d="M355.485 329.738L345.182 335.68V303.204L355.485 297.262V329.738Z" fill="#423E76"/>
<path d="M342.371 340.557L340 339.189V300.209L342.371 301.577V340.557Z" fill="#D8D6F5"/>
<path d="M355.486 329.737L353.115 328.369V298.614L355.486 297.246V329.737Z" fill="#D8D6F5"/>
<path d="M358.297 292.383L355.926 291L340 300.209L342.371 301.577L358.297 292.383Z" fill="#E8E6F9"/>
<path d="M355.485 329.721L353.114 328.354L345.182 332.943V335.678L355.485 329.721Z" fill="#E8E6F9"/>
<path d="M334.104 278.08V239.1L384.375 209.725V248.705L334.104 278.08Z" fill="white"/>
<path d="M381.563 247.079L336.914 273.203V240.727L381.563 214.604V247.079Z" fill="url(#paint19_linear_29240_5962)"/>
<path d="M334.103 278.082L331.732 276.714V237.734L334.103 239.102V278.082Z" fill="#D8D6F5"/>
<path d="M381.562 247.079L379.191 245.712V215.971L381.562 214.604V247.079Z" fill="#D8D6F5"/>
<path d="M384.375 209.725L382.019 208.357L331.732 237.733L334.103 239.101L384.375 209.725Z" fill="#E8E6F9"/>
<path d="M381.563 247.079L379.192 245.711L336.914 270.467V273.202L381.563 247.079Z" fill="#E8E6F9"/>
<path d="M280.277 108.149L394.102 173.936L326.551 140.26L212.727 74.4727L280.277 108.149Z" fill="#A8A2F6"/>
<path d="M367.754 295.145V334.125L370.581 332.499V296.771L380.869 290.814V326.542L383.68 324.916V285.951L367.754 295.145Z" fill="white"/>
<path d="M380.868 326.542L370.564 332.484V296.756L380.868 290.814V326.542Z" fill="#D8D6F5"/>
<path d="M380.351 310.297C380.351 309.249 379.713 308.762 378.923 309.218C378.132 309.674 377.494 310.89 377.494 311.954C377.494 313.017 378.132 313.488 378.923 313.033C379.713 312.577 380.351 311.361 380.351 310.297Z" fill="white"/>
<path d="M367.754 334.125L365.383 332.757V293.777L367.754 295.145V334.125Z" fill="#D8D6F5"/>
<path d="M383.68 285.952L381.324 284.584L365.383 293.778L367.754 295.146L383.68 285.952Z" fill="#E8E6F9"/>
<path d="M281.248 346.923V385.903L284.059 384.277V348.549L317.158 329.371V365.099L319.97 363.473V324.508L281.248 346.923Z" fill="white"/>
<path d="M317.157 365.115L284.059 384.293V348.565L317.157 329.387V365.115Z" fill="url(#paint20_linear_29240_5962)"/>
<path d="M281.248 385.904L278.877 384.537V345.557L281.248 346.924V385.904Z" fill="#D8D6F5"/>
<path d="M319.969 324.508L317.599 323.141L278.877 345.556L281.248 346.924L319.969 324.508Z" fill="#E8E6F9"/>
<path d="M284.061 351.329L317.159 332.227V333.214L284.061 352.332V351.329Z" fill="#D8D6F5"/>
<path d="M284.061 354.977L317.159 335.859V336.862L284.061 355.965V354.977Z" fill="#D8D6F5"/>
<path d="M284.061 358.608L317.159 339.506V340.494L284.061 359.611V358.608Z" fill="#D8D6F5"/>
<path d="M284.061 362.241L317.159 343.139V344.142L284.061 363.244V362.241Z" fill="#D8D6F5"/>
<path d="M284.061 365.887L317.159 346.77V347.773L284.061 366.875V365.887Z" fill="#D8D6F5"/>
<path d="M284.061 369.52L317.159 350.418V351.406L284.061 370.523V369.52Z" fill="#D8D6F5"/>
<path d="M284.061 373.167L317.159 354.049V355.052L284.061 374.154V373.167Z" fill="#D8D6F5"/>
<path d="M284.061 376.798L317.159 357.695V358.683L284.061 377.786V376.798Z" fill="#D8D6F5"/>
<path d="M284.061 380.431L317.159 361.328V362.316L284.061 381.434V380.431Z" fill="#D8D6F5"/>
<path d="M47.459 342.607V359.613L255.246 479.577V462.572L47.459 342.607Z" fill="#5245ED"/>
<path d="M255.246 462.572L512.667 313.961V330.951L255.246 479.577V462.572Z" fill="url(#paint21_linear_29240_5962)"/>
<path d="M572.315 363.793V349.432L562.24 350.298C548.152 342.578 524.172 343.688 508.23 352.882C506.893 353.657 505.677 354.447 504.537 355.283L494.887 356.119V369.796C494.492 375.267 497.577 380.54 504.294 384.431C518.29 392.515 542.757 391.497 558.927 382.166C568.03 376.908 572.559 370.146 572.285 363.793H572.315Z" fill="url(#paint22_linear_29240_5962)"/>
<path d="M536.255 374.488C557.592 371.887 573.696 359.992 572.224 347.92C570.753 335.848 552.263 328.17 530.926 330.771C509.59 333.372 493.486 345.267 494.957 357.339C496.429 369.411 514.919 377.089 536.255 374.488Z" fill="url(#paint23_linear_29240_5962)"/>
<path d="M508.246 338.004C492.076 347.335 490.313 361.468 504.325 369.553C506.665 370.906 509.325 371.985 512.151 372.821L553.046 331.926C539.141 328.446 521.087 330.603 508.246 338.004Z" fill="url(#paint24_linear_29240_5962)"/>
<path d="M515.798 342.366C527.15 335.816 544.322 335.102 554.14 340.77C563.972 346.439 562.741 356.362 551.389 362.912C540.037 369.462 522.864 370.176 513.047 364.508C503.215 358.839 504.446 348.916 515.798 342.366Z" fill="#100A55"/>
<path d="M554.14 347.973C544.307 342.304 527.135 343.003 515.798 349.568C511.315 352.152 508.427 355.267 507.166 358.443C508.139 360.708 510.084 362.805 513.047 364.522C522.88 370.191 540.052 369.491 551.389 362.926C555.872 360.343 558.76 357.228 560.021 354.051C559.048 351.787 557.103 349.69 554.14 347.973Z" fill="url(#paint25_linear_29240_5962)"/>
<path d="M551.724 357.956V351.528L547.286 351.862C540.706 348.063 529.217 348.549 521.634 352.926C521.072 353.245 520.555 353.595 520.069 353.944L515.297 354.309V361.558H515.358C515.434 363.442 516.421 365.251 518.336 366.755C527.348 369.521 539.369 368.64 548.639 364.354C550.782 362.348 551.845 360.114 551.724 357.972H551.739L551.724 357.956Z" fill="url(#paint26_linear_29240_5962)"/>
<path d="M547.27 344.75C540.69 340.951 529.186 341.422 521.573 345.814C513.974 350.206 513.138 356.847 519.734 360.646C526.314 364.446 537.818 363.974 545.432 359.583C553.045 355.191 553.866 348.55 547.27 344.75Z" fill="url(#paint27_linear_29240_5962)"/>
<path d="M521.573 345.814C513.974 350.206 513.138 356.847 519.734 360.646C520.706 361.209 521.785 361.665 522.925 362.029L542.134 342.82C535.66 341.362 527.454 342.41 521.573 345.799V345.814Z" fill="url(#paint28_linear_29240_5962)"/>
<path d="M578.136 342.729V328.368L568.06 329.234C553.973 321.514 529.992 322.623 514.05 331.817C512.728 332.592 511.497 333.383 510.357 334.219L500.707 335.054V348.732C500.312 354.202 503.397 359.476 510.114 363.366C524.111 371.451 548.578 370.433 564.747 361.102C573.85 355.844 578.379 349.081 578.105 342.729H578.136Z" fill="url(#paint29_linear_29240_5962)"/>
<path d="M542.085 353.437C563.422 350.836 579.526 338.942 578.054 326.87C576.583 314.797 558.093 307.119 536.756 309.72C515.42 312.321 499.316 324.216 500.788 336.288C502.259 348.36 520.749 356.038 542.085 353.437Z" fill="url(#paint30_linear_29240_5962)"/>
<path d="M541.291 346.922C556.271 345.096 567.577 336.747 566.544 328.274C565.512 319.801 552.531 314.413 537.551 316.239C522.571 318.065 511.265 326.414 512.298 334.887C513.331 343.36 526.312 348.748 541.291 346.922Z" fill="url(#paint31_linear_29240_5962)"/>
<path d="M559.962 326.91C550.13 321.242 532.957 321.941 521.62 328.506C517.137 331.089 514.25 334.205 512.988 337.381C513.961 339.645 515.906 341.742 518.869 343.46C528.702 349.128 545.874 348.429 557.211 341.864C561.694 339.28 564.582 336.165 565.843 332.989C564.871 330.725 562.925 328.627 559.962 326.91Z" fill="#D8D6F5"/>
<path d="M557.544 336.893V330.45L553.107 330.784C546.526 326.985 535.038 327.471 527.454 331.848C526.892 332.167 526.375 332.517 525.889 332.866L521.117 333.231V340.48H521.178C521.254 342.364 522.242 344.173 524.157 345.677C533.168 348.443 545.189 347.562 554.459 343.276C556.602 341.27 557.666 339.036 557.544 336.893Z" fill="#100A55"/>
<path d="M553.092 323.688C546.512 319.889 535.008 320.36 527.394 324.752C519.78 329.144 518.96 335.785 525.555 339.584C532.135 343.383 543.64 342.912 551.253 338.52C558.852 334.128 559.688 327.487 553.092 323.688Z" fill="#E0DEF7"/>
<path d="M88.9931 465.111H0V421.055H90.0873L88.9931 465.111Z" fill="url(#paint32_linear_29240_5962)"/>
<path d="M133.397 439.016V424.655L123.322 425.521C109.234 417.801 85.2536 418.91 69.3121 428.105C67.9747 428.88 66.759 429.67 65.6192 430.506L55.9692 431.341V445.019C55.574 450.49 58.659 455.763 65.3761 459.653C79.3724 467.738 103.839 466.72 120.009 457.389C129.112 452.131 133.641 445.368 133.367 439.016H133.397Z" fill="url(#paint33_linear_29240_5962)"/>
<path d="M97.3413 449.719C118.678 447.118 134.782 435.223 133.31 423.151C131.839 411.079 113.349 403.401 92.0122 406.002C70.6756 408.602 54.5719 420.497 56.0434 432.569C57.515 444.642 76.0047 452.32 97.3413 449.719Z" fill="url(#paint34_linear_29240_5962)"/>
<path d="M69.3121 413.227C53.1426 422.558 51.3797 436.691 65.3913 444.776C67.7316 446.128 70.3911 447.207 73.2177 448.043L114.113 407.148C100.207 403.668 82.1535 405.826 69.3121 413.227Z" fill="url(#paint35_linear_29240_5962)"/>
<path d="M76.8818 417.589C88.2339 411.039 105.406 410.324 115.224 415.993C125.056 421.661 123.825 431.585 112.473 438.135C101.121 444.685 83.9483 445.399 74.1311 439.73C64.2987 434.062 65.5297 424.138 76.8818 417.589Z" fill="#100A55"/>
<path d="M115.224 423.197C105.391 417.529 88.2187 418.228 76.8818 424.793C72.3988 427.376 69.5113 430.492 68.25 433.668C69.2226 435.932 71.1678 438.029 74.1312 439.747C83.9636 445.415 101.136 444.716 112.473 438.151C116.956 435.568 119.844 432.452 121.105 429.276C120.132 427.012 118.187 424.914 115.224 423.197Z" fill="#D8D6F5"/>
<path d="M112.806 433.181V426.737L108.368 427.071C101.788 423.272 90.2993 423.758 82.716 428.135C82.1537 428.454 81.637 428.804 81.1507 429.153L76.3789 429.518V436.767H76.4397C76.5157 438.651 77.5035 440.46 79.4183 441.964C88.4301 444.73 100.451 443.849 109.721 439.563C111.864 437.557 112.927 435.323 112.806 433.181Z" fill="#100A55"/>
<path d="M108.354 419.959C101.774 416.16 90.2702 416.631 82.6565 421.023C75.058 425.415 74.2222 432.056 80.8177 435.855C87.3979 439.654 98.902 439.183 106.516 434.791C114.114 430.4 114.95 423.759 108.354 419.959Z" fill="url(#paint36_linear_29240_5962)"/>
<path d="M82.6565 421.039C75.058 425.431 74.2222 432.072 80.8177 435.871C81.7903 436.433 82.8693 436.889 84.009 437.254L103.218 418.045C96.744 416.586 88.5377 417.635 82.6565 421.024V421.039Z" fill="url(#paint37_linear_29240_5962)"/>
<path d="M139.22 417.953V403.592L129.144 404.459C115.057 396.739 91.0759 397.848 75.1343 407.042C73.797 407.817 72.5812 408.607 71.4415 409.443L61.7914 410.279V423.956C61.3963 429.427 64.4813 434.7 71.1983 438.591C85.1947 446.676 109.662 445.657 125.831 436.326C134.934 431.068 139.463 424.306 139.189 417.953H139.22Z" fill="url(#paint38_linear_29240_5962)"/>
<path d="M103.171 428.668C124.508 426.067 140.612 414.172 139.14 402.1C137.669 390.028 119.179 382.35 97.8423 384.951C76.5057 387.552 60.4019 399.447 61.8735 411.519C63.3451 423.591 81.8348 431.269 103.171 428.668Z" fill="url(#paint39_linear_29240_5962)"/>
<path d="M102.377 422.153C117.357 420.326 128.663 411.978 127.63 403.505C126.598 395.032 113.617 389.643 98.6369 391.469C83.6572 393.295 72.351 401.644 73.3838 410.117C74.4167 418.59 87.3974 423.979 102.377 422.153Z" fill="url(#paint40_linear_29240_5962)"/>
<path d="M121.044 402.133C111.212 396.464 94.0391 397.163 82.7022 403.728C78.2191 406.312 75.3317 409.427 74.0703 412.603C75.0429 414.868 76.9881 416.965 79.9515 418.682C89.7839 424.351 106.956 423.652 118.293 417.087C122.776 414.503 125.664 411.388 126.925 408.212C125.953 405.947 124.007 403.85 121.044 402.133Z" fill="#D8D6F5"/>
<path d="M118.628 412.118V405.675L114.191 406.009C107.61 402.21 96.1215 402.696 88.5383 407.073C87.976 407.392 87.4593 407.741 86.973 408.091L82.2012 408.456V415.704H82.262C82.3379 417.589 83.3257 419.397 85.2406 420.902C94.2523 423.668 106.273 422.786 115.543 418.501C117.686 416.495 118.75 414.261 118.628 412.118Z" fill="#100A55"/>
<path d="M114.175 398.912C107.595 395.113 96.0905 395.584 88.4768 399.976C80.8784 404.368 80.0425 411.009 86.638 414.808C93.2182 418.608 104.722 418.137 112.336 413.745C119.934 409.353 120.77 402.712 114.175 398.912Z" fill="#E0DEF7"/>
<path d="M481.757 312.379V298.018L471.681 298.884C457.594 291.164 433.613 292.274 417.671 301.468C416.334 302.243 415.118 303.033 413.979 303.869L404.329 304.705V318.382C403.933 323.853 407.018 329.126 413.735 333.017C427.732 341.101 452.199 340.083 468.368 330.752C477.471 325.494 482 318.732 481.726 312.379H481.757Z" fill="url(#paint41_linear_29240_5962)"/>
<path d="M417.687 286.606C433.856 277.275 458.308 276.257 472.32 284.341C486.316 292.426 484.568 306.544 468.399 315.89C452.229 325.236 427.778 326.239 413.766 318.155C399.77 310.07 401.517 295.952 417.687 286.606Z" fill="url(#paint42_linear_29240_5962)"/>
<path d="M444.926 316.57C459.906 314.744 471.212 306.395 470.179 297.922C469.146 289.45 456.166 284.061 441.186 285.887C426.206 287.713 414.9 296.062 415.933 304.535C416.965 313.008 429.946 318.396 444.926 316.57Z" fill="url(#paint43_linear_29240_5962)"/>
<path d="M463.597 296.56C453.764 290.892 436.592 291.591 425.255 298.156C420.772 300.74 417.884 303.855 416.623 307.031C417.596 309.296 419.541 311.393 422.504 313.11C432.337 318.778 449.509 318.079 460.846 311.514C465.329 308.931 468.217 305.815 469.478 302.639C468.505 300.375 466.56 298.278 463.597 296.56Z" fill="url(#paint44_linear_29240_5962)"/>
<path d="M461.181 306.544V300.1L456.743 300.435C450.163 296.635 438.674 297.122 431.091 301.498C430.529 301.818 430.012 302.167 429.526 302.517L424.754 302.881V310.13H424.815C424.891 312.015 425.878 313.823 427.793 315.328C436.805 318.093 448.826 317.212 458.096 312.926C460.239 310.92 461.302 308.687 461.181 306.544Z" fill="#100A55"/>
<path d="M456.728 293.338C450.147 289.539 438.643 290.01 431.03 294.402C423.431 298.794 422.595 305.435 429.191 309.234C435.771 313.033 447.275 312.562 454.889 308.17C462.487 303.778 463.323 297.137 456.728 293.338Z" fill="#E0DEF7"/>
<path d="M459.736 437.71L481.878 424.93V433.714L459.736 446.494V437.71Z" fill="url(#paint45_linear_29240_5962)"/>
<path d="M479.598 417.696C479.598 413.273 476.908 408.137 473.595 406.222C471.817 405.189 470.222 405.31 469.128 406.313L401.41 445.4L410.042 461.478L477.364 422.604C477.364 422.604 477.471 422.544 477.531 422.513C478.793 421.769 479.598 420.082 479.598 417.681V417.696Z" fill="url(#paint46_linear_29240_5962)"/>
<path d="M411.836 456.844C411.836 452.422 409.146 447.285 405.833 445.37C402.52 443.456 399.83 445.492 399.83 449.914C399.83 454.337 402.52 459.473 405.833 461.388C409.146 463.303 411.836 461.266 411.836 456.844Z" fill="url(#paint47_linear_29240_5962)"/>
<path d="M409.754 458.104C408.477 456.904 406.957 455.764 405.164 454.746C391.168 446.661 366.701 447.679 350.531 457.01C346.793 459.168 343.845 461.584 341.656 464.107L337.188 464.502V473.955C337.143 474.547 337.143 475.14 337.188 475.733C337.523 480.535 340.623 485.094 346.595 488.544C360.592 496.628 385.059 495.61 401.228 486.279C409.83 481.31 414.343 475.003 414.586 468.955V457.679L409.739 458.104H409.754ZM399.724 464.031C398.25 466.219 395.94 468.301 392.794 470.125C382.019 476.356 365.713 477.024 356.367 471.629C354.498 470.55 353.084 469.32 352.051 467.982C353.54 465.794 355.835 463.712 358.981 461.888C369.755 455.658 386.062 454.989 395.408 460.384C397.277 461.463 398.69 462.694 399.724 464.031C399.937 463.712 400.134 463.393 400.316 463.058C400.134 463.378 399.937 463.712 399.724 464.031Z" fill="url(#paint48_linear_29240_5962)"/>
<path d="M405.164 443.455C391.167 435.37 366.7 436.388 350.531 445.719C334.361 455.05 332.598 469.183 346.61 477.268C360.606 485.353 385.073 484.334 401.243 475.003C417.412 465.673 419.175 451.539 405.164 443.455ZM399.723 464.031C398.249 466.22 395.939 468.302 392.793 470.125C382.019 476.356 365.713 477.025 356.366 471.63C354.497 470.551 353.084 469.32 352.051 467.983C353.54 465.794 355.835 463.712 358.98 461.889C369.755 455.658 386.061 454.989 395.407 460.384C397.277 461.463 398.69 462.694 399.723 464.031C399.936 463.712 400.134 463.393 400.316 463.059C400.134 463.378 399.936 463.712 399.723 464.031Z" fill="url(#paint49_linear_29240_5962)"/>
<path d="M447.639 429.443V438.227L453.9 441.844L454.812 433.577L447.639 429.443Z" fill="url(#paint50_linear_29240_5962)"/>
<path d="M447.639 429.444L469.477 416.83L476.65 420.964L454.812 433.577L447.639 429.444Z" fill="url(#paint51_linear_29240_5962)"/>
<path d="M445.785 438.744V447.528L459.022 455.157V446.388L445.785 438.744Z" fill="url(#paint52_linear_29240_5962)"/>
<path d="M465.967 434.123V442.907L473.109 447.025V438.241L465.967 434.123Z" fill="url(#paint53_linear_29240_5962)"/>
<path d="M481.877 424.93V433.714L489.02 437.832V429.048L481.877 424.93Z" fill="url(#paint54_linear_29240_5962)"/>
<path d="M459.021 455.156L466.894 450.612V441.828L459.021 446.387V455.156Z" fill="url(#paint55_linear_29240_5962)"/>
<path d="M482.835 432.635V441.403L473.109 447.026V438.242L482.835 432.635Z" fill="url(#paint56_linear_29240_5962)"/>
<path d="M496.071 424.99V433.759L489.02 437.832V429.048L496.071 424.99Z" fill="url(#paint57_linear_29240_5962)"/>
<path d="M459.736 437.71L465.951 434.124L473.094 438.257L482.835 432.634H482.805L475.662 428.516L481.863 424.929L489.02 429.063L496.072 424.99L482.835 417.361L445.785 438.743L459.022 446.387L466.894 441.828L459.736 437.71Z" fill="url(#paint58_linear_29240_5962)"/>
<path d="M358.98 461.889C369.755 455.658 386.061 454.99 395.407 460.385C397.276 461.464 398.69 462.695 399.723 464.032C403.325 458.743 402.018 452.908 395.407 449.093C386.076 443.699 369.77 444.382 358.98 450.598C350.348 455.582 347.902 462.603 352.05 467.968C353.54 465.78 355.834 463.698 358.98 461.874V461.889Z" fill="#100A55"/>
</g>
<defs>
<linearGradient id="paint0_linear_29240_5962" x1="531.238" y1="432.633" x2="418.675" y2="432.633" gradientUnits="userSpaceOnUse">
<stop stop-color="#7662BD"/>
<stop offset="0.05" stop-color="#7662BD" stop-opacity="0.93"/>
<stop offset="0.29" stop-color="#7662BD" stop-opacity="0.6"/>
<stop offset="0.51" stop-color="#7662BD" stop-opacity="0.34"/>
<stop offset="0.7" stop-color="#7662BD" stop-opacity="0.16"/>
<stop offset="0.86" stop-color="#7662BD" stop-opacity="0.04"/>
<stop offset="0.96" stop-color="#7662BD" stop-opacity="0"/>
</linearGradient>
<linearGradient id="paint1_linear_29240_5962" x1="502.274" y1="438.423" x2="427.703" y2="438.423" gradientUnits="userSpaceOnUse">
<stop stop-color="#7662BD"/>
<stop offset="0.05" stop-color="#7662BD" stop-opacity="0.93"/>
<stop offset="0.28" stop-color="#7662BD" stop-opacity="0.6"/>
<stop offset="0.49" stop-color="#7662BD" stop-opacity="0.34"/>
<stop offset="0.67" stop-color="#7662BD" stop-opacity="0.16"/>
<stop offset="0.82" stop-color="#7662BD" stop-opacity="0.04"/>
<stop offset="0.92" stop-color="#7662BD" stop-opacity="0"/>
</linearGradient>
<linearGradient id="paint2_linear_29240_5962" x1="421.32" y1="471.644" x2="273.666" y2="471.644" gradientUnits="userSpaceOnUse">
<stop stop-color="#7662BD"/>
<stop offset="0.08" stop-color="#7662BD" stop-opacity="0.85"/>
<stop offset="0.23" stop-color="#7662BD" stop-opacity="0.59"/>
<stop offset="0.38" stop-color="#7662BD" stop-opacity="0.38"/>
<stop offset="0.53" stop-color="#7662BD" stop-opacity="0.21"/>
<stop offset="0.67" stop-color="#7662BD" stop-opacity="0.1"/>
<stop offset="0.8" stop-color="#7662BD" stop-opacity="0.02"/>
<stop offset="0.92" stop-color="#7662BD" stop-opacity="0"/>
</linearGradient>
<linearGradient id="paint3_linear_29240_5962" x1="543.958" y1="367.866" x2="451.348" y2="367.866" gradientUnits="userSpaceOnUse">
<stop stop-color="#7662BD"/>
<stop offset="0.05" stop-color="#7662BD" stop-opacity="0.93"/>
<stop offset="0.3" stop-color="#7662BD" stop-opacity="0.6"/>
<stop offset="0.53" stop-color="#7662BD" stop-opacity="0.34"/>
<stop offset="0.73" stop-color="#7662BD" stop-opacity="0.16"/>
<stop offset="0.89" stop-color="#7662BD" stop-opacity="0.04"/>
<stop offset="1" stop-color="#7662BD" stop-opacity="0"/>
</linearGradient>
<linearGradient id="paint4_linear_29240_5962" x1="448.858" y1="245.046" x2="607.493" y2="297.69" gradientUnits="userSpaceOnUse">
<stop stop-color="#A996EB"/>
<stop offset="0.94" stop-color="#C5BAEB"/>
</linearGradient>
<linearGradient id="paint5_linear_29240_5962" x1="477.278" y1="252.868" x2="577.313" y2="288.584" gradientUnits="userSpaceOnUse">
<stop stop-color="#D7D1EB"/>
<stop offset="1" stop-color="#F2EFFA"/>
</linearGradient>
<linearGradient id="paint6_linear_29240_5962" x1="463.22" y1="244.491" x2="530.275" y2="274.216" gradientUnits="userSpaceOnUse">
<stop stop-color="#D7D1EB"/>
<stop offset="1" stop-color="#F2EFFA"/>
</linearGradient>
<linearGradient id="paint7_linear_29240_5962" x1="533.518" y1="266.986" x2="597.608" y2="292.185" gradientUnits="userSpaceOnUse">
<stop stop-color="#D7D1EB"/>
<stop offset="1" stop-color="#F2EFFA"/>
</linearGradient>
<linearGradient id="paint8_linear_29240_5962" x1="454.54" y1="316.378" x2="361.93" y2="316.378" gradientUnits="userSpaceOnUse">
<stop stop-color="#7662BD"/>
<stop offset="0.05" stop-color="#7662BD" stop-opacity="0.93"/>
<stop offset="0.3" stop-color="#7662BD" stop-opacity="0.6"/>
<stop offset="0.53" stop-color="#7662BD" stop-opacity="0.34"/>
<stop offset="0.73" stop-color="#7662BD" stop-opacity="0.16"/>
<stop offset="0.89" stop-color="#7662BD" stop-opacity="0.04"/>
<stop offset="1" stop-color="#7662BD" stop-opacity="0"/>
</linearGradient>
<linearGradient id="paint9_linear_29240_5962" x1="241.872" y1="336.748" x2="241.872" y2="361.133" gradientUnits="userSpaceOnUse">
<stop stop-color="#514B96"/>
<stop offset="1" stop-color="#423E76"/>
</linearGradient>
<linearGradient id="paint10_linear_29240_5962" x1="204.929" y1="315.47" x2="204.929" y2="339.855" gradientUnits="userSpaceOnUse">
<stop stop-color="#514B96"/>
<stop offset="1" stop-color="#423E76"/>
</linearGradient>
<linearGradient id="paint11_linear_29240_5962" x1="167.939" y1="294.21" x2="167.939" y2="318.596" gradientUnits="userSpaceOnUse">
<stop stop-color="#514B96"/>
<stop offset="1" stop-color="#423E76"/>
</linearGradient>
<linearGradient id="paint12_linear_29240_5962" x1="305.412" y1="178.06" x2="305.412" y2="202.445" gradientUnits="userSpaceOnUse">
<stop stop-color="#514B96"/>
<stop offset="1" stop-color="#423E76"/>
</linearGradient>
<linearGradient id="paint13_linear_29240_5962" x1="268.466" y1="156.8" x2="268.466" y2="181.185" gradientUnits="userSpaceOnUse">
<stop stop-color="#514B96"/>
<stop offset="1" stop-color="#423E76"/>
</linearGradient>
<linearGradient id="paint14_linear_29240_5962" x1="231.478" y1="135.525" x2="231.478" y2="159.91" gradientUnits="userSpaceOnUse">
<stop stop-color="#514B96"/>
<stop offset="1" stop-color="#423E76"/>
</linearGradient>
<linearGradient id="paint15_linear_29240_5962" x1="342.066" y1="183.349" x2="342.066" y2="207.734" gradientUnits="userSpaceOnUse">
<stop stop-color="#514B96"/>
<stop offset="1" stop-color="#423E76"/>
</linearGradient>
<linearGradient id="paint16_linear_29240_5962" x1="244.077" y1="282.914" x2="244.077" y2="268.948" gradientUnits="userSpaceOnUse">
<stop stop-color="#D7D1EB"/>
<stop offset="1" stop-color="#F2EFFA"/>
</linearGradient>
<linearGradient id="paint17_linear_29240_5962" x1="23.6217" y1="148.728" x2="48.1116" y2="106.31" gradientUnits="userSpaceOnUse">
<stop stop-color="#D7D1EB"/>
<stop offset="1" stop-color="#F2EFFA"/>
</linearGradient>
<linearGradient id="paint18_linear_29240_5962" x1="217.148" y1="249.557" x2="217.148" y2="261.943" gradientUnits="userSpaceOnUse">
<stop stop-color="#514B96"/>
<stop offset="1" stop-color="#423E76"/>
</linearGradient>
<linearGradient id="paint19_linear_29240_5962" x1="359.238" y1="236.008" x2="359.238" y2="273.203" gradientUnits="userSpaceOnUse">
<stop stop-color="#514B96"/>
<stop offset="1" stop-color="#423E76"/>
</linearGradient>
<linearGradient id="paint20_linear_29240_5962" x1="300.608" y1="376.087" x2="300.608" y2="319.828" gradientUnits="userSpaceOnUse">
<stop stop-color="#D7D1EB"/>
<stop offset="1" stop-color="#F2EFFA"/>
</linearGradient>
<linearGradient id="paint21_linear_29240_5962" x1="383.956" y1="374.455" x2="383.956" y2="479.577" gradientUnits="userSpaceOnUse">
<stop stop-color="#514B96"/>
<stop offset="1" stop-color="#423E76"/>
</linearGradient>
<linearGradient id="paint22_linear_29240_5962" x1="525.646" y1="367.532" x2="560.553" y2="367.532" gradientUnits="userSpaceOnUse">
<stop stop-color="#A996EB"/>
<stop offset="0.94" stop-color="#C5BAEB"/>
</linearGradient>
<linearGradient id="paint23_linear_29240_5962" x1="533.58" y1="398.249" x2="533.58" y2="331.534" gradientUnits="userSpaceOnUse">
<stop stop-color="#D7D1EB"/>
<stop offset="1" stop-color="#F2EFFA"/>
</linearGradient>
<linearGradient id="paint24_linear_29240_5962" x1="547.271" y1="360.709" x2="513.808" y2="342.776" gradientUnits="userSpaceOnUse">
<stop stop-color="white"/>
<stop offset="0.86" stop-color="white" stop-opacity="0"/>
</linearGradient>
<linearGradient id="paint25_linear_29240_5962" x1="510.768" y1="369.415" x2="569.185" y2="335.694" gradientUnits="userSpaceOnUse">
<stop stop-color="#A996EB"/>
<stop offset="0.94" stop-color="#C5BAEB"/>
</linearGradient>
<linearGradient id="paint26_linear_29240_5962" x1="536.36" y1="358.807" x2="526.831" y2="358.807" gradientUnits="userSpaceOnUse">
<stop stop-color="#A996EB"/>
<stop offset="0.94" stop-color="#C5BAEB"/>
</linearGradient>
<linearGradient id="paint27_linear_29240_5962" x1="533.502" y1="385.205" x2="533.502" y2="333.55" gradientUnits="userSpaceOnUse">
<stop stop-color="#D7D1EB"/>
<stop offset="1" stop-color="#F2EFFA"/>
</linearGradient>
<linearGradient id="paint28_linear_29240_5962" x1="547.62" y1="361.224" x2="521.74" y2="346.513" gradientUnits="userSpaceOnUse">
<stop stop-color="white"/>
<stop offset="0.86" stop-color="white" stop-opacity="0"/>
</linearGradient>
<linearGradient id="paint29_linear_29240_5962" x1="531.466" y1="346.467" x2="566.373" y2="346.467" gradientUnits="userSpaceOnUse">
<stop stop-color="#A996EB"/>
<stop offset="0.94" stop-color="#C5BAEB"/>
</linearGradient>
<linearGradient id="paint30_linear_29240_5962" x1="539.421" y1="377.174" x2="539.421" y2="310.475" gradientUnits="userSpaceOnUse">
<stop stop-color="#D7D1EB"/>
<stop offset="1" stop-color="#F2EFFA"/>
</linearGradient>
<linearGradient id="paint31_linear_29240_5962" x1="543.676" y1="331.585" x2="529.452" y2="331.585" gradientUnits="userSpaceOnUse">
<stop stop-color="#A996EB"/>
<stop offset="0.94" stop-color="#C5BAEB"/>
</linearGradient>
<linearGradient id="paint32_linear_29240_5962" x1="102.594" y1="443.09" x2="10.8658" y2="443.09" gradientUnits="userSpaceOnUse">
<stop stop-color="#7662BD"/>
<stop offset="0.05" stop-color="#7662BD" stop-opacity="0.93"/>
<stop offset="0.3" stop-color="#7662BD" stop-opacity="0.6"/>
<stop offset="0.53" stop-color="#7662BD" stop-opacity="0.34"/>
<stop offset="0.73" stop-color="#7662BD" stop-opacity="0.16"/>
<stop offset="0.89" stop-color="#7662BD" stop-opacity="0.04"/>
<stop offset="1" stop-color="#7662BD" stop-opacity="0"/>
</linearGradient>
<linearGradient id="paint33_linear_29240_5962" x1="86.7277" y1="442.754" x2="121.635" y2="442.754" gradientUnits="userSpaceOnUse">
<stop stop-color="#A996EB"/>
<stop offset="0.94" stop-color="#C5BAEB"/>
</linearGradient>
<linearGradient id="paint34_linear_29240_5962" x1="94.6676" y1="473.461" x2="94.6676" y2="406.747" gradientUnits="userSpaceOnUse">
<stop stop-color="#D7D1EB"/>
<stop offset="1" stop-color="#F2EFFA"/>
</linearGradient>
<linearGradient id="paint35_linear_29240_5962" x1="108.353" y1="435.931" x2="74.8894" y2="417.984" gradientUnits="userSpaceOnUse">
<stop stop-color="white"/>
<stop offset="0.86" stop-color="white" stop-opacity="0"/>
</linearGradient>
<linearGradient id="paint36_linear_29240_5962" x1="94.5861" y1="460.429" x2="94.5861" y2="408.774" gradientUnits="userSpaceOnUse">
<stop stop-color="#D7D1EB"/>
<stop offset="1" stop-color="#F2EFFA"/>
</linearGradient>
<linearGradient id="paint37_linear_29240_5962" x1="108.704" y1="436.449" x2="82.8237" y2="421.738" gradientUnits="userSpaceOnUse">
<stop stop-color="white"/>
<stop offset="0.86" stop-color="white" stop-opacity="0"/>
</linearGradient>
<linearGradient id="paint38_linear_29240_5962" x1="92.55" y1="421.692" x2="127.442" y2="421.692" gradientUnits="userSpaceOnUse">
<stop stop-color="#A996EB"/>
<stop offset="0.94" stop-color="#C5BAEB"/>
</linearGradient>
<linearGradient id="paint39_linear_29240_5962" x1="100.495" y1="452.403" x2="100.495" y2="385.704" gradientUnits="userSpaceOnUse">
<stop stop-color="#D7D1EB"/>
<stop offset="1" stop-color="#F2EFFA"/>
</linearGradient>
<linearGradient id="paint40_linear_29240_5962" x1="104.751" y1="406.814" x2="90.5263" y2="406.814" gradientUnits="userSpaceOnUse">
<stop stop-color="#A996EB"/>
<stop offset="0.94" stop-color="#C5BAEB"/>
</linearGradient>
<linearGradient id="paint41_linear_29240_5962" x1="435.102" y1="316.118" x2="469.994" y2="316.118" gradientUnits="userSpaceOnUse">
<stop stop-color="#A996EB"/>
<stop offset="0.94" stop-color="#D7D1EB"/>
</linearGradient>
<linearGradient id="paint42_linear_29240_5962" x1="443.05" y1="346.831" x2="443.05" y2="280.132" gradientUnits="userSpaceOnUse">
<stop stop-color="#D7D1EB"/>
<stop offset="1" stop-color="#F2EFFA"/>
</linearGradient>
<linearGradient id="paint43_linear_29240_5962" x1="447.3" y1="301.241" x2="433.061" y2="301.241" gradientUnits="userSpaceOnUse">
<stop stop-color="#A996EB"/>
<stop offset="0.94" stop-color="#C5BAEB"/>
</linearGradient>
<linearGradient id="paint44_linear_29240_5962" x1="420.225" y1="318.003" x2="478.626" y2="284.297" gradientUnits="userSpaceOnUse">
<stop stop-color="#A996EB"/>
<stop offset="0.94" stop-color="#C5BAEB"/>
</linearGradient>
<linearGradient id="paint45_linear_29240_5962" x1="470.815" y1="457.694" x2="470.815" y2="425.538" gradientUnits="userSpaceOnUse">
<stop stop-color="#A996EB"/>
<stop offset="0.94" stop-color="#C5BAEB"/>
</linearGradient>
<linearGradient id="paint46_linear_29240_5962" x1="445.116" y1="438.272" x2="439.539" y2="428.607" gradientUnits="userSpaceOnUse">
<stop offset="0.06" stop-color="#BCABF6"/>
<stop offset="1" stop-color="#CABAFF"/>
</linearGradient>
<linearGradient id="paint47_linear_29240_5962" x1="178.633" y1="338.525" x2="188.975" y2="320.613" gradientUnits="userSpaceOnUse">
<stop stop-color="#A996EB"/>
<stop offset="0.94" stop-color="#C5BAEB"/>
</linearGradient>
<linearGradient id="paint48_linear_29240_5962" x1="375.895" y1="517.235" x2="375.895" y2="450.536" gradientUnits="userSpaceOnUse">
<stop stop-color="#A996EB"/>
<stop offset="0.94" stop-color="#C5BAEB"/>
</linearGradient>
<linearGradient id="paint49_linear_29240_5962" x1="375.894" y1="505.96" x2="375.894" y2="439.26" gradientUnits="userSpaceOnUse">
<stop stop-color="#D7D1EB"/>
<stop offset="1" stop-color="#F2EFFA"/>
</linearGradient>
<linearGradient id="paint50_linear_29240_5962" x1="451.225" y1="448.288" x2="451.225" y2="429.793" gradientUnits="userSpaceOnUse">
<stop stop-color="#A996EB"/>
<stop offset="0.94" stop-color="#C5BAEB"/>
</linearGradient>
<linearGradient id="paint51_linear_29240_5962" x1="462.152" y1="442.285" x2="462.152" y2="417.301" gradientUnits="userSpaceOnUse">
<stop stop-color="#D7D1EB"/>
<stop offset="1" stop-color="#F2EFFA"/>
</linearGradient>
<linearGradient id="paint52_linear_29240_5962" x1="452.411" y1="463.682" x2="452.411" y2="439.2" gradientUnits="userSpaceOnUse">
<stop stop-color="#A996EB"/>
<stop offset="0.94" stop-color="#C5BAEB"/>
</linearGradient>
<linearGradient id="paint53_linear_29240_5962" x1="469.538" y1="453.727" x2="469.538" y2="434.488" gradientUnits="userSpaceOnUse">
<stop stop-color="#A996EB"/>
<stop offset="0.94" stop-color="#C5BAEB"/>
</linearGradient>
<linearGradient id="paint54_linear_29240_5962" x1="485.448" y1="444.518" x2="485.448" y2="425.294" gradientUnits="userSpaceOnUse">
<stop stop-color="#A996EB"/>
<stop offset="0.94" stop-color="#C5BAEB"/>
</linearGradient>
<linearGradient id="paint55_linear_29240_5962" x1="462.958" y1="462.07" x2="462.958" y2="442.208" gradientUnits="userSpaceOnUse">
<stop stop-color="#A996EB"/>
<stop offset="0.94" stop-color="#C5BAEB"/>
</linearGradient>
<linearGradient id="paint56_linear_29240_5962" x1="477.972" y1="454.503" x2="477.972" y2="433.03" gradientUnits="userSpaceOnUse">
<stop stop-color="#A996EB"/>
<stop offset="0.94" stop-color="#C5BAEB"/>
</linearGradient>
<linearGradient id="paint57_linear_29240_5962" x1="492.545" y1="444.503" x2="492.545" y2="425.355" gradientUnits="userSpaceOnUse">
<stop stop-color="#A996EB"/>
<stop offset="0.94" stop-color="#C5BAEB"/>
</linearGradient>
<linearGradient id="paint58_linear_29240_5962" x1="470.936" y1="461.463" x2="470.936" y2="418.167" gradientUnits="userSpaceOnUse">
<stop stop-color="#D7D1EB"/>
<stop offset="1" stop-color="#F2EFFA"/>
</linearGradient>
</defs>
</svg>
