<svg width="466" height="406" viewBox="0 0 466 406" fill="none" xmlns="http://www.w3.org/2000/svg">
<path d="M465.667 239.961L208.246 388.571L0.458984 268.607L257.88 119.996L465.667 239.961Z" fill="#E8E6F9"/>
<path d="M391.492 264.398H284.84V220.357H392.586L391.492 264.398Z" fill="url(#paint0_linear_29240_5710)"/>
<path d="M165.727 11.9609L279.551 77.7484V283.104L165.727 217.317V11.9609Z" fill="#D8D6F5"/>
<path d="M103.631 253.166V201.102L217.456 266.889V318.954L103.631 253.166Z" fill="#D8D6F5"/>
<path d="M202.837 292.01V253.03L186.91 243.836V282.816L202.837 292.01Z" fill="white"/>
<path d="M189.721 248.715L200.024 254.657V287.133L189.721 281.191V248.715Z" fill="url(#paint1_linear_29240_5710)"/>
<path d="M202.836 292.01L205.207 290.642V251.662L202.836 253.03V292.01Z" fill="#D8D6F5"/>
<path d="M189.721 281.191L192.091 279.823V250.083L189.721 248.715V281.191Z" fill="#D8D6F5"/>
<path d="M186.91 243.836L189.281 242.469L205.207 251.663L202.837 253.031L186.91 243.836Z" fill="#E8E6F9"/>
<path d="M189.721 281.19L192.091 279.822L200.024 284.397V287.132L189.721 281.19Z" fill="#E8E6F9"/>
<path d="M165.893 270.748V231.768L149.967 222.574V261.539L165.893 270.748Z" fill="white"/>
<path d="M152.777 227.438L163.081 233.379V265.855L152.777 259.913V227.438Z" fill="url(#paint2_linear_29240_5710)"/>
<path d="M165.893 270.748L168.263 269.38V230.4L165.893 231.768V270.748Z" fill="#D8D6F5"/>
<path d="M152.777 259.929L155.148 258.561V228.805L152.777 227.438V259.929Z" fill="#D8D6F5"/>
<path d="M149.967 222.575L152.338 221.207L168.264 230.401L165.893 231.769L149.967 222.575Z" fill="#E8E6F9"/>
<path d="M152.777 259.913L155.148 258.545L163.081 263.134V265.87L152.777 259.913Z" fill="#E8E6F9"/>
<path d="M128.903 249.473V210.493L112.977 201.299V240.279L128.903 249.473Z" fill="white"/>
<path d="M115.787 206.178L126.091 212.12V244.596L115.787 238.654V206.178Z" fill="url(#paint3_linear_29240_5710)"/>
<path d="M128.902 249.473L131.273 248.105V209.125L128.902 210.493V249.473Z" fill="#D8D6F5"/>
<path d="M115.787 238.654L118.158 237.286V207.545L115.787 206.178V238.654Z" fill="#D8D6F5"/>
<path d="M112.977 201.299L115.347 199.932L131.274 209.126L128.903 210.493L112.977 201.299Z" fill="#E8E6F9"/>
<path d="M115.787 238.653L118.158 237.285L126.091 241.859V244.595L115.787 238.653Z" fill="#E8E6F9"/>
<path d="M266.376 133.323V94.3426L250.449 85.1484V124.129L266.376 133.323Z" fill="white"/>
<path d="M253.26 90.0273L263.563 95.9693V128.445L253.26 122.503V90.0273Z" fill="url(#paint4_linear_29240_5710)"/>
<path d="M266.375 133.322L268.746 131.955V92.9746L266.375 94.3423V133.322Z" fill="#D8D6F5"/>
<path d="M253.26 122.503L255.63 121.135V91.3951L253.26 90.0273V122.503Z" fill="#D8D6F5"/>
<path d="M250.449 85.149L252.82 83.7812L268.746 92.9754L266.376 94.3431L250.449 85.149Z" fill="#E8E6F9"/>
<path d="M253.26 122.502L255.63 121.135L263.563 125.709V128.444L253.26 122.502Z" fill="#E8E6F9"/>
<path d="M229.43 112.063V73.0828L213.504 63.8887V102.869L229.43 112.063Z" fill="white"/>
<path d="M216.314 68.7676L226.618 74.7096V107.185L216.314 101.243V68.7676Z" fill="url(#paint5_linear_29240_5710)"/>
<path d="M229.43 112.063L231.8 110.695V71.7148L229.43 73.0826V112.063Z" fill="#D8D6F5"/>
<path d="M216.314 101.243L218.685 99.8757V70.1353L216.314 68.7676V101.243Z" fill="#D8D6F5"/>
<path d="M213.504 63.8892L215.875 62.5215L231.801 71.7156L229.43 73.0833L213.504 63.8892Z" fill="#E8E6F9"/>
<path d="M216.314 101.243L218.685 99.875L226.618 104.449V107.185L216.314 101.243Z" fill="#E8E6F9"/>
<path d="M192.442 90.7875V51.8226L176.516 42.6133V81.5934L192.442 90.7875Z" fill="white"/>
<path d="M179.326 47.4922L189.63 53.4342V85.91L179.326 79.968V47.4922Z" fill="url(#paint6_linear_29240_5710)"/>
<path d="M192.441 90.7877L194.812 89.42V50.4551L192.441 51.8228V90.7877Z" fill="#D8D6F5"/>
<path d="M179.326 79.968L181.697 78.6003V48.8599L179.326 47.4922V79.968Z" fill="#D8D6F5"/>
<path d="M176.516 42.6138L178.886 41.2461L194.813 50.4554L192.442 51.8231L176.516 42.6138Z" fill="#E8E6F9"/>
<path d="M179.326 79.9673L181.697 78.5996L189.63 83.1891V85.9245L179.326 79.9673Z" fill="#E8E6F9"/>
<path d="M279.55 283.105V164.234L217.455 266.89V318.954L279.55 283.105Z" fill="#E0DEF7"/>
<path d="M279.551 283.105V77.7344L341.645 108.69V247.256L279.551 283.105Z" fill="#E0DEF7"/>
<path d="M287.104 138.612V99.6316L303.03 90.4375V129.418L287.104 138.612Z" fill="white"/>
<path d="M300.218 127.792L289.914 133.734V101.258L300.218 95.3164V127.792Z" fill="url(#paint7_linear_29240_5710)"/>
<path d="M287.103 138.611L284.732 137.244V98.2637L287.103 99.6314V138.611Z" fill="#D8D6F5"/>
<path d="M300.218 127.792L297.848 126.424V96.6685L300.218 95.3008V127.792Z" fill="#D8D6F5"/>
<path d="M303.03 90.438L300.659 89.0703L284.732 98.2645L287.103 99.6322L303.03 90.438Z" fill="#E8E6F9"/>
<path d="M300.218 127.792L297.847 126.424L289.914 130.998V133.734L300.218 127.792Z" fill="#E8E6F9"/>
<path d="M211.984 264.413V275.947L279.55 164.265V152.73L211.984 264.413Z" fill="#5245ED"/>
<path d="M347.101 99.9361V111.471L279.551 77.7942V66.2598L347.101 99.9361Z" fill="#5245ED"/>
<path d="M165.726 86.9434L279.551 152.731L211.985 264.413L98.1602 198.625L165.726 86.9434Z" fill="#A8A2F6"/>
<path d="M98.1602 210.159L211.985 275.947V264.412L98.1602 198.625V210.159Z" fill="#5245ED"/>
<path d="M165.727 0.472656L279.551 66.2601V77.7946L165.727 12.0071V0.472656Z" fill="#5245ED"/>
<path d="M192.199 204.719L196.059 202.501L201.956 192.121L192.199 195.996V204.719Z" fill="url(#paint8_linear_29240_5710)"/>
<path d="M192.912 197.424L201.954 192.121L215.814 168.186L192.912 181.589V197.424Z" fill="#DFDCFA"/>
<path d="M171.622 146.637L151.061 164.326V180.967L192.199 204.719V188.079L171.622 146.637Z" fill="url(#paint9_linear_29240_5710)"/>
<path d="M178.112 192.805V172.745L162.186 163.551V183.611L178.112 192.805Z" fill="#A8A2F6"/>
<path d="M164.996 168.43L175.3 174.372V187.943L164.996 182.001V168.43Z" fill="url(#paint10_linear_29240_5710)"/>
<path d="M178.111 192.805L180.482 191.437V171.377L178.111 172.745V192.805Z" fill="#A8A2F6"/>
<path d="M164.996 181.985L167.367 180.618V169.797L164.996 168.43V181.985Z" fill="#2516DF"/>
<path d="M162.186 163.551L164.556 162.184L180.483 171.378L178.112 172.745L162.186 163.551Z" fill="#A8A2F6"/>
<path d="M164.996 181.985L167.367 180.617L175.3 185.207V187.942L164.996 181.985Z" fill="#CBC7FA"/>
<path d="M172.762 141.014L149.77 160.8L149.785 170.07L170.498 152.259L192.914 197.425V181.589L172.762 141.014Z" fill="#5245ED"/>
<path d="M215.815 115.893L172.762 141.013L192.913 181.589L215.815 168.185V115.893Z" fill="#CBC7FA"/>
<path d="M295.371 266.557V227.577L311.297 218.383V257.348L295.371 266.557Z" fill="white"/>
<path d="M308.485 255.738L298.182 261.68V229.204L308.485 223.262V255.738Z" fill="#423E76"/>
<path d="M295.371 266.557L293 265.189V226.209L295.371 227.577V266.557Z" fill="#D8D6F5"/>
<path d="M308.486 255.737L306.115 254.369V224.614L308.486 223.246V255.737Z" fill="#D8D6F5"/>
<path d="M311.297 218.383L308.926 217L293 226.209L295.371 227.577L311.297 218.383Z" fill="#E8E6F9"/>
<path d="M308.485 255.721L306.114 254.354L298.182 258.943V261.678L308.485 255.721Z" fill="#E8E6F9"/>
<path d="M287.104 204.08V165.1L337.375 135.725V174.705L287.104 204.08Z" fill="white"/>
<path d="M334.563 173.079L289.914 199.203V166.727L334.563 140.604V173.079Z" fill="url(#paint11_linear_29240_5710)"/>
<path d="M287.103 204.082L284.732 202.714V163.734L287.103 165.102V204.082Z" fill="#D8D6F5"/>
<path d="M334.562 173.079L332.191 171.712V141.971L334.562 140.604V173.079Z" fill="#D8D6F5"/>
<path d="M337.375 135.725L335.019 134.357L284.732 163.733L287.103 165.101L337.375 135.725Z" fill="#E8E6F9"/>
<path d="M334.563 173.079L332.192 171.711L289.914 196.467V199.202L334.563 173.079Z" fill="#E8E6F9"/>
<path d="M233.277 34.149L347.102 99.9365L279.551 66.2601L165.727 0.472656L233.277 34.149Z" fill="#A8A2F6"/>
<path d="M320.754 221.145V260.125L323.581 258.499V222.771L333.869 216.814V252.542L336.68 250.916V211.951L320.754 221.145Z" fill="white"/>
<path d="M333.868 252.542L323.564 258.484V222.756L333.868 216.814V252.542Z" fill="#D8D6F5"/>
<path d="M333.351 236.297C333.351 235.249 332.713 234.762 331.923 235.218C331.132 235.674 330.494 236.89 330.494 237.954C330.494 239.017 331.132 239.488 331.923 239.033C332.713 238.577 333.351 237.361 333.351 236.297Z" fill="white"/>
<path d="M320.754 260.125L318.383 258.757V219.777L320.754 221.145V260.125Z" fill="#D8D6F5"/>
<path d="M336.68 211.952L334.324 210.584L318.383 219.778L320.754 221.146L336.68 211.952Z" fill="#E8E6F9"/>
<path d="M234.248 272.923V311.903L237.059 310.277V274.549L270.158 255.371V291.099L272.97 289.473V250.508L234.248 272.923Z" fill="white"/>
<path d="M270.157 291.115L237.059 310.293V274.565L270.157 255.387V291.115Z" fill="url(#paint12_linear_29240_5710)"/>
<path d="M234.248 311.904L231.877 310.537V271.557L234.248 272.924V311.904Z" fill="#D8D6F5"/>
<path d="M272.969 250.508L270.599 249.141L231.877 271.556L234.248 272.924L272.969 250.508Z" fill="#E8E6F9"/>
<path d="M237.061 277.329L270.159 258.227V259.214L237.061 278.332V277.329Z" fill="#D8D6F5"/>
<path d="M237.061 280.977L270.159 261.859V262.862L237.061 281.965V280.977Z" fill="#D8D6F5"/>
<path d="M237.061 284.608L270.159 265.506V266.494L237.061 285.611V284.608Z" fill="#D8D6F5"/>
<path d="M237.061 288.241L270.159 269.139V270.142L237.061 289.244V288.241Z" fill="#D8D6F5"/>
<path d="M237.061 291.887L270.159 272.77V273.773L237.061 292.875V291.887Z" fill="#D8D6F5"/>
<path d="M237.061 295.52L270.159 276.418V277.406L237.061 296.523V295.52Z" fill="#D8D6F5"/>
<path d="M237.061 299.167L270.159 280.049V281.052L237.061 300.154V299.167Z" fill="#D8D6F5"/>
<path d="M237.061 302.798L270.159 283.695V284.683L237.061 303.786V302.798Z" fill="#D8D6F5"/>
<path d="M237.061 306.431L270.159 287.328V288.316L237.061 307.434V306.431Z" fill="#D8D6F5"/>
<path d="M0.458984 268.607V285.613L208.246 405.577V388.572L0.458984 268.607Z" fill="#5245ED"/>
<path d="M208.246 388.572L465.667 239.961V256.951L208.246 405.577V388.572Z" fill="url(#paint13_linear_29240_5710)"/>
<defs>
<linearGradient id="paint0_linear_29240_5710" x1="407.54" y1="242.378" x2="314.93" y2="242.378" gradientUnits="userSpaceOnUse">
<stop stop-color="#7662BD"/>
<stop offset="0.05" stop-color="#7662BD" stop-opacity="0.93"/>
<stop offset="0.3" stop-color="#7662BD" stop-opacity="0.6"/>
<stop offset="0.53" stop-color="#7662BD" stop-opacity="0.34"/>
<stop offset="0.73" stop-color="#7662BD" stop-opacity="0.16"/>
<stop offset="0.89" stop-color="#7662BD" stop-opacity="0.04"/>
<stop offset="1" stop-color="#7662BD" stop-opacity="0"/>
</linearGradient>
<linearGradient id="paint1_linear_29240_5710" x1="194.872" y1="262.748" x2="194.872" y2="287.133" gradientUnits="userSpaceOnUse">
<stop stop-color="#514B96"/>
<stop offset="1" stop-color="#423E76"/>
</linearGradient>
<linearGradient id="paint2_linear_29240_5710" x1="157.929" y1="241.47" x2="157.929" y2="265.855" gradientUnits="userSpaceOnUse">
<stop stop-color="#514B96"/>
<stop offset="1" stop-color="#423E76"/>
</linearGradient>
<linearGradient id="paint3_linear_29240_5710" x1="120.939" y1="220.21" x2="120.939" y2="244.596" gradientUnits="userSpaceOnUse">
<stop stop-color="#514B96"/>
<stop offset="1" stop-color="#423E76"/>
</linearGradient>
<linearGradient id="paint4_linear_29240_5710" x1="258.412" y1="104.06" x2="258.412" y2="128.445" gradientUnits="userSpaceOnUse">
<stop stop-color="#514B96"/>
<stop offset="1" stop-color="#423E76"/>
</linearGradient>
<linearGradient id="paint5_linear_29240_5710" x1="221.466" y1="82.8003" x2="221.466" y2="107.185" gradientUnits="userSpaceOnUse">
<stop stop-color="#514B96"/>
<stop offset="1" stop-color="#423E76"/>
</linearGradient>
<linearGradient id="paint6_linear_29240_5710" x1="184.478" y1="61.5249" x2="184.478" y2="85.91" gradientUnits="userSpaceOnUse">
<stop stop-color="#514B96"/>
<stop offset="1" stop-color="#423E76"/>
</linearGradient>
<linearGradient id="paint7_linear_29240_5710" x1="295.066" y1="109.349" x2="295.066" y2="133.734" gradientUnits="userSpaceOnUse">
<stop stop-color="#514B96"/>
<stop offset="1" stop-color="#423E76"/>
</linearGradient>
<linearGradient id="paint8_linear_29240_5710" x1="197.077" y1="208.914" x2="197.077" y2="194.948" gradientUnits="userSpaceOnUse">
<stop stop-color="#D7D1EB"/>
<stop offset="1" stop-color="#F2EFFA"/>
</linearGradient>
<linearGradient id="paint9_linear_29240_5710" x1="-23.3783" y1="74.7276" x2="1.11157" y2="32.31" gradientUnits="userSpaceOnUse">
<stop stop-color="#D7D1EB"/>
<stop offset="1" stop-color="#F2EFFA"/>
</linearGradient>
<linearGradient id="paint10_linear_29240_5710" x1="170.148" y1="175.557" x2="170.148" y2="187.943" gradientUnits="userSpaceOnUse">
<stop stop-color="#514B96"/>
<stop offset="1" stop-color="#423E76"/>
</linearGradient>
<linearGradient id="paint11_linear_29240_5710" x1="312.238" y1="162.008" x2="312.238" y2="199.203" gradientUnits="userSpaceOnUse">
<stop stop-color="#514B96"/>
<stop offset="1" stop-color="#423E76"/>
</linearGradient>
<linearGradient id="paint12_linear_29240_5710" x1="253.608" y1="302.087" x2="253.608" y2="245.828" gradientUnits="userSpaceOnUse">
<stop stop-color="#D7D1EB"/>
<stop offset="1" stop-color="#F2EFFA"/>
</linearGradient>
<linearGradient id="paint13_linear_29240_5710" x1="336.956" y1="300.455" x2="336.956" y2="405.577" gradientUnits="userSpaceOnUse">
<stop stop-color="#514B96"/>
<stop offset="1" stop-color="#423E76"/>
</linearGradient>
</defs>
</svg>
