<svg width="64" height="64" viewBox="0 0 64 64" fill="none" xmlns="http://www.w3.org/2000/svg">
<circle cx="32" cy="32" r="31.5" fill="white" stroke="#E0DEF7"/>
<circle cx="32" cy="32" r="28" fill="#E0DEF7"/>
<path fill-rule="evenodd" clip-rule="evenodd" d="M28.146 20.6107C26.7912 20.6107 25.693 21.7089 25.693 23.0637C25.693 24.4184 26.7912 25.5167 28.146 25.5167C28.533 25.5167 28.8468 25.8304 28.8468 26.2175C28.8468 26.6046 28.533 26.9184 28.146 26.9184C26.3839 26.9184 24.898 25.7361 24.4383 24.1216C23.3729 24.0533 22.4047 24.7971 22.2171 25.8729C22.0429 26.8711 22.5982 27.8291 23.499 28.1981C24.9829 28.7344 26.0434 30.1555 26.0434 31.8244C26.0434 32.2115 25.7296 32.5252 25.3425 32.5252C24.9554 32.5252 24.6417 32.2115 24.6417 31.8244C24.6417 30.7922 24.0042 29.9089 23.1014 29.5468C23.0711 29.5358 23.0409 29.5244 23.011 29.5126C22.754 29.4212 22.4771 29.3714 22.1887 29.3714C20.8339 29.3714 19.7357 30.4696 19.7357 31.8244C19.7357 33.1791 20.8339 34.2774 22.1887 34.2774C22.377 34.2774 22.5596 34.2563 22.7344 34.2166C23.1119 34.1309 23.4874 34.3675 23.573 34.745C23.6458 35.0657 23.486 35.3849 23.2048 35.5262C23.1864 35.5376 23.1672 35.5482 23.1474 35.558C22.7222 35.7684 22.3609 36.1139 22.1335 36.5725C21.5826 37.6838 22.0368 39.0313 23.1482 39.5823C24.2595 40.1332 25.6071 39.679 26.158 38.5676C26.3623 38.1555 26.4282 37.713 26.3745 37.2899C26.3258 36.9059 26.5976 36.5551 26.9816 36.5064C27.3655 36.4577 27.7163 36.7294 27.7651 37.1134C27.8524 37.8018 27.7445 38.5232 27.4139 39.1902C27.0318 39.961 26.4137 40.5371 25.6904 40.8747C25.6921 40.8947 25.693 40.915 25.693 40.9355C25.693 42.2902 26.7912 43.3885 28.146 43.3885C29.5007 43.3885 30.5989 42.2902 30.5989 40.9355V23.0637C30.5989 21.7089 29.5007 20.6107 28.146 20.6107ZM24.3012 41.2151C24.4445 43.2134 26.1111 44.7902 28.146 44.7902C30.2748 44.7902 32.0007 43.0644 32.0007 40.9355V40.0594H34.2048C34.5063 41.0727 35.445 41.8115 36.5562 41.8115C37.911 41.8115 39.0092 40.7133 39.0092 39.3586C39.0092 38.0038 37.911 36.9056 36.5562 36.9056C35.445 36.9056 34.5063 37.6444 34.2048 38.6577H32.0007V35.3286H37.7476C37.9908 35.3286 38.2265 35.413 38.4145 35.5673L39.9746 36.8476C39.8054 37.1807 39.7101 37.5576 39.7101 37.9568C39.7101 39.3116 40.8083 40.4098 42.163 40.4098C43.5178 40.4098 44.616 39.3116 44.616 37.9568C44.616 36.6021 43.5178 35.5039 42.163 35.5039C41.7187 35.5039 41.302 35.622 40.9425 35.8286L39.3038 34.4837C38.8651 34.1237 38.3151 33.9269 37.7476 33.9269H32.0007V31.8244H40.9224C41.2751 32.7465 42.1682 33.4013 43.2143 33.4013C44.5691 33.4013 45.6673 32.3031 45.6673 30.9483C45.6673 29.5935 44.5691 28.4953 43.2143 28.4953C42.04 28.4953 41.0584 29.3205 40.8178 30.4227H32.0007V28.3201H35.1296C35.7802 28.3201 36.4041 28.0617 36.8641 27.6016L37.9584 26.5073C38.2769 26.6586 38.6332 26.7432 39.0092 26.7432C40.364 26.7432 41.4622 25.6449 41.4622 24.2902C41.4622 22.9354 40.364 21.8372 39.0092 21.8372C37.6544 21.8372 36.5562 22.9354 36.5562 24.2902C36.5562 24.7585 36.6874 25.1961 36.9151 25.5683L35.873 26.6105C35.6758 26.8076 35.4084 26.9184 35.1296 26.9184H32.0007V23.0637C32.0007 20.9348 30.2748 19.209 28.146 19.209C26.1345 19.209 24.4828 20.7497 24.3068 22.7154C22.6251 22.7125 21.1351 23.9189 20.8362 25.632C20.6831 26.5098 20.8691 27.3681 21.3 28.0726C19.5995 28.4739 18.334 30.0013 18.334 31.8244C18.334 33.5831 19.5119 35.0668 21.1218 35.5295C21.0323 35.6624 20.9507 35.8026 20.8776 35.9498C19.9829 37.7548 20.7207 39.9433 22.5256 40.8381C23.0968 41.1213 23.7064 41.241 24.3012 41.2151ZM35.5049 39.3586C35.5049 39.9392 35.9756 40.4098 36.5562 40.4098C37.1368 40.4098 37.6075 39.9392 37.6075 39.3586C37.6075 38.7779 37.1368 38.3073 36.5562 38.3073C35.9756 38.3073 35.5049 38.7779 35.5049 39.3586ZM41.3383 37.3048C41.3895 37.269 41.4367 37.2256 41.4783 37.175C41.4897 37.1611 41.5005 37.1469 41.5106 37.1325C41.6899 36.9904 41.9166 36.9056 42.163 36.9056C42.7437 36.9056 43.2143 37.3762 43.2143 37.9568C43.2143 38.5375 42.7437 39.0081 42.163 39.0081C41.5824 39.0081 41.1118 38.5375 41.1118 37.9568C41.1118 37.7105 41.1965 37.484 41.3383 37.3048ZM39.0092 23.2389C38.4286 23.2389 37.9579 23.7096 37.9579 24.2902C37.9579 24.8708 38.4286 25.3415 39.0092 25.3415C39.5898 25.3415 40.0605 24.8708 40.0605 24.2902C40.0605 23.7096 39.5898 23.2389 39.0092 23.2389ZM43.2143 29.897C42.6337 29.897 42.163 30.3677 42.163 30.9483C42.163 31.5289 42.6337 31.9996 43.2143 31.9996C43.795 31.9996 44.2656 31.5289 44.2656 30.9483C44.2656 30.3677 43.795 29.897 43.2143 29.897Z" fill="#100A55"/>
</svg>
