<svg width="64" height="64" viewBox="0 0 64 64" fill="none" xmlns="http://www.w3.org/2000/svg">
<circle cx="32" cy="32" r="31.5" fill="white" stroke="#E0DEF7"/>
<circle cx="32" cy="32" r="28" fill="#E0DEF7"/>
<path d="M40.2281 21.5671H37.1791V21.5589C37.1791 21.1068 36.9886 20.6967 36.6417 20.4058C36.2947 20.1149 35.8589 19.9969 35.4126 20.0752L34.4605 20.2422C34.2105 19.2083 33.2771 18.4385 32.1672 18.4385C31.0574 18.4385 30.124 19.2083 29.8739 20.2422L28.9218 20.0752C28.4755 19.9969 28.0398 20.1149 27.6928 20.4058C27.3458 20.6967 27.1554 21.1068 27.1554 21.5589V21.5671H24.1064C22.9451 21.5671 22 22.5122 22 23.6734V43.4556C22 44.6168 22.9451 45.5619 24.1064 45.5619H40.227C41.3882 45.5619 42.3333 44.6168 42.3333 43.4556V23.6734C42.3333 22.5122 41.3882 21.5671 40.227 21.5671H40.2281ZM28.4976 21.5589C28.4976 21.5016 28.5128 21.4701 28.556 21.4339C28.5992 21.3977 28.6331 21.3883 28.6892 21.3977L30.3633 21.6897C30.5584 21.7236 30.7593 21.6699 30.9112 21.5425C31.0631 21.4152 31.1507 21.2271 31.1507 21.0285V20.7972C31.1507 20.2364 31.6063 19.7808 32.1671 19.7808C32.7278 19.7808 33.1834 20.2364 33.1834 20.7972V21.0285C33.1834 21.2271 33.271 21.4152 33.4229 21.5425C33.5748 21.6699 33.7757 21.7236 33.9708 21.6897L35.6449 21.3977C35.701 21.3883 35.7349 21.3965 35.7781 21.4339C35.8213 21.4701 35.8365 21.5028 35.8365 21.5601V22.7493H28.4988V21.5601L28.4976 21.5589ZM40.9907 43.4567C40.9907 43.8772 40.6484 44.2207 40.2267 44.2207L24.1061 44.2195C23.6855 44.2195 23.3421 43.8772 23.3421 43.4555L23.3432 23.6734C23.3432 23.2528 23.6855 22.9093 24.1073 22.9093H27.1563V23.4187C27.1563 23.789 27.4565 24.0904 27.8281 24.0904H36.5092C36.8796 24.0904 37.181 23.7902 37.181 23.4187V22.9093H40.23C40.6506 22.9093 40.9941 23.2516 40.9941 23.6734V43.4555L40.9907 43.4567ZM32.1657 36.9297C35.4603 36.9297 38.1391 34.2497 38.1391 30.9563C38.1391 27.6618 35.4591 24.983 32.1657 24.983C28.8711 24.983 26.1923 27.6629 26.1923 30.9563C26.1923 34.2509 28.8723 36.9297 32.1657 36.9297ZM33.7872 31.6272H36.7476C36.6343 32.4029 36.3282 33.1178 35.8796 33.7195L33.7872 31.6272ZM36.7476 30.2848H32.8375V26.3748C34.8539 26.6692 36.4533 28.2673 36.7476 30.2848ZM31.4953 26.3748V30.9565C31.4953 31.1341 31.5665 31.3047 31.6915 31.4308L34.9299 34.6692C34.1577 35.2451 33.2009 35.5863 32.1658 35.5863C29.612 35.5863 27.535 33.5091 27.535 30.9554C27.535 28.6306 29.2581 26.7005 31.4941 26.3736L31.4953 26.3748ZM29.3609 41.305C29.3422 41.8553 29.0174 42.3401 28.4941 42.5995C28.341 42.6754 28.1716 42.7338 27.9929 42.7747V42.9745C27.9929 43.3448 27.6926 43.6462 27.3211 43.6462C26.9508 43.6462 26.6494 43.346 26.6494 42.9745V42.7548C26.1061 42.617 25.6202 42.3179 25.3643 41.8518C25.1867 41.5259 25.3059 41.1181 25.6307 40.9405C25.9566 40.763 26.3643 40.8821 26.5419 41.2069C26.6798 41.4592 27.4707 41.6088 27.8936 41.3985C27.9707 41.3599 28.0151 41.3097 28.0174 41.2595C28.0197 41.1999 27.966 41.131 27.8737 41.0772C27.6774 40.9616 27.4286 40.902 27.14 40.8342C27.0185 40.805 26.8935 40.7758 26.765 40.7396C26.355 40.6251 25.8433 40.4288 25.5279 39.9242C25.1785 39.3646 25.2592 38.6601 25.7288 38.1706C25.9811 37.9077 26.3083 37.75 26.6482 37.6648V37.451C26.6482 37.0806 26.9484 36.7792 27.32 36.7792C27.6903 36.7792 27.9917 37.0795 27.9917 37.451V37.6694C28.5408 37.8096 28.9707 38.1134 29.195 38.5304C29.3714 38.8575 29.2487 39.2641 28.9228 39.4393C28.5969 39.6157 28.1891 39.4931 28.0139 39.1671C27.9777 39.0994 27.8129 38.9837 27.5127 38.9417C27.1517 38.8926 26.8094 38.9849 26.6996 39.0994C26.6388 39.1625 26.6563 39.1905 26.6692 39.2115C26.7241 39.298 26.869 39.3727 27.1283 39.4452C27.2323 39.4744 27.341 39.5001 27.4543 39.527C27.7977 39.6087 28.1868 39.7022 28.5571 39.9183C29.0805 40.2256 29.3819 40.7443 29.362 41.305L29.3609 41.305ZM39.0493 38.6683C39.0493 39.0386 38.7491 39.34 38.3776 39.34H31.2337C30.8633 39.34 30.5619 39.0398 30.5619 38.6683C30.5619 38.298 30.8621 37.9966 31.2337 37.9966H38.3776C38.7479 37.9966 39.0493 38.2968 39.0493 38.6683ZM39.0493 41.7571C39.0493 42.1275 38.7491 42.4289 38.3776 42.4289H31.2337C30.8633 42.4289 30.5619 42.1286 30.5619 41.7571C30.5619 41.3868 30.8621 41.0854 31.2337 41.0854H38.3776C38.7479 41.0854 39.0493 41.3856 39.0493 41.7571Z" fill="#100A55"/>
</svg>
