<svg width="310" height="330" viewBox="0 0 310 330" fill="none" xmlns="http://www.w3.org/2000/svg">
<g opacity="0.4">
<path d="M230.341 217.348C229.878 225.358 232.085 231.558 236.022 238.439C238.995 243.645 248.997 248.572 243.131 256.424C240.135 260.457 235.054 263.513 231.096 266.527C226.446 270.093 206.254 284.34 200 276.633C194.299 269.62 191.558 260.739 183.893 255.206C180.33 252.626 175.264 253.992 171.388 254.812C156.02 258.1 142.984 258.053 128.707 250.715C102.565 237.26 88.7648 205.86 91.6895 177.531C96.2773 133.556 150.316 94.164 193.144 101.46C217.489 105.613 235.786 125.906 242.461 148.72C246.036 160.944 245.129 174.119 242.274 186.328C239.768 197.057 233.051 205.925 230.394 216.522C229.403 220.398 235.493 221.656 236.461 217.795C239.815 204.536 247.469 193.574 249.971 179.817C252.2 167.556 250.747 154.901 247.276 143.038C240.504 119.925 220.723 103.105 198.252 96.2772C151.305 82.0217 95.5982 128.334 86.2069 172.516C80.8164 197.877 91.0345 223.745 107.947 242.374C117.168 252.555 129.736 259.496 143.004 262.619C156.005 265.686 177.784 255.179 186.6 267.008C190.437 272.176 194.443 284.908 202.185 285.318C213.312 285.921 225.689 277.702 234.49 271.721C240.114 267.882 250.912 260.926 251.523 253.345C251.859 249.173 250.467 246.69 248.159 243.257C242.16 234.429 235.856 228.863 236.545 217.016C236.764 213.019 230.575 213.373 230.349 217.309L230.341 217.348Z" fill="#E0DEF7"/>
<path d="M197.118 284.973C199.281 290.904 197.877 299.992 207.318 300.18C219.832 300.436 231.653 293.635 241.467 286.432C248.879 280.996 259.455 271.484 261.429 262.058C262.827 255.38 258.36 250.558 251.885 251.231C247.913 251.652 248.209 257.849 252.181 257.428C259.796 256.636 248.239 271.401 247.574 272.197C242.751 278.017 236.655 282.494 230.356 286.511C225.273 289.766 219.72 291.649 214.016 293.399C202.845 296.811 204.798 287.959 202.992 283.078C201.626 279.326 195.714 281.212 197.08 284.965L197.118 284.973Z" fill="#E0DEF7"/>
<path d="M207.708 300.123C214.343 323.128 237.083 306.985 249.871 298.136C256.834 293.323 269.194 285.28 269.823 275.712C270.283 268.856 266.984 263.304 260.146 261.908C256.231 261.107 254.96 267.174 258.875 267.976C275.688 271.385 247.592 292.18 243.03 295.326C235.782 300.358 218.046 313.527 213.62 298.236C212.516 294.379 206.619 296.289 207.708 300.123Z" fill="#E0DEF7"/>
<path d="M236.846 305.461C239.479 308.484 240.317 313.042 244.82 313.987C249.513 314.972 255.054 311.912 258.913 309.555C261.835 307.778 268.123 303.241 267.525 299.152C266.81 294.48 263.381 290.693 259.558 288.118C256.298 285.9 252.143 290.525 255.456 292.774C256.68 293.589 262.393 297.597 260.915 299.617C259.188 301.964 256.619 303.675 254.174 305.174C252.367 306.289 246.965 309.258 245.158 307.046C243.555 305.096 242.659 302.717 240.956 300.766C238.338 297.767 234.25 302.446 236.854 305.423L236.846 305.461Z" fill="#E0DEF7"/>
<path d="M221.184 273.531C210.119 256.747 199.882 238.863 187.308 223.197C177.124 210.482 159.869 210.326 147.196 201.412C145.046 199.885 142.288 202.972 144.454 204.522C158.41 214.343 175.228 214.685 186.531 228.81C198.152 243.32 207.502 260.301 217.738 275.815C219.201 278.055 222.662 275.793 221.199 273.554L221.184 273.531Z" fill="#E0DEF7"/>
<path d="M236.257 262.233C226.665 247.551 217.041 232.922 207.448 218.24C200.54 207.667 198.889 199.094 201.501 186.715C203.267 178.381 205.024 170.085 206.789 161.751C207.355 159.141 203.311 158.292 202.744 160.902C200.635 170.877 198.504 180.867 196.395 190.842C195.181 196.543 192.988 203.114 196.341 208.599C207.906 227.559 220.639 245.888 232.819 264.479C234.282 266.718 237.744 264.457 236.28 262.217L236.257 262.233Z" fill="#E0DEF7"/>
<path d="M145.601 204.562C146.864 202.716 146.948 200.981 146.501 198.835C146.054 196.69 144.916 194.041 142.323 194.154C140.373 194.243 138.981 195.942 138.628 197.721C138.18 199.957 140.281 202.669 142.191 203.628C144.14 204.594 146.367 202.711 147.04 201.02C147.893 198.849 146.893 196.109 145.016 194.799C143.155 193.512 140.878 194.11 139.79 196.072C138.64 198.142 140.841 201.611 142.019 203.213C142.593 203.991 143.447 204.29 144.374 204.046C145.517 203.728 146.484 203.294 147.446 202.599C148.285 202.018 148.46 201.179 148.278 200.244C148.022 198.896 147.237 196.938 145.734 196.603C144.246 196.29 142.503 197.1 141.235 197.83C138.875 199.207 136.917 203.517 140.144 205.13C142.976 206.541 146.339 204.08 147.668 201.729C149.175 199.098 147.985 195.462 145.676 193.742C144.863 193.153 144.061 193.084 143.185 193.558C139.758 195.369 137.851 199.151 139.891 202.727C141.795 206.094 147.537 205.208 147.802 201.28C148.015 197.978 146.038 193.44 142.089 193.846C137.918 194.265 137.445 200.899 139.724 203.428C142.456 206.452 146.577 204.847 147.718 201.302C149.023 197.253 144.585 194.29 141.216 194.021C137.372 193.732 134.17 197.801 134.673 201.392C135.392 206.423 141.223 205.875 144.624 204.377C145.745 203.875 146.211 202.978 145.962 201.79C145.589 199.959 144.9 198.3 143.967 196.67C142.642 194.34 139.196 196.625 140.506 198.932C141.266 200.247 141.705 201.574 142.013 203.052C142.472 202.193 142.916 201.31 143.352 200.465C142.3 200.922 141.287 201.386 140.123 201.52C138.332 201.702 138.593 199.984 139.389 199.036C140.193 198.049 141.485 198.061 142.52 198.538C143.046 198.787 144.455 201.095 143.179 201.006C142.101 200.92 142.508 199.073 142.643 198.524C142.889 197.539 142.518 197.979 142.905 198.32C143.292 198.66 143.454 199.311 143.595 199.779C144.13 201.505 143.18 200.808 143.107 199.637C143.026 198.405 144.555 197.57 145.446 197.12C144.621 197.066 143.781 196.99 142.955 196.936C144.3 197.935 144.689 199.69 143.249 200.862C142.941 201.096 142.603 201.284 142.212 201.341C141.226 201.294 141.361 201.601 142.602 202.24C142.97 201.241 144.488 200.843 145.398 200.775C144.789 200.448 144.173 200.159 143.564 199.832C144.002 200.402 144.212 200.825 144.336 201.568C144.618 200.791 144.885 199.99 145.167 199.213C144.49 199.688 143.891 199.981 143.094 200.172C143.872 200.455 144.672 200.722 145.449 201.005C144.77 200.066 144.228 199.135 143.848 198C143.774 197.785 143.737 197.578 143.663 197.363C142.62 197.682 142.356 198.085 142.918 198.541C143.008 198.68 143.512 199.702 143.022 199.758C143.502 199.939 144.005 200.104 144.485 200.285C144.007 199.905 143.49 199.518 143.089 199.055C142.854 198.847 142.741 198.624 142.721 198.341C142.508 198.216 142.308 198.314 142.114 198.672C142.405 199.47 143.01 201.051 142.46 201.871C140.972 204.029 144.074 206.812 145.57 204.616L145.601 204.562Z" fill="#E0DEF7"/>
<path d="M201.979 161.698C204.449 163.312 207.478 161.497 208.228 158.966C209.159 155.755 205.347 152.843 202.434 153.726C199.375 154.638 197.824 157.858 198.89 160.85C200.016 164.035 203.913 165.112 206.644 163.294C209.259 161.553 208.924 158.016 208.191 155.432C206.976 151.054 201.958 153.905 199.581 155.458C197.989 156.498 197.449 157.839 198.144 159.658C198.636 161.016 199.918 162.221 201.345 162.541C204.351 163.211 207.195 160.661 206.925 157.577C206.704 154.921 202.559 155.127 202.779 157.782C202.862 158.716 201.899 158.753 201.955 157.629C201.628 158.238 201.34 158.855 201.013 159.463C201.79 158.889 202.613 158.385 203.489 157.911C203.896 157.678 204.326 157.529 204.763 157.342C205.552 157.189 205.363 156.95 204.25 156.657C204.316 156.91 204.391 157.125 204.434 157.393C204.663 158.297 204.928 160.265 203.439 160.052C202.301 159.873 202.442 157.871 203.552 157.705C203.797 157.677 204.2 157.941 204.183 158.117C204.192 157.979 204.491 157.883 204.006 158.199C203.914 158.259 204.174 158.254 203.824 158.022C202.882 157.386 201.492 158.03 201.041 158.951C200.496 160.032 201.029 161.1 201.971 161.736L201.979 161.698Z" fill="#E0DEF7"/>
<path d="M143.619 197.952C155.562 200.458 150.599 185.354 152 179.234C150.736 179.467 149.511 179.707 148.247 179.94C153.772 187.036 159.952 192.715 167.454 197.696C168.746 198.564 170.57 197.174 170.453 195.736C169.409 185.218 163.04 176.731 161.299 166.406C160.147 166.961 159.018 167.501 157.866 168.056C163.84 173.672 171.393 184.778 179.908 185.968C181.283 186.157 182.392 185.234 182.404 183.842C182.466 177.84 181.694 172.778 179.964 167.056C178.993 167.888 178.046 168.705 177.075 169.537C179.064 171.07 181.302 172.177 183.704 172.881C185.213 173.476 186.62 172.557 186.704 170.921C186.901 165.226 188.515 160.844 194.649 162.37C197.433 163.054 199.541 159.174 202.559 160.166C205.09 161.016 205.922 156.948 203.406 156.121C199.29 154.759 191.838 155.247 187.555 155.443C180.533 155.782 182.708 167.174 182.581 171.111L185.58 169.151C183.155 168.463 180.94 167.341 178.951 165.808C177.37 164.799 175.579 166.694 176.061 168.289C177.561 173.205 182.042 185.001 173.839 177.284C169.442 173.174 165.052 169.026 160.655 164.916C159.442 163.765 156.902 164.766 157.222 166.566C158.972 176.853 165.355 185.463 166.377 195.896L169.376 193.936C162.103 189.103 157.167 184.521 151.8 177.618C150.72 176.216 148.477 176.463 148.048 178.325C147.45 180.988 147.496 194.463 144.581 193.831C141.964 193.302 141.116 197.347 143.734 197.876L143.619 197.952Z" fill="#E0DEF7"/>
<path d="M275.384 148.719C280.323 145.393 285.488 142.414 290.909 139.926C294.502 138.27 292.652 132.364 289.02 134.012C283.093 136.732 277.399 139.86 272.014 143.51C268.698 145.742 272.092 150.936 275.407 148.704L275.384 148.719Z" fill="#E0DEF7"/>
<path d="M236.608 90.026C241.896 82.7499 247.222 75.4818 252.51 68.2057C254.833 65.0082 250.221 60.8732 247.852 64.1009C242.564 71.377 237.238 78.6451 231.95 85.9212C229.627 89.1188 234.239 93.2537 236.608 90.026Z" fill="#E0DEF7"/>
<path d="M140.085 79.7668C135.106 73.1048 131.264 65.964 128.567 58.1076C127.248 54.325 121.374 56.2195 122.655 59.9941C125.546 68.3494 129.605 76.0734 134.893 83.159C137.273 86.3475 142.479 82.9784 140.085 79.7668Z" fill="#E0DEF7"/>
<path d="M82.1888 133.11C73.146 126.929 63.5573 121.929 53.2381 118.229C49.5343 116.894 46.701 122.435 50.4812 123.786C60.244 127.289 69.515 131.904 78.0867 137.766C81.3467 139.984 85.479 135.374 82.1888 133.11Z" fill="#E0DEF7"/>
<path d="M64.4895 194.71C58.2402 196.685 51.9058 197.925 45.3717 198.406C41.3855 198.705 41.6812 204.902 45.6674 204.603C52.7064 204.089 59.6149 202.77 66.3399 200.616C70.1586 199.405 68.2469 193.506 64.4514 194.702L64.4895 194.71Z" fill="#E0DEF7"/>
<path d="M101.217 259.387C97.7023 262.473 95.052 266.379 93.4906 270.792C92.918 272.385 93.2311 274.124 94.8904 274.95C96.2605 275.636 98.4897 275.168 99.0472 273.552C100.46 269.566 102.684 266.268 105.874 263.491C107.146 262.364 106.738 260.127 105.616 259.115C104.22 257.886 102.504 258.282 101.24 259.371L101.217 259.387Z" fill="#E0DEF7"/>
</g>
</svg>
