<svg width="64" height="64" viewBox="0 0 64 64" fill="none" xmlns="http://www.w3.org/2000/svg">
<circle cx="32" cy="32" r="31.5" fill="white" stroke="#E0DEF7"/>
<circle cx="32" cy="32" r="28" fill="#E0DEF7"/>
<path d="M46.0667 27.2733H41.6667V23.1733L42.9333 22.8066C43.4333 22.6733 43.7 22.1399 43.5667 21.6733C43.4333 21.1733 42.9 20.9066 42.4333 21.0399L35.1333 23.1399C34.2333 21.4733 32.2667 20.6066 30.3667 21.1733C28.4667 21.7066 27.2667 23.5066 27.3667 25.3733L20.1 27.4399C19.6 27.5733 19.3333 28.1066 19.4667 28.5733C19.6 29.0399 20.1333 29.3399 20.6 29.2066L21.6667 28.9066L22.0667 28.8066V32.9399H17.9333C17.4333 32.9399 17 33.3399 17 33.8733C17 37.0733 19.6 39.7066 22.8333 39.7066C26.0333 39.7066 28.6667 37.1066 28.6667 33.8733C28.6667 33.3733 28.2667 32.9399 27.7333 32.9399H23.4V28.4399H23.4333L28.7667 26.9066C29.2333 26.7399 29.4667 26.2399 29.3333 25.7733C29 24.5733 29.7 23.3066 30.9 22.9399C32.1 22.6066 33.3667 23.3066 33.7333 24.5066C33.8667 24.9399 34.3 25.2066 34.7333 25.1733L40.0333 23.6399L40.4 23.5399V27.2733H36.3C35.8 27.2733 35.3667 27.6733 35.3667 28.2066C35.3667 31.4066 37.9667 34.0399 41.2 34.0399C44.4 34.0066 47 31.4066 47 28.1733C47 27.6733 46.6 27.2733 46.0667 27.2733ZM22.8333 37.7733C20.9667 37.7733 19.4 36.4733 19 34.7399H26.6667C26.2333 36.4733 24.7 37.7733 22.8333 37.7733ZM41.1667 32.1399C39.3 32.1399 37.7333 30.8399 37.3333 29.1066H45.0333C44.6 30.8399 43.0333 32.1399 41.1667 32.1399Z" fill="#100A55"/>
<path d="M40.1672 41.5403H32.4005V25.407C32.4005 24.907 32.0005 24.4736 31.4672 24.4736C30.9672 24.4736 30.5339 24.8736 30.5339 25.407V41.5403H23.2339H23.2005C22.7339 41.5403 22.3672 41.907 22.3672 42.3736C22.3672 42.8403 22.7339 43.207 23.2005 43.207H40.1005C40.5672 43.207 40.9339 42.8403 40.9339 42.3736C40.9339 41.907 40.6005 41.5736 40.1672 41.5403Z" fill="#100A55"/>
</svg>
