<svg width="416" height="376" viewBox="0 0 416 376" fill="none" xmlns="http://www.w3.org/2000/svg">
<path d="M295.921 399.92L484 291.332L172.079 111.246L-16 219.833L295.921 399.92Z" fill="#2516DF"/>
<path d="M476.964 291.333L172.082 115.31L-8.96094 219.831L295.923 395.857L476.964 291.333Z" fill="#A9A2F6"/>
<path d="M237.431 360.534L293.698 328.047L352.184 361.813L295.914 394.3L237.431 360.534ZM172.722 258.203L224.616 288.163L168.349 320.649L116.454 290.688L172.722 258.203ZM346.663 217.7L292.045 249.232L240.152 219.272L294.769 187.739L346.663 217.7ZM361.128 289.118L415.744 257.584L474.228 291.35L419.61 322.883L361.128 289.118ZM356.997 291.502L415.482 325.267L356.311 359.429L297.828 325.663L356.997 291.502ZM296.174 251.617L350.79 220.083L411.614 255.2L356.997 286.733L296.174 251.617ZM228.746 285.78L176.851 255.818L236.023 221.656L287.916 251.617L228.746 285.78ZM289.57 325.663L233.301 358.15L172.478 323.034L228.746 290.546L289.57 325.663ZM232.875 288.163L292.045 254.001L352.869 289.118L293.698 323.279L232.875 288.163ZM350.816 215.327L350.804 215.307L350.791 215.315L294.769 182.969L108.195 290.688L295.914 399.068L482.488 291.35L350.816 215.327Z" fill="#F0EFFB"/>
<path d="M36.168 159.634V163.364C36.2852 164.396 37.0602 165.475 38.5377 166.319C40.5556 167.492 43.3001 167.938 45.6227 167.586C46.607 167.446 47.5222 167.164 48.273 166.718L90.3579 142.415C91.4605 141.805 91.9768 140.961 92.0239 140.092L92.0469 136.456L89.3725 136.668C86.5107 135.143 82.3587 135.002 79.9419 136.409L44.2844 156.984L38.3974 160.385L38.2801 159.634H36.168Z" fill="#C7784C"/>
<path d="M36.168 159.634V163.364C36.2852 164.396 37.0602 165.475 38.5377 166.319C40.5556 167.492 43.3001 167.938 45.6227 167.586V156.984H44.2844L38.3974 160.385L38.2801 159.634H36.168Z" fill="#DFCFB5"/>
<path d="M48.2715 163.206L90.3662 138.903C92.8608 137.463 92.5474 134.947 89.6669 133.285V133.284C86.7864 131.621 82.4295 131.441 79.9348 132.881L37.8401 157.185C35.3455 158.625 35.659 161.14 38.5394 162.803C41.4199 164.466 45.7768 164.647 48.2715 163.206Z" fill="white"/>
<path d="M237.839 154.031L237.826 154.008L237.812 154.014L172.692 116.417L-7.27148 220.04L218.922 350.582L398.884 246.96L237.839 154.031Z" fill="#E8E6F9"/>
<path d="M398.882 213.543L349.743 185.172V152.636L354.955 154.524L349.74 151.533V148.283L314.877 131.208L314.737 131.454L245.775 91.8963L242.621 90.7542V88.4875L204.315 28.5783L190.132 36.7725L158.684 45.1652L32.5503 118.038L35.9624 117.127L35.8627 117.185V139.767L-7.27344 164.671V103.629L172.699 -0.000732422L398.882 130.535V213.543Z" fill="url(#paint0_linear_29236_1180)"/>
<path d="M398.884 241.768L349.745 213.397V184.751L398.884 213.122V241.768ZM-7.27148 214.371V164.25L35.8646 139.346V170.19V189.916L-7.27148 214.371Z" fill="url(#paint1_linear_29236_1180)"/>
<path d="M398.883 246.946L349.744 218.588V214.71L350.791 215.315L350.803 215.307L350.815 215.327L398.883 243.08V246.946Z" fill="url(#paint2_linear_29236_1180)"/>
<path d="M114.435 162.55L35.8633 117.187L161.996 44.3141L240.568 89.6784L114.435 162.55Z" fill="#A8A2F6"/>
<path d="M114.436 256.611V162.55L240.568 89.6782V183.74L114.436 256.611Z" fill="url(#paint3_linear_29236_1180)"/>
<path d="M149.389 232.074L121.859 247.97V185.463L149.389 169.569V232.074Z" fill="#F7F7FD"/>
<path d="M35.8633 211.248V117.186L114.435 162.55V256.611L35.8633 211.248Z" fill="#A8A2F6"/>
<path d="M46.5098 139.578V200.055L57.0288 206.115V145.637L46.5098 139.578Z" fill="#F7F7FD"/>
<path d="M61.2246 148.068V208.545L71.7425 214.605V154.127L61.2246 148.068Z" fill="#F7F7FD"/>
<path d="M75.9395 156.559V217.037L86.4585 223.096V162.619L75.9395 156.559Z" fill="#F7F7FD"/>
<path d="M90.6543 165.049V225.526L101.172 231.586V171.109L90.6543 165.049Z" fill="#F7F7FD"/>
<path d="M264.903 201.26L155.723 138.633L240.563 89.6729L349.743 152.3L264.903 201.26Z" fill="url(#paint4_linear_29236_1180)"/>
<path d="M264.904 295.398V201.261L349.745 152.302V246.438L264.904 295.398Z" fill="url(#paint5_linear_29236_1180)"/>
<path d="M155.723 232.771V138.635L264.903 201.261V295.398L155.723 232.771Z" fill="#A8A2F6"/>
<path d="M257.377 284.434L163.25 230.09V167.872L257.377 222.216V284.434Z" fill="#F7F7FD"/>
<path d="M135.492 162.145L131.195 157.272L150.75 145.974L155.724 148.827V150.937L135.492 162.145Z" fill="#5245ED"/>
<path d="M155.723 150.938V148.828L155.731 148.833L155.733 150.932L155.723 150.938Z" fill="#013BA1"/>
<path d="M32.5508 118.039L78.1814 105.861L204.315 32.9881L158.685 45.1666L32.5508 118.039Z" fill="#5598E9"/>
<path d="M116.488 165.77L78.1816 105.86L204.316 32.9878L242.621 92.897L116.488 165.77Z" fill="#3F461D"/>
<path d="M242.621 88.4886V92.897L116.488 165.77V161.36L242.621 88.4886Z" fill="url(#paint6_linear_29236_1180)"/>
<path d="M89.4416 138.383L75.106 118.063L47.8697 124.119L35.8633 117.187L38.0861 116.562L78.1816 105.861L97.4747 136.034L89.4416 138.383Z" fill="#5245ED"/>
<path d="M35.8666 126.787L35.8633 117.187L47.8697 124.118L35.8666 126.787Z" fill="#5245ED"/>
<path d="M38.0859 116.562L78.006 105.349L78.1814 105.624V105.862L38.0859 116.562Z" fill="#073CAE"/>
<path d="M32.5508 113.63L78.1814 101.453L204.315 28.58L158.685 40.7574L32.5508 113.63Z" fill="#CBC7FA"/>
<path d="M116.488 161.36L78.1816 101.452L204.316 28.5797L242.621 88.489L116.488 161.36Z" fill="#A8A2F6"/>
<path d="M142.158 128.63L120.539 120.904L120.541 106.708L138.521 113.346L146.665 122.546L142.158 128.63Z" fill="#5245ED"/>
<path d="M120.539 105.609L112.723 101.097L120.491 96.6117L128.307 101.125L120.539 105.609Z" fill="#A8A2F6"/>
<path d="M120.54 105.568L112.145 100.719L120.488 95.9021L128.885 100.75L120.54 105.568Z" fill="#CBC7FA"/>
<path d="M120.543 107.025L128.887 102.207V100.749L120.543 105.568V107.025Z" fill="#2516DF"/>
<path d="M112.145 102.177L120.54 107.025V105.568L112.145 100.719V102.177Z" fill="#A8A2F6"/>
<path d="M126.023 101.115L120.529 104.295L120.511 104.276L115.016 101.098L120.493 97.9366L120.511 97.9552L126.023 101.115Z" fill="#2516DF"/>
<path d="M126.024 101.115L120.529 104.295L120.512 104.276V97.9552L126.024 101.115Z" fill="#A8A2F6"/>
<path d="M120.539 120.902L128.307 116.418V101.125L120.539 105.609V120.902Z" fill="#2516DF"/>
<path d="M112.725 108.76L120.54 120.902V105.609L112.725 101.096V108.76Z" fill="#A8A2F6"/>
<path d="M120.543 97.543L119.439 96.9051L120.536 96.2726L121.639 96.9094L120.543 97.543Z" fill="#A8A2F6"/>
<path d="M120.543 105.196L121.639 104.564V96.9089L120.543 97.5424V105.196Z" fill="#2516DF"/>
<path d="M119.439 104.559L120.543 105.196V97.5424L119.439 96.9045V104.559Z" fill="#A8A2F6"/>
<path d="M120.545 97.543L119.801 97.1133L120.532 96.6935L121.283 97.1166L120.545 97.543Z" fill="#096EA8"/>
<path d="M120.551 99.8906L120.543 99.8862V97.5428L121.281 97.1164L121.636 97.3159V99.267L120.551 99.8906Z" fill="#093B7D"/>
<path d="M120.545 99.8867L119.445 99.2466V97.3164L119.8 97.1136L120.545 97.5433V99.8867Z" fill="#096EA8"/>
<path d="M127.215 93.6865L126.111 93.0497L127.207 92.4162L128.312 93.053L127.215 93.6865Z" fill="#A8A2F6"/>
<path d="M127.215 101.34L128.312 100.707V93.0524L127.215 93.6859V101.34Z" fill="#2516DF"/>
<path d="M126.111 100.703L127.215 101.34V93.686L126.111 93.0491V100.703Z" fill="#A8A2F6"/>
<path d="M127.215 93.6865L126.465 93.2547L126.945 92.973L127.69 93.4114L127.215 93.6865Z" fill="#096EA8"/>
<path d="M127.215 96.041V93.6877L127.691 93.4126L128.312 93.7776V95.4075L127.215 96.041Z" fill="#093B7D"/>
<path d="M127.211 96.042L126.121 95.5356V93.4564L126.465 93.2547L127.215 93.6865V96.0398L127.211 96.042Z" fill="#096EA8"/>
<path d="M113.828 93.667L112.723 93.0302L113.82 92.3966L114.924 93.0346L113.828 93.667Z" fill="#A8A2F6"/>
<path d="M113.828 101.322L114.924 100.689V93.0348L113.828 93.6673V101.322Z" fill="#2516DF"/>
<path d="M112.723 100.684L113.828 101.322V93.6673L112.723 93.0304V100.684Z" fill="#A8A2F6"/>
<path d="M113.829 93.667L113.338 93.3842L114.078 92.9524L114.564 93.2428L113.829 93.667Z" fill="#096EA8"/>
<path d="M113.828 96.0176V93.6665L114.564 93.2423L114.921 93.4561V95.4071L113.828 96.0176Z" fill="#093B7D"/>
<path d="M113.825 96.0195L112.73 95.386V93.7375L113.338 93.3846L113.829 93.6674V96.0184L113.825 96.0195Z" fill="#096EA8"/>
<path d="M120.544 97.5312L111.309 92.1989L120.486 86.9004L129.722 92.2317L120.544 97.5312Z" fill="white"/>
<path d="M120.545 99.1357L129.722 93.8362V92.2327L120.545 97.5322V99.1357Z" fill="#A8A2F6"/>
<path d="M111.309 93.8033L120.544 99.1357V97.5322L111.309 92.1998V93.8033Z" fill="#CBC7FA"/>
<path d="M259.867 208.566L150.688 145.939L184.84 114.153L294.02 176.78L259.867 208.566Z" fill="#5598E9"/>
<path d="M245.774 91.898L205.695 77.387L314.876 140.014L354.954 154.525L245.774 91.898Z" fill="#DDB79B"/>
<path d="M314.877 140.015L294.02 176.781L184.84 114.154L205.696 77.3871L314.877 140.015Z" fill="#433E44"/>
<path d="M264.908 213.543L264.904 203.882V213.452L264.908 213.449V213.543Z" fill="#02288E"/>
<path d="M264.908 213.543L155.734 150.933V148.835L259.869 208.568L264.904 203.882V213.541" fill="#5245ED"/>
<path d="M155.734 141.244V138.687L155.91 138.586L157.569 139.538L155.734 141.244Z" fill="#02288E"/>
<path d="M155.734 138.687V138.485L155.91 138.586L155.734 138.687Z" fill="#0852BE"/>
<path d="M259.869 208.566L155.734 148.834V141.243L157.569 139.537L264.908 201.094L264.904 203.881L259.869 208.566Z" fill="#073CAE"/>
<path d="M272.312 196.986L294.02 176.781L314.877 140.015L313.019 138.948L314.877 140.015L349.385 152.509L339.123 158.431L314.877 149.663L295.683 183.498L272.312 196.986Z" fill="#5245ED"/>
<path d="M264.906 213.448V203.878L272.312 196.986L295.683 183.498L294.02 186.43L264.906 213.448ZM349.74 162.27L339.123 158.431L349.385 152.509L349.74 152.637V162.27Z" fill="#5245ED"/>
<path d="M264.908 203.878V201.095L264.904 194.998L288.159 173.417L294.021 176.781L272.314 196.986L264.908 203.878Z" fill="#033093"/>
<path d="M349.741 151.533L314.738 131.454L314.879 131.209L349.741 148.283V151.533Z" fill="url(#paint7_linear_29236_1180)"/>
<path d="M349.74 152.638L349.385 152.509L314.877 140.015L313.018 138.949L314.877 135.673L312.967 134.577L314.737 131.456L349.74 151.535V152.638Z" fill="#073962"/>
<path d="M294.021 176.781L288.158 173.417L291.05 170.733L294.021 172.437L313.019 138.948L314.878 140.015L294.021 176.781Z" fill="#02132B"/>
<path d="M264.904 213.452V203.882L264.908 203.879V213.449L264.904 213.452Z" fill="#000D5A"/>
<path d="M264.904 203.883V201.094L264.908 201.097V203.88L264.904 203.883Z" fill="#00136E"/>
<path d="M259.867 204.225L150.688 141.596L184.84 109.811L294.02 172.438L259.867 204.225Z" fill="#A8A2F6"/>
<path d="M245.774 87.5532L205.695 73.0434L314.876 135.671L354.954 150.181L245.774 87.5532Z" fill="#A8A2F6"/>
<path d="M314.877 135.672L294.02 172.438L184.84 109.811L205.696 73.0444L314.877 135.672Z" fill="#CBC7FA"/>
<path d="M78.1814 101.452V105.861L32.5508 118.039V113.63L78.1814 101.452Z" fill="#A8A2F6"/>
<path d="M78.1816 101.452V105.86L116.488 165.77V161.36L78.1816 101.452Z" fill="#A8A2F6"/>
<path d="M354.955 154.524V150.181L314.877 135.671L294.02 172.438L259.867 204.224V208.566L294.02 176.78L314.877 140.014L354.955 154.524Z" fill="#2516DF"/>
<path d="M259.867 208.566V204.224L150.688 141.595V145.939L259.867 208.566Z" fill="#A8A2F6"/>
<path d="M215.375 122.123V99.6579L209.212 96.0968L207.93 84.0388H215.375L238.28 96.7917L237.891 100.093L232.013 109.654L215.375 122.123Z" fill="#5245ED"/>
<path d="M222.887 96.2261V108.966L215.375 122.123V99.6579L222.887 96.2261Z" fill="#2516DF"/>
<path d="M215.377 122.123L200.484 113.518V91.0537L215.377 99.6579V122.123Z" fill="#A8A2F6"/>
<path d="M213.29 99.1504L196.547 89.4753L208.207 82.9537L224.952 92.6287L213.29 99.1504Z" fill="#CBC7FA"/>
<path d="M213.29 98.4062L196.547 88.7301L208.207 82.2085L224.952 91.8835L213.29 98.4062Z" fill="white"/>
<path d="M214.411 100.953L222.889 96.2258L224.952 92.6295L213.291 99.1512L214.411 100.953Z" fill="#2516DF"/>
<path d="M196.547 89.4771L197.667 91.278L214.411 100.954L213.29 99.1522L196.547 89.4771Z" fill="#A8A2F6"/>
<path d="M213.291 99.1504V98.4051L224.952 91.8823V92.6287L213.291 99.1504Z" fill="#A8A2F6"/>
<path d="M213.29 99.1504V98.4051L196.547 88.7289V89.4753L213.29 99.1504Z" fill="#CBC7FA"/>
<path d="M201.807 113.145V95.3202L214.054 102.387V120.211L201.807 113.145Z" fill="#A8A2F6"/>
<path d="M203.242 97.8108V112.316L212.619 117.719V103.213L203.242 97.8108Z" fill="white"/>
<path d="M204.858 98.7435V111.629L212.619 116.098V117.719L203.242 112.317V97.8108L204.858 98.7435Z" fill="#2516DF"/>
<path d="M204.858 111.629L203.242 112.317L212.619 117.719V116.098L204.858 111.629Z" fill="#CBC7FA"/>
<path d="M206.052 112.318H203.242L204.858 111.63V98.7446L206.084 99.4494L206.052 112.318Z" fill="#0C59BE"/>
<path d="M246.832 140.135L241.492 121.857L239.387 102.051H246.832L269.737 114.803L269.348 118.105L263.469 127.666L246.832 140.135Z" fill="#5245ED"/>
<path d="M254.345 114.237V126.977L246.834 140.135V117.671L254.345 114.237Z" fill="#2516DF"/>
<path d="M246.833 140.135L231.939 131.529V109.065L246.833 117.671V140.135Z" fill="#A8A2F6"/>
<path d="M244.749 117.164L228.004 107.489L239.665 100.967L256.409 110.644L244.749 117.164Z" fill="#CBC7FA"/>
<path d="M244.749 116.416L228.004 106.741L239.665 100.219L256.409 109.894L244.749 116.416Z" fill="white"/>
<path d="M245.867 118.965L254.345 114.236L256.408 110.642L244.748 117.163L245.867 118.965Z" fill="#2516DF"/>
<path d="M228.004 107.488L229.123 109.289L245.868 118.965L244.749 117.163L228.004 107.488Z" fill="#A8A2F6"/>
<path d="M244.748 117.164V116.418L256.408 109.896V110.644L244.748 117.164Z" fill="#A8A2F6"/>
<path d="M244.749 117.164V116.418L228.004 106.743V107.489L244.749 117.164Z" fill="#CBC7FA"/>
<path d="M233.262 131.156V113.332L245.51 120.398V138.223L233.262 131.156Z" fill="#A8A2F6"/>
<path d="M234.699 115.823V130.329L244.076 135.731V121.226L234.699 115.823Z" fill="white"/>
<path d="M236.315 116.756V129.643L244.076 134.11V135.731L234.699 130.33V115.823L236.315 116.756Z" fill="#2516DF"/>
<path d="M236.315 129.643L234.699 130.33L244.076 135.731V134.11L236.315 129.643Z" fill="#CBC7FA"/>
<path d="M234.699 130.329H237.511L237.542 117.46L236.315 116.755V129.642L234.699 130.329Z" fill="#2516DF"/>
<path d="M278.29 158.146L272.95 139.868L270.844 120.062H278.29L301.194 132.815L300.805 136.117L294.925 145.678L278.29 158.146Z" fill="#5245ED"/>
<path d="M285.8 132.25V144.99L278.289 158.146V135.682L285.8 132.25Z" fill="#2516DF"/>
<path d="M278.29 158.146L263.396 149.541V127.077L278.29 135.682V158.146Z" fill="#A8A2F6"/>
<path d="M276.203 135.176L259.459 125.501L271.12 118.979L287.864 128.655L276.203 135.176Z" fill="#CBC7FA"/>
<path d="M276.203 134.43L259.459 124.755L271.12 118.233L287.864 127.909L276.203 134.43Z" fill="white"/>
<path d="M277.323 136.978L285.801 132.25L287.864 128.655L276.203 135.176L277.323 136.978Z" fill="#2516DF"/>
<path d="M259.459 125.501L260.579 127.301L277.323 136.978L276.203 135.176L259.459 125.501Z" fill="#A8A2F6"/>
<path d="M276.203 135.176V134.429L287.864 127.909V128.655L276.203 135.176Z" fill="#A8A2F6"/>
<path d="M276.203 135.176V134.429L259.459 124.754V125.501L276.203 135.176Z" fill="#CBC7FA"/>
<path d="M264.719 149.169V131.344L276.967 138.41V156.234L264.719 149.169Z" fill="#A8A2F6"/>
<path d="M266.154 133.836V148.341L275.531 153.743V139.238L266.154 133.836Z" fill="white"/>
<path d="M267.77 134.768V147.654L275.53 152.122V153.743L266.154 148.342V133.835L267.77 134.768Z" fill="#2516DF"/>
<path d="M267.77 147.654L266.154 148.342L275.53 153.743V152.122L267.77 147.654Z" fill="#CBC7FA"/>
<path d="M266.154 148.342H268.966L268.996 135.473L267.77 134.768V147.655L266.154 148.342Z" fill="#2516DF"/>
<path d="M467.097 250.701L379.23 199.972V195.452L467.097 246.182V250.701Z" fill="#2516DF"/>
<path d="M469.083 245.036L467.097 246.182L379.23 195.452L381.218 194.307L469.083 245.036Z" fill="#A8A2F6"/>
<path d="M467.097 293.852L379.23 243.123V238.604L467.097 289.332V293.852Z" fill="#2516DF"/>
<path d="M469.083 288.187L467.097 289.332L379.23 238.604L381.218 237.458L469.083 288.187Z" fill="#A8A2F6"/>
<path d="M390.875 256.153L383.844 252.093V188.87L387.359 186.622L390.875 192.928V256.153Z" fill="#A8A2F6"/>
<path d="M390.875 256.153L392.931 254.973V191.749L390.875 192.929V256.153Z" fill="#2516DF"/>
<path d="M390.876 192.928L392.932 191.748L389.417 185.443L387.359 186.621L390.876 192.928Z" fill="#CBC7FA"/>
<path d="M388.876 205.031C388.876 205.992 388.196 206.38 387.358 205.896C386.519 205.412 385.84 204.24 385.84 203.278C385.84 202.316 386.519 201.928 387.358 202.413C388.196 202.897 388.876 204.069 388.876 205.031Z" fill="#004899"/>
<path d="M388.876 246.872C388.876 247.834 388.196 248.221 387.358 247.736C386.519 247.252 385.84 246.08 385.84 245.118C385.84 244.157 386.519 243.77 387.358 244.253C388.196 244.737 388.876 245.909 388.876 246.872Z" fill="#004899"/>
<path d="M402.212 262.705L395.182 258.646V195.423L398.697 193.176L402.212 199.481V262.705Z" fill="#A8A2F6"/>
<path d="M402.211 262.705L404.267 261.526V198.302L402.211 199.481V262.705Z" fill="#2516DF"/>
<path d="M402.21 199.482L404.267 198.303L400.752 191.996L398.695 193.177L402.21 199.482Z" fill="#CBC7FA"/>
<path d="M400.216 211.583C400.216 212.545 399.536 212.933 398.698 212.449C397.859 211.965 397.18 210.792 397.18 209.83C397.18 208.869 397.859 208.481 398.698 208.965C399.536 209.45 400.216 210.621 400.216 211.583Z" fill="#004899"/>
<path d="M400.216 253.424C400.216 254.386 399.536 254.774 398.698 254.289C397.859 253.806 397.18 252.634 397.18 251.672C397.18 250.71 397.859 250.322 398.698 250.806C399.536 251.289 400.216 252.462 400.216 253.424Z" fill="#004899"/>
<path d="M413.55 269.259L406.52 265.199V201.975L410.035 199.728L413.55 206.035V269.259Z" fill="#A8A2F6"/>
<path d="M413.551 269.259L415.608 268.078V204.855L413.551 206.035V269.259Z" fill="#2516DF"/>
<path d="M413.55 206.035L415.608 204.855L412.092 198.549L410.035 199.728L413.55 206.035Z" fill="#CBC7FA"/>
<path d="M411.553 218.136C411.553 219.099 410.873 219.487 410.035 219.002C409.196 218.519 408.516 217.346 408.516 216.384C408.516 215.423 409.196 215.035 410.035 215.519C410.873 216.002 411.553 217.175 411.553 218.136Z" fill="#004899"/>
<path d="M411.553 259.979C411.553 260.941 410.873 261.328 410.035 260.845C409.196 260.359 408.516 259.187 408.516 258.225C408.516 257.263 409.196 256.876 410.035 257.359C410.873 257.843 411.553 259.016 411.553 259.979Z" fill="#004899"/>
<defs>
<linearGradient id="paint0_linear_29236_1180" x1="195.805" y1="80.0927" x2="195.805" y2="189.714" gradientUnits="userSpaceOnUse">
<stop stop-color="#F7F7FD"/>
<stop offset="1" stop-color="#E8E6F9"/>
</linearGradient>
<linearGradient id="paint1_linear_29236_1180" x1="195.807" y1="80.0954" x2="195.807" y2="189.717" gradientUnits="userSpaceOnUse">
<stop stop-color="#FFFCF7"/>
<stop offset="1" stop-color="#E8E6F9"/>
</linearGradient>
<linearGradient id="paint2_linear_29236_1180" x1="195.806" y1="80.0942" x2="195.806" y2="189.716" gradientUnits="userSpaceOnUse">
<stop stop-color="#E8E6F9"/>
<stop offset="1" stop-color="#D1CEF3"/>
</linearGradient>
<linearGradient id="paint3_linear_29236_1180" x1="177.502" y1="195.636" x2="177.502" y2="89.6782" gradientUnits="userSpaceOnUse">
<stop stop-color="#514B96"/>
<stop offset="1" stop-color="#423E76"/>
</linearGradient>
<linearGradient id="paint4_linear_29236_1180" x1="252.733" y1="160.501" x2="252.733" y2="89.6729" gradientUnits="userSpaceOnUse">
<stop stop-color="#514B96"/>
<stop offset="1" stop-color="#423E76"/>
</linearGradient>
<linearGradient id="paint5_linear_29236_1180" x1="307.325" y1="243.13" x2="307.325" y2="152.302" gradientUnits="userSpaceOnUse">
<stop stop-color="#514B96"/>
<stop offset="1" stop-color="#423E76"/>
</linearGradient>
<linearGradient id="paint6_linear_29236_1180" x1="179.555" y1="137.541" x2="179.555" y2="88.4886" gradientUnits="userSpaceOnUse">
<stop stop-color="#514B96"/>
<stop offset="1" stop-color="#423E76"/>
</linearGradient>
<linearGradient id="paint7_linear_29236_1180" x1="195.807" y1="80.0934" x2="195.807" y2="189.715" gradientUnits="userSpaceOnUse">
<stop stop-color="#0850A1"/>
<stop offset="1" stop-color="#074CA1"/>
</linearGradient>
</defs>
</svg>
