<svg width="64" height="64" viewBox="0 0 64 64" fill="none" xmlns="http://www.w3.org/2000/svg">
<circle cx="32" cy="32" r="31.5" fill="white" stroke="#E0DEF7"/>
<circle cx="32" cy="32" r="28" fill="#E0DEF7"/>
<path d="M46.026 43.7403H44.3545V39.8442C45.102 39.631 45.7598 39.1805 46.2286 38.5606C46.6974 37.9406 46.9517 37.185 46.9532 36.4078C46.9532 35.8623 46.774 34.8494 45.2195 32.239C45.0288 31.921 44.759 31.6579 44.4363 31.4753C44.1137 31.2926 43.7493 31.1966 43.3786 31.1966C43.0078 31.1966 42.6434 31.2926 42.3208 31.4753C41.9982 31.6579 41.7284 31.921 41.5377 32.239C39.9792 34.8338 39.8039 35.8623 39.8039 36.4078C39.805 37.1857 40.0597 37.942 40.5293 38.5621C40.999 39.1822 41.658 39.6323 42.4065 39.8442V43.7403H38.8182V21.1429C38.8182 20.5745 38.5924 20.0295 38.1906 19.6276C37.7887 19.2258 37.2436 19 36.6753 19H27.3247C26.7564 19 26.2113 19.2258 25.8094 19.6276C25.4076 20.0295 25.1818 20.5745 25.1818 21.1429V43.7403H21.6208V39.8442C22.3632 39.6304 23.0164 39.182 23.4827 38.5661C23.9491 37.9502 24.2034 37.1998 24.2078 36.4273C24.2078 35.8818 24.0286 34.8688 22.474 32.2584C22.2833 31.9405 22.0135 31.6774 21.6909 31.4947C21.3683 31.3121 21.0039 31.216 20.6331 31.216C20.2624 31.216 19.898 31.3121 19.5753 31.4947C19.2527 31.6774 18.9829 31.9405 18.7922 32.2584C17.2338 34.8532 17.0584 35.8818 17.0584 36.4273C17.0599 37.2045 17.3143 37.9601 17.7831 38.5801C18.2519 39.2 18.9097 39.6505 19.6571 39.8636V43.7597H17.974C17.7157 43.7597 17.468 43.8624 17.2853 44.045C17.1026 44.2277 17 44.4754 17 44.7338C17 44.9921 17.1026 45.2398 17.2853 45.4225C17.468 45.6052 17.7157 45.7078 17.974 45.7078H46.026C46.2843 45.7078 46.532 45.6052 46.7147 45.4225C46.8974 45.2398 47 44.9921 47 44.7338C47 44.4754 46.8974 44.2277 46.7147 44.045C46.532 43.8624 46.2843 43.7597 46.026 43.7597V43.7403ZM41.7403 36.4273C41.7403 36.3532 41.7831 35.6247 43.1974 33.2597C43.2144 33.2298 43.239 33.2048 43.2688 33.1875C43.2986 33.1701 43.3324 33.161 43.3669 33.161C43.4013 33.161 43.4352 33.1701 43.465 33.1875C43.4947 33.2048 43.5194 33.2298 43.5364 33.2597C44.9506 35.6247 44.9935 36.3532 44.9935 36.4273C44.9731 36.8449 44.7928 37.2387 44.49 37.527C44.1871 37.8154 43.785 37.9762 43.3669 37.9762C42.9487 37.9762 42.5466 37.8154 42.2438 37.527C41.941 37.2387 41.7607 36.8449 41.7403 36.4273ZM19.0104 36.4273C19.0104 36.3532 19.0532 35.6247 20.4675 33.2597C20.4845 33.2298 20.5092 33.2048 20.5389 33.1875C20.5687 33.1701 20.6026 33.161 20.637 33.161C20.6715 33.161 20.7053 33.1701 20.7351 33.1875C20.7649 33.2048 20.7895 33.2298 20.8065 33.2597C22.2325 35.6247 22.2597 36.3532 22.2597 36.4273C22.2393 36.8449 22.059 37.2387 21.7562 37.527C21.4534 37.8154 21.0513 37.9762 20.6331 37.9762C20.215 37.9762 19.8129 37.8154 19.5101 37.527C19.2072 37.2387 19.0269 36.8449 19.0065 36.4273H19.0104ZM27.1299 43.7403V21.1429C27.1299 21.0912 27.1504 21.0416 27.1869 21.0051C27.2235 20.9686 27.273 20.9481 27.3247 20.9481H36.6753C36.727 20.9481 36.7765 20.9686 36.8131 21.0051C36.8496 21.0416 36.8701 21.0912 36.8701 21.1429V43.7403H27.1299Z" fill="#100A55"/>
<path d="M30.0131 23.1494C29.7574 23.1494 29.512 23.2499 29.3298 23.4292C29.1476 23.6085 29.0432 23.8522 29.0391 24.1079V26.6403C29.0391 26.8987 29.1417 27.1464 29.3243 27.3291C29.507 27.5117 29.7548 27.6143 30.0131 27.6143C30.2714 27.6143 30.5192 27.5117 30.7018 27.3291C30.8845 27.1464 30.9871 26.8987 30.9871 26.6403V24.1079C30.983 23.8522 30.8786 23.6085 30.6964 23.4292C30.5142 23.2499 30.2687 23.1494 30.0131 23.1494Z" fill="#100A55"/>
<path d="M30.0131 29.4531C29.885 29.4526 29.7582 29.4775 29.6397 29.5262C29.5213 29.575 29.4138 29.6467 29.3232 29.7373C29.2327 29.8278 29.1609 29.9354 29.1122 30.0538C29.0634 30.1722 29.0386 30.2991 29.0391 30.4272V34.1947C29.0391 34.453 29.1417 34.7008 29.3244 34.8834C29.507 35.0661 29.7548 35.1687 30.0131 35.1687C30.2714 35.1687 30.5192 35.0661 30.7018 34.8834C30.8845 34.7008 30.9871 34.453 30.9871 34.1947V30.4272C30.9876 30.2991 30.9628 30.1722 30.914 30.0538C30.8653 29.9354 30.7935 29.8278 30.703 29.7373C30.6124 29.6467 30.5049 29.575 30.3864 29.5262C30.268 29.4775 30.1412 29.4526 30.0131 29.4531Z" fill="#100A55"/>
<path d="M30.0131 36.9883C29.7548 36.9883 29.507 37.0909 29.3243 37.2736C29.1417 37.4562 29.0391 37.704 29.0391 37.9623V40.4948C29.0391 40.7531 29.1417 41.0009 29.3243 41.1835C29.507 41.3662 29.7548 41.4688 30.0131 41.4688C30.2714 41.4688 30.5192 41.3662 30.7018 41.1835C30.8845 41.0009 30.9871 40.7531 30.9871 40.4948V37.9623C30.9871 37.704 30.8845 37.4562 30.7018 37.2736C30.5192 37.0909 30.2714 36.9883 30.0131 36.9883Z" fill="#100A55"/>
<path d="M33.9877 23.1494C33.732 23.1494 33.4866 23.2499 33.3044 23.4292C33.1222 23.6085 33.0178 23.8522 33.0137 24.1079V26.6403C33.0137 26.8987 33.1163 27.1464 33.299 27.3291C33.4816 27.5117 33.7294 27.6143 33.9877 27.6143C34.246 27.6143 34.4938 27.5117 34.6764 27.3291C34.8591 27.1464 34.9617 26.8987 34.9617 26.6403V24.1079C34.9576 23.8522 34.8532 23.6085 34.671 23.4292C34.4888 23.2499 34.2433 23.1494 33.9877 23.1494Z" fill="#100A55"/>
<path d="M33.9877 29.4531C33.8597 29.4526 33.7328 29.4775 33.6144 29.5262C33.4959 29.575 33.3884 29.6467 33.2978 29.7373C33.2073 29.8278 33.1355 29.9354 33.0868 30.0538C33.038 30.1722 33.0132 30.2991 33.0137 30.4272V34.1947C33.0137 34.453 33.1163 34.7008 33.299 34.8834C33.4816 35.0661 33.7294 35.1687 33.9877 35.1687C34.246 35.1687 34.4938 35.0661 34.6764 34.8834C34.8591 34.7008 34.9617 34.453 34.9617 34.1947V30.4272C34.9622 30.2991 34.9374 30.1722 34.8886 30.0538C34.8399 29.9354 34.7681 29.8278 34.6776 29.7373C34.587 29.6467 34.4795 29.575 34.3611 29.5262C34.2427 29.4775 34.1158 29.4526 33.9877 29.4531Z" fill="#100A55"/>
<path d="M33.9877 36.9883C33.7294 36.9883 33.4816 37.0909 33.299 37.2736C33.1163 37.4562 33.0137 37.704 33.0137 37.9623V40.4948C33.0137 40.7531 33.1163 41.0009 33.299 41.1835C33.4816 41.3662 33.7294 41.4688 33.9877 41.4688C34.246 41.4688 34.4938 41.3662 34.6764 41.1835C34.8591 41.0009 34.9617 40.7531 34.9617 40.4948V37.9623C34.9617 37.704 34.8591 37.4562 34.6764 37.2736C34.4938 37.0909 34.246 36.9883 33.9877 36.9883Z" fill="#100A55"/>
</svg>
