<svg width="64" height="64" viewBox="0 0 64 64" fill="none" xmlns="http://www.w3.org/2000/svg">
<circle cx="32" cy="32" r="31.5" fill="white" stroke="#E0DEF7"/>
<circle cx="32" cy="32" r="28" fill="#E0DEF7"/>
<path d="M41.8957 38.0406C41.8903 38.0243 41.8805 38.0091 41.8751 37.9918C41.849 37.9071 41.81 37.8289 41.7774 37.7486C41.7426 37.6563 41.7036 37.5651 41.6601 37.4772C41.6167 37.3968 41.5602 37.3241 41.5092 37.2481C41.4582 37.1721 41.4169 37.0961 41.3594 37.0277H41.3583C41.2595 36.9104 41.152 36.8019 41.0358 36.702C41.0174 36.6857 41.0022 36.6661 40.9826 36.6499C40.7199 36.4338 40.4214 36.2666 40.1 36.157C40.0739 36.1472 40.0511 36.1352 40.0251 36.1266C39.999 36.1179 39.9773 36.1048 39.9523 36.0972L39.9512 36.0962C39.9187 36.0918 39.8861 36.0896 39.8535 36.0886C39.3693 35.9615 38.859 35.967 38.377 36.1038C38.1892 36.1591 38.0079 36.233 37.8352 36.3242C37.8189 36.3318 37.8027 36.3307 37.7875 36.3394H37.7885C36.781 36.8952 36.2089 38.0026 36.3359 39.146C36.464 40.2892 37.2674 41.2424 38.3726 41.5627C38.3987 41.5703 38.4247 41.5725 38.4519 41.579C38.4638 41.579 38.4768 41.5844 38.4899 41.5877C38.7092 41.6431 38.935 41.6724 39.1608 41.6745C39.1956 41.6745 39.2314 41.6669 39.2672 41.6648V41.6659C39.3736 41.6637 39.48 41.655 39.5853 41.6398C39.6429 41.6311 39.6972 41.6159 39.7536 41.604C39.8101 41.592 39.8893 41.5801 39.9577 41.5605C39.9729 41.5605 39.986 41.5475 40.0012 41.5432V41.5421C40.1336 41.5008 40.2617 41.4498 40.3855 41.389C40.4648 41.351 40.5407 41.3076 40.6157 41.2631C40.7069 41.2109 40.7959 41.1534 40.8817 41.0915C40.9479 41.0416 41.0076 40.984 41.0673 40.9287C41.127 40.8733 41.1943 40.8114 41.253 40.743C41.3116 40.6757 41.3572 40.6225 41.4082 40.5574C41.4582 40.4922 41.519 40.4043 41.5689 40.3239C41.595 40.2816 41.6286 40.2458 41.6514 40.2023C41.6601 40.1871 41.659 40.1719 41.6666 40.1567H41.6655C41.7589 39.9852 41.8349 39.8028 41.8924 39.615C42.0325 39.1221 42.0347 38.5988 41.8989 38.1037C41.8968 38.0852 41.9022 38.0634 41.8957 38.0406ZM40.0946 37.716C40.1087 37.7279 40.1195 37.7421 40.1336 37.754V37.7551C40.1879 37.8018 40.2379 37.8539 40.2845 37.9082C40.3182 37.9527 40.3497 37.9983 40.3779 38.0471C40.3975 38.0775 40.4192 38.1047 40.4376 38.1394H40.4365C40.4648 38.1948 40.4887 38.2512 40.5104 38.3088C40.5223 38.3392 40.5375 38.3685 40.5473 38.4011C40.7177 38.9656 40.5353 39.578 40.0837 39.9558C40.0674 39.9677 40.05 39.9775 40.0359 39.9895C39.8991 40.0937 39.7449 40.1729 39.581 40.224C39.543 40.2348 39.5039 40.2402 39.4659 40.2489C39.4127 40.262 39.3595 40.2728 39.3052 40.2793H39.201H39.2021C39.1402 40.2837 39.0783 40.2837 39.0165 40.2793C38.9958 40.2793 38.9752 40.2706 38.9557 40.2685C38.8818 40.2587 38.808 40.2424 38.7363 40.2218C38.6147 40.1784 38.4986 40.1187 38.3922 40.0437C38.1023 39.8527 37.8841 39.5693 37.7733 39.2403C37.6908 38.9504 37.6995 38.641 37.8015 38.3566C37.8439 38.2393 37.9014 38.1286 37.972 38.0254C38.0089 37.9712 38.048 37.919 38.0914 37.8702C38.2749 37.6715 38.5062 37.5249 38.7624 37.4424C39.2249 37.3078 39.7243 37.4098 40.0946 37.7171L40.0946 37.716Z" fill="#100A55"/>
<path d="M44.9855 37.9906C45.3091 37.7919 45.5403 37.4738 45.6283 37.1058C45.7162 36.7366 45.6543 36.349 45.4556 36.0255L44.5078 34.4893C44.4003 34.3166 44.2559 34.1701 44.0866 34.0582V22.7345C44.0844 21.5685 43.6208 20.4502 42.7979 19.6261C41.9738 18.8009 40.8566 18.3363 39.6905 18.333H26.2561C25.0901 18.3341 23.9707 18.7988 23.1457 19.6239C22.3207 20.449 21.857 21.5673 21.8549 22.7343V28.9348V28.9337C20.8875 29.0488 19.9962 29.5124 19.348 30.2387C18.6999 30.9661 18.3394 31.9042 18.334 32.878V41.2628C18.3362 42.43 18.7998 43.5493 19.6249 44.3743C20.45 45.1984 21.5693 45.6631 22.7364 45.6641H39.8112C40.7384 45.662 41.4908 44.9107 41.4918 43.9824C41.494 43.7837 41.6026 43.6013 41.7752 43.5047C41.9489 43.407 42.1606 43.4102 42.3322 43.5112L42.5482 43.6447H42.5471C43.2192 44.0562 44.0975 43.8467 44.5111 43.1757L45.4568 41.634C45.8639 40.962 45.6544 40.088 44.9867 39.6743C44.6935 39.4898 44.5187 39.1663 44.5241 38.8199C44.5241 38.4823 44.6989 38.1686 44.9855 37.9906ZM19.7235 41.2628V32.8791C19.7279 31.6273 20.6203 30.5557 21.8504 30.3244V40.5222C21.8504 40.9055 22.1609 41.2171 22.5452 41.2171C22.9285 41.2171 23.2401 40.9055 23.2401 40.5222V32.0201C23.2401 32.0125 23.2444 32.006 23.2444 31.9984V22.7342C23.2466 21.0709 24.5939 19.7247 26.2561 19.7225H39.6905C41.3517 19.7257 42.6967 21.072 42.6989 22.7342V33.944C42.6468 33.9657 42.5958 33.9907 42.5458 34.0189L42.332 34.1502C42.1593 34.2545 41.9433 34.2545 41.7696 34.1502C41.5991 34.0558 41.4927 33.8767 41.4916 33.6812C41.4927 32.753 40.7414 31.9995 39.8132 31.9984H38.5157C38.0695 31.9995 37.6407 32.1786 37.3258 32.4957C37.011 32.8127 36.834 33.2426 36.8362 33.6888C36.8308 33.8864 36.7211 34.0656 36.5485 34.16C36.3769 34.2556 36.1663 34.2523 35.9969 34.1524L35.7809 34.02C35.1099 33.6085 34.2305 33.818 33.818 34.4901L32.8734 36.0285L32.8745 36.0274C32.6758 36.3499 32.6128 36.7386 32.7008 37.1066C32.7887 37.4747 33.0189 37.7939 33.3424 37.9915C33.6323 38.1738 33.8082 38.492 33.8082 38.8339C33.8082 39.1759 33.6323 39.494 33.3424 39.6764C33.0189 39.874 32.7887 40.1921 32.7008 40.5602C32.6128 40.9282 32.6747 41.3169 32.8734 41.6394L33.818 43.1778V43.1767C34.0166 43.5003 34.3369 43.7304 34.706 43.8173C35.0752 43.9041 35.4639 43.8412 35.7863 43.6403L35.998 43.5089H35.9969C36.1717 43.4047 36.39 43.4047 36.5648 43.5089C36.732 43.6034 36.8362 43.7804 36.8362 43.9714C36.8362 44.0713 36.8459 44.1701 36.8633 44.2689H22.7363C21.0752 44.2668 19.7291 42.9238 19.7235 41.2628ZM44.6217 40.2683L44.271 40.9099L43.2755 42.4614L43.0583 42.3278C42.459 41.9619 41.7088 41.9489 41.0965 42.292C40.4831 42.6351 40.1031 43.2821 40.102 43.9846C40.1009 44.1442 39.9706 44.2745 39.811 44.2745H38.5136C38.4365 44.2745 38.3627 44.243 38.3073 44.1887C38.252 44.1312 38.2216 44.053 38.2237 43.9716C38.2172 43.2724 37.834 42.6297 37.2216 42.2898C36.6093 41.95 35.8623 41.9652 35.2641 42.33L35.0003 42.4494L34.0666 40.8599C34.7712 40.4224 35.1979 39.6516 35.1946 38.8221C35.1816 37.9861 34.7538 37.212 34.0546 36.7539L35.0513 35.2035L35.2673 35.337C35.8666 35.7008 36.6158 35.7138 37.2281 35.3707C37.8404 35.0276 38.2204 34.3816 38.2226 33.6803C38.2237 33.5196 38.3551 33.3893 38.5157 33.3904H39.8132H39.8121C39.8892 33.3904 39.9641 33.4208 40.0183 33.4762C40.0726 33.5304 40.103 33.6043 40.1019 33.6824C40.1063 34.3838 40.4863 35.0287 41.0997 35.3707C41.712 35.7138 42.4611 35.6986 43.0605 35.3338L43.3264 35.2144L44.258 36.8038C43.5577 37.2403 43.1321 38.0068 43.1321 38.8319C43.1321 39.657 43.5577 40.4235 44.258 40.8589L44.6217 40.2683Z" fill="#100A55"/>
<path d="M25.8452 32.3243H34.5808C34.9651 32.3243 35.2757 32.0127 35.2757 31.6294C35.2757 31.2451 34.9651 30.9346 34.5808 30.9346H25.8452C25.462 30.9346 25.1504 31.2451 25.1504 31.6294C25.1504 32.0127 25.462 32.3243 25.8452 32.3243Z" fill="#100A55"/>
<path d="M30.5179 34.9297H25.8452C25.462 34.9297 25.1504 35.2402 25.1504 35.6245C25.1504 36.0078 25.462 36.3194 25.8452 36.3194H30.5179C30.9012 36.3194 31.2128 36.0078 31.2128 35.6245C31.2128 35.2402 30.9012 34.9297 30.5179 34.9297Z" fill="#100A55"/>
<path d="M30.5179 38.9248H25.8452C25.462 38.9248 25.1504 39.2364 25.1504 39.6196C25.1504 40.004 25.462 40.3145 25.8452 40.3145H30.5179C30.9012 40.3145 31.2128 40.004 31.2128 39.6196C31.2128 39.2364 30.9012 38.9248 30.5179 38.9248Z" fill="#100A55"/>
<path d="M26.7724 28.3276H30.6538C31.5484 28.3265 32.2736 27.6013 32.2747 26.7067V24.1738C32.2736 23.2781 31.5484 22.5528 30.6538 22.5518H26.7724C25.8767 22.5539 25.1526 23.2792 25.1504 24.1738V26.7067C25.1526 27.6013 25.8767 28.3265 26.7724 28.3276ZM26.5412 24.1739H26.5401C26.5412 24.0457 26.6443 23.9426 26.7724 23.9415H30.6538C30.7157 23.9415 30.7743 23.9665 30.8177 24.0099C30.8612 24.0533 30.8851 24.112 30.8851 24.1739V26.7068C30.8851 26.8338 30.7819 26.938 30.6538 26.938H26.7724C26.6443 26.938 26.5412 26.8338 26.5401 26.7068L26.5412 24.1739Z" fill="#100A55"/>
<path d="M34.5816 24.2901H40.0925C40.4758 24.2901 40.7873 23.9796 40.7873 23.5952C40.7873 23.212 40.4758 22.9004 40.0925 22.9004H34.5816C34.1983 22.9004 33.8867 23.212 33.8867 23.5952C33.8867 23.9796 34.1983 24.2901 34.5816 24.2901Z" fill="#100A55"/>
<path d="M34.5816 27.9786H40.0925C40.4758 27.9786 40.7873 27.668 40.7873 27.2837C40.7873 26.9005 40.4758 26.5889 40.0925 26.5889H34.5816C34.1983 26.5889 33.8867 26.9005 33.8867 27.2837C33.8867 27.668 34.1983 27.9786 34.5816 27.9786Z" fill="#100A55"/>
</svg>
