<svg width="64" height="64" viewBox="0 0 64 64" fill="none" xmlns="http://www.w3.org/2000/svg">
<circle cx="32" cy="32" r="31.5" fill="white" stroke="#E0DEF7"/>
<circle cx="32" cy="32" r="28" fill="#E0DEF7"/>
<path d="M23.5539 45.7348C23.6376 45.8189 23.7375 45.8857 23.8476 45.9312C23.9577 45.9768 24.0759 46.0001 24.1953 46C24.4037 45.9986 24.605 45.9251 24.7642 45.7921L26.7826 44.14H35.7876C36.5766 44.1395 37.3569 43.9771 38.0792 43.6631C38.8015 43.3491 39.4501 42.8903 39.9839 42.3158C41.6907 40.47 44.5354 37.3915 46.2422 35.5063C46.7222 34.9692 46.9911 34.2793 46.9998 33.5624C47.0084 32.8456 46.7563 32.1495 46.2893 31.6012C45.8223 31.0529 45.1716 30.6888 44.4558 30.5754C43.74 30.462 43.0069 30.6068 42.3901 30.9835V28.3063H44.1295C44.3104 28.3049 44.4867 28.2503 44.636 28.1493C44.7853 28.0484 44.9008 27.9057 44.9677 27.7395C45.0346 27.5733 45.0499 27.3912 45.0116 27.2163C44.9733 27.0415 44.8832 26.882 44.7528 26.758L35.9145 18.5151C35.5617 18.1843 35.0942 18 34.6081 18C34.1221 18 33.6545 18.1843 33.3018 18.5151L24.4634 26.758C24.333 26.882 24.2429 27.0415 24.2046 27.2163C24.1663 27.3912 24.1816 27.5733 24.2485 27.7395C24.3154 27.9057 24.4309 28.0484 24.5802 28.1493C24.7295 28.2503 24.9059 28.3049 25.0867 28.3063H26.8261V33.4779C20.9339 32.9582 17.1978 38.3197 17.1543 38.3842C17.0369 38.5564 16.9838 38.7637 17.0043 38.9705C17.0248 39.1772 17.1176 39.3704 17.2667 39.5167L23.5539 45.7348ZM27.7321 26.5143H27.3697L34.5483 19.8053C34.5657 19.7897 34.5883 19.781 34.6117 19.781C34.6352 19.781 34.6578 19.7897 34.6752 19.8053L41.8538 26.5143H41.4914C41.2512 26.5143 41.0207 26.6087 40.8508 26.7768C40.6809 26.9448 40.5855 27.1727 40.5855 27.4103V32.4923C40.5799 32.5519 40.5799 32.6119 40.5855 32.6715L37.9909 35.2877C37.4615 34.8003 36.7646 34.53 36.0413 34.5315H30.5006C29.9023 34.2387 29.279 33.9988 28.638 33.8147V27.4103C28.638 27.1727 28.5426 26.9448 28.3727 26.7768C28.2028 26.6087 27.9723 26.5143 27.7321 26.5143ZM29.8737 36.2231C30.0008 36.2902 30.1428 36.3247 30.2868 36.3235H36.0522C36.2595 36.3235 36.4624 36.3836 36.6356 36.4963C36.8088 36.6091 36.9449 36.7695 37.027 36.9578L37.0596 37.0438C37.0961 37.15 37.1144 37.2614 37.1139 37.3736C37.1159 37.5128 37.0898 37.6511 37.0374 37.7803C36.9849 37.9096 36.9071 38.0273 36.8083 38.1266C36.7096 38.2259 36.5919 38.3049 36.4621 38.359C36.3324 38.413 36.193 38.4411 36.0522 38.4416H28.58C28.3397 38.4416 28.1093 38.5359 27.9394 38.704C27.7695 38.872 27.6741 39.0999 27.6741 39.3375C27.6741 39.5752 27.7695 39.8031 27.9394 39.9711C28.1093 40.1391 28.3397 40.2335 28.58 40.2335H36.0522C36.4316 40.233 36.8071 40.1584 37.1572 40.0138C37.5073 39.8693 37.825 39.6577 38.0921 39.3912C38.3592 39.1247 38.5703 38.8086 38.7134 38.4611C38.8565 38.1136 38.9287 37.7416 38.9258 37.3664C38.925 37.2262 38.9153 37.0861 38.8968 36.9471L43.1294 32.6751C43.3474 32.4557 43.6422 32.3274 43.9531 32.3167C44.2639 32.3061 44.567 32.4138 44.7999 32.6177C44.9213 32.7219 45.0201 32.8492 45.0905 32.9921C45.1609 33.135 45.2013 33.2904 45.2094 33.4492C45.2183 33.6081 45.1953 33.7671 45.1418 33.9172C45.0883 34.0672 45.0054 34.2054 44.8977 34.3237C43.1873 36.1873 40.3463 39.2623 38.6432 41.1044C38.2804 41.4962 37.8392 41.809 37.3476 42.0231C36.856 42.2372 36.3248 42.3478 35.7876 42.348H26.4637C26.253 42.3486 26.0492 42.4222 25.8876 42.5559L24.2533 43.8927L19.1075 38.7999C20.4157 37.266 24.362 33.4241 29.8737 36.2231ZM35.9978 29.8402C35.9978 29.2883 35.3564 28.8224 34.5954 28.8224C32.8198 28.8224 31.3775 27.5644 31.3775 26.0126C31.3775 24.7403 32.3523 23.6615 33.6895 23.3175V23.1813C33.6895 22.9437 33.7849 22.7158 33.9548 22.5478C34.1247 22.3797 34.3552 22.2853 34.5954 22.2853C34.8357 22.2853 35.0661 22.3797 35.236 22.5478C35.4059 22.7158 35.5014 22.9437 35.5014 23.1813V23.3175C36.8349 23.6759 37.8097 24.7511 37.8097 26.0126C37.8097 26.2502 37.7143 26.4781 37.5444 26.6461C37.3745 26.8142 37.144 26.9086 36.9038 26.9086C36.6635 26.9086 36.4331 26.8142 36.2632 26.6461C36.0933 26.4781 35.9978 26.2502 35.9978 26.0126C35.9978 25.4607 35.3564 24.9948 34.5954 24.9948C33.8344 24.9948 33.1894 25.4607 33.1894 26.0126C33.1894 26.5645 33.8308 27.0304 34.5954 27.0304C36.3819 27.0412 37.8097 28.3027 37.8097 29.8402C37.8097 31.1161 36.8349 32.1948 35.5014 32.5353V32.9188C35.5014 33.1564 35.4059 33.3843 35.236 33.5523C35.0661 33.7203 34.8357 33.8147 34.5954 33.8147C34.3552 33.8147 34.1247 33.7203 33.9548 33.5523C33.7849 33.3843 33.6895 33.1564 33.6895 32.9188V32.546C32.3523 32.2056 31.3775 31.1125 31.3775 29.8509C31.3775 29.6133 31.473 29.3854 31.6429 29.2174C31.8128 29.0494 32.0432 28.955 32.2835 28.955C32.5238 28.955 32.7542 29.0494 32.9241 29.2174C33.094 29.3854 33.1894 29.6133 33.1894 29.8509C33.1894 30.4064 33.8308 30.8724 34.5954 30.8724C35.36 30.8724 35.9978 30.4064 35.9978 29.8402Z" fill="#100A55"/>
</svg>
