<svg width="56" height="56" viewBox="0 0 56 56" fill="none" xmlns="http://www.w3.org/2000/svg">
<rect width="56" height="56" rx="28" fill="url(#paint0_linear_29240_5192)"/>
<path d="M21.4987 39.9163H17.1654C16.878 39.9163 16.6025 39.8022 16.3993 39.599C16.1962 39.3959 16.082 39.1203 16.082 38.833V30.1663C16.082 29.879 16.1962 29.6035 16.3993 29.4003C16.6025 29.1971 16.878 29.083 17.1654 29.083H21.4987C21.786 29.083 22.0616 29.1971 22.2647 29.4003C22.4679 29.6035 22.582 29.879 22.582 30.1663V38.833C22.582 39.1203 22.4679 39.3959 22.2647 39.599C22.0616 39.8022 21.786 39.9163 21.4987 39.9163Z" fill="white"/>
<path d="M30.1667 39.9163H25.8333C25.546 39.9163 25.2705 39.8022 25.0673 39.599C24.8641 39.3959 24.75 39.1203 24.75 38.833V17.1663C24.75 16.879 24.8641 16.6035 25.0673 16.4003C25.2705 16.1971 25.546 16.083 25.8333 16.083H30.1667C30.454 16.083 30.7295 16.1971 30.9327 16.4003C31.1359 16.6035 31.25 16.879 31.25 17.1663V38.833C31.25 39.1203 31.1359 39.3959 30.9327 39.599C30.7295 39.8022 30.454 39.9163 30.1667 39.9163Z" fill="white"/>
<path d="M38.8346 39.9167H34.5013C34.214 39.9167 33.9384 39.8025 33.7353 39.5994C33.5321 39.3962 33.418 39.1207 33.418 38.8333V25.8333C33.418 25.546 33.5321 25.2705 33.7353 25.0673C33.9384 24.8641 34.214 24.75 34.5013 24.75H38.8346C39.122 24.75 39.3975 24.8641 39.6007 25.0673C39.8038 25.2705 39.918 25.546 39.918 25.8333V38.8333C39.918 39.1207 39.8038 39.3962 39.6007 39.5994C39.3975 39.8025 39.122 39.9167 38.8346 39.9167Z" fill="white"/>
<defs>
<linearGradient id="paint0_linear_29240_5192" x1="28" y1="20.4549" x2="28" y2="56" gradientUnits="userSpaceOnUse">
<stop stop-color="#514B96"/>
<stop offset="1" stop-color="#423E76"/>
</linearGradient>
</defs>
</svg>
