<svg width="56" height="56" viewBox="0 0 56 56" fill="none" xmlns="http://www.w3.org/2000/svg">
<rect width="56" height="56" rx="28" fill="url(#paint0_linear_29240_5199)"/>
<path d="M25.05 29.75C23.7875 28.625 22.175 28.0375 20.5 28V31.75L15.5 26.75L20.5 21.75V25.5C22.5875 25.5 24.625 26.2125 26.2875 27.4875C25.7791 28.1851 25.3631 28.9456 25.05 29.75ZM35.5 31.75V28C34.875 28 29.875 28.2 29.3125 33.25C31.2625 33.9375 32.2875 36.0875 31.6 38.0375C31.2672 38.9748 30.5764 39.7419 29.679 40.1707C28.7816 40.5995 27.7508 40.655 26.8125 40.325C24.875 39.625 23.8375 37.4875 24.525 35.5375C24.875 34.4625 25.75 33.625 26.8125 33.25C26.9879 31.0896 27.9881 29.0796 29.6055 27.6367C31.223 26.1938 33.3337 25.4287 35.5 25.5V21.75L40.5 26.75L35.5 31.75ZM29.25 36.75C29.25 36.4185 29.1183 36.1005 28.8839 35.8661C28.6495 35.6317 28.3315 35.5 28 35.5C27.6685 35.5 27.3505 35.6317 27.1161 35.8661C26.8817 36.1005 26.75 36.4185 26.75 36.75C26.75 37.0815 26.8817 37.3995 27.1161 37.6339C27.3505 37.8683 27.6685 38 28 38C28.3315 38 28.6495 37.8683 28.8839 37.6339C29.1183 37.3995 29.25 37.0815 29.25 36.75ZM26.75 26.9C27.475 26.075 28.3125 25.3625 29.25 24.7875V19.25H33L28 14.25L23 19.25H26.75V26.9Z" fill="white"/>
<defs>
<linearGradient id="paint0_linear_29240_5199" x1="28" y1="20.4549" x2="28" y2="56" gradientUnits="userSpaceOnUse">
<stop stop-color="#514B96"/>
<stop offset="1" stop-color="#423E76"/>
</linearGradient>
</defs>
</svg>
