<svg width="56" height="56" viewBox="0 0 56 56" fill="none" xmlns="http://www.w3.org/2000/svg">
<rect width="56" height="56" rx="28" fill="url(#paint0_linear_29240_5185)"/>
<g clip-path="url(#clip0_29240_5185)">
<path fill-rule="evenodd" clip-rule="evenodd" d="M28.0248 16.75C25.2017 16.75 22.6298 17.6825 21.1079 18.4444C20.9704 18.5131 20.8421 18.5802 20.7229 18.6456C20.4867 18.7744 20.2854 18.8944 20.1254 19L21.8567 21.5488L22.6717 21.8731C25.8567 23.48 30.1279 23.48 33.3136 21.8731L34.2386 21.3931L35.8754 19C35.536 18.7794 35.1835 18.5797 34.8198 18.4019C33.3054 17.6481 30.7948 16.75 28.0254 16.75M23.9992 19.635C23.3863 19.5197 22.7808 19.3677 22.1861 19.18C23.6117 18.5469 25.7361 17.875 28.0254 17.875C29.6111 17.875 31.1104 18.1975 32.3504 18.6063C30.8973 18.8106 29.3467 19.1575 27.8692 19.5844C26.7067 19.9206 25.3479 19.8844 23.9992 19.635ZM33.9742 22.8L33.8204 22.8775C30.3167 24.645 25.6692 24.645 22.1654 22.8775L22.0198 22.8038C16.7554 28.5794 12.7367 39.2481 28.0248 39.2481C43.3129 39.2481 39.1967 28.3813 33.9742 22.8ZM27.3754 28C27.0439 28 26.726 28.1317 26.4916 28.3661C26.2571 28.6005 26.1254 28.9185 26.1254 29.25C26.1254 29.5815 26.2571 29.8995 26.4916 30.1339C26.726 30.3683 27.0439 30.5 27.3754 30.5V28ZM28.6254 26.75V26.125H27.3754V26.75C26.7124 26.75 26.0765 27.0134 25.6077 27.4822C25.1388 27.9511 24.8754 28.587 24.8754 29.25C24.8754 29.913 25.1388 30.5489 25.6077 31.0178C26.0765 31.4866 26.7124 31.75 27.3754 31.75V34.25C26.8317 34.25 26.3686 33.9031 26.1961 33.4169C26.1705 33.3373 26.1292 33.2637 26.0747 33.2004C26.0201 33.1371 25.9534 33.0853 25.8785 33.0482C25.8037 33.0111 25.7221 32.9894 25.6387 32.9844C25.5553 32.9794 25.4717 32.9911 25.3929 33.019C25.3141 33.0468 25.2417 33.0902 25.1799 33.1465C25.1182 33.2028 25.0684 33.2709 25.0334 33.3468C24.9985 33.4227 24.9791 33.5049 24.9764 33.5884C24.9738 33.6719 24.9879 33.7552 25.0179 33.8331C25.1903 34.3207 25.5095 34.7428 25.9317 35.0413C26.354 35.3398 26.8584 35.5001 27.3754 35.5V36.125H28.6254V35.5C29.2885 35.5 29.9244 35.2366 30.3932 34.7678C30.8621 34.2989 31.1254 33.663 31.1254 33C31.1254 32.337 30.8621 31.7011 30.3932 31.2322C29.9244 30.7634 29.2885 30.5 28.6254 30.5V28C29.1692 28 29.6323 28.3469 29.8048 28.8331C29.8304 28.9127 29.8717 28.9863 29.9262 29.0496C29.9808 29.1129 30.0475 29.1647 30.1223 29.2018C30.1972 29.2389 30.2788 29.2606 30.3622 29.2656C30.4456 29.2706 30.5292 29.2589 30.608 29.231C30.6868 29.2032 30.7592 29.1598 30.821 29.1035C30.8827 29.0472 30.9325 28.9791 30.9675 28.9032C31.0024 28.8273 31.0218 28.7451 31.0245 28.6616C31.0271 28.5781 31.013 28.4948 30.9829 28.4169C30.8106 27.9293 30.4914 27.5072 30.0692 27.2087C29.6469 26.9102 29.1425 26.7499 28.6254 26.75ZM28.6254 31.75V34.25C28.957 34.25 29.2749 34.1183 29.5093 33.8839C29.7438 33.6495 29.8754 33.3315 29.8754 33C29.8754 32.6685 29.7438 32.3505 29.5093 32.1161C29.2749 31.8817 28.957 31.75 28.6254 31.75Z" fill="white"/>
</g>
<defs>
<linearGradient id="paint0_linear_29240_5185" x1="28" y1="20.4549" x2="28" y2="56" gradientUnits="userSpaceOnUse">
<stop stop-color="#514B96"/>
<stop offset="1" stop-color="#423E76"/>
</linearGradient>
<clipPath id="clip0_29240_5185">
<rect width="30" height="30" fill="white" transform="translate(13 13)"/>
</clipPath>
</defs>
</svg>
