<svg width="761" height="439" viewBox="0 0 761 439" fill="none" xmlns="http://www.w3.org/2000/svg">
<g clip-path="url(#clip0_29240_5895)">
<g opacity="0.4">
<path d="M450.871 177.039C411.755 154.398 348.533 154.398 309.67 177.039C309.484 177.148 309.309 177.251 309.134 177.36C284.114 192.154 275.59 212.834 283.516 231.673C287.726 241.703 296.601 251.215 310.119 259.042C349.24 281.688 412.477 281.688 451.345 259.042C490.208 236.401 489.997 199.685 450.871 177.039Z" fill="#A9A2F6"/>
<path d="M469.085 166.425C419.918 137.965 340.185 137.965 291.333 166.425C290.023 167.191 288.743 167.961 287.51 168.748L290.007 169.746C291.122 169.037 292.272 168.344 293.459 167.656C341.135 139.879 418.989 139.879 466.98 167.656C514.981 195.439 515.239 240.648 467.558 268.425C419.867 296.208 342.017 296.208 294.016 268.425C276.411 258.235 265.22 245.696 260.483 232.532L257.465 232.641C262.274 246.224 273.764 259.156 291.911 269.656C341.088 298.122 420.831 298.116 469.689 269.656C518.541 241.196 518.273 194.896 469.095 166.43L469.085 166.425Z" fill="#A9A2F6"/>
<path d="M486.84 156.085C427.828 121.93 332.095 121.93 273.471 156.085C271.066 157.487 268.755 158.93 266.541 160.404L273.192 163.048C275.096 161.796 277.077 160.57 279.136 159.37C334.66 127.02 425.321 127.02 481.211 159.37C537.111 191.725 537.405 244.372 481.881 276.722C426.342 309.077 335.681 309.077 279.781 276.722C258.549 264.432 245.345 249.214 240.175 233.287L232.146 233.582C237.487 250.595 251.485 266.879 274.152 280.002C333.179 314.167 428.907 314.167 487.547 280.002C546.177 245.847 545.862 190.256 486.84 156.09V156.085Z" fill="#A9A2F6"/>
<path d="M523.159 134.923C443.984 89.0985 315.569 89.0985 236.904 134.923C158.229 180.758 158.647 255.328 237.822 301.158C271.144 320.447 313.18 331.614 356.557 334.666L356.14 324.709C317.261 321.678 279.693 311.503 249.783 294.19C177.247 252.209 176.866 183.888 248.941 141.896C321.002 99.9146 438.654 99.9146 511.189 141.896C558.183 169.099 574.901 207.341 561.259 242.324L577.341 245.696C593.063 207.206 574.963 164.914 523.154 134.928L523.159 134.923Z" fill="#A9A2F6"/>
<path d="M224.814 308.747C138.404 258.732 137.94 177.356 223.787 127.336C309.634 77.3211 449.782 77.3211 536.192 127.336C622.601 177.35 623.056 258.727 537.203 308.747C451.356 358.761 311.218 358.761 224.809 308.747H224.814ZM539.004 125.701C496.39 101.033 439.834 87.4492 379.765 87.4492C319.696 87.4492 263.295 101.038 220.954 125.701C178.614 150.37 155.406 183.164 155.607 218.044C155.803 252.928 179.378 285.723 221.992 310.392C264.606 335.06 321.166 348.638 381.236 348.638C441.295 348.638 497.701 335.055 540.041 310.392C582.382 285.723 605.585 252.928 605.394 218.049C605.198 183.164 581.618 150.37 539.004 125.706V125.701Z" fill="#A9A2F6"/>
<path d="M666.892 159.375L660.009 160.565C690.637 210.621 680.374 267.246 629.133 312.724L634.886 315.104C667.258 286.545 684.538 253.073 684.337 218.038C684.223 197.746 678.248 177.971 666.897 159.375H666.892ZM583.867 87.33C527.709 57.7733 455.695 41.6035 379.512 41.6035C298.355 41.6035 222.151 59.9562 164.956 93.2786C107.745 126.611 76.3943 170.92 76.6678 218.044C76.9258 265.172 108.782 309.481 166.354 342.803C223.936 376.131 300.341 394.484 381.498 394.478C430.092 394.484 476.901 387.904 518.927 375.464L515.423 371.853C404.242 404.529 264.502 393.889 171.281 339.933C55.1621 272.724 54.5481 163.363 169.919 96.1494C281.782 30.9788 462.232 28.9977 578.94 90.206L583.872 87.33H583.867Z" fill="#A9A2F6"/>
<path d="M626.26 74.8582C592.877 55.533 553.967 40.5685 510.657 30.3835C468.827 20.5451 424.655 15.5586 379.363 15.5586C334.071 15.5586 289.955 20.5451 248.234 30.3835C205.037 40.5737 166.298 55.5382 133.131 74.8633C99.9491 94.1936 74.3157 116.731 56.9068 141.85C40.0965 166.109 31.65 191.745 31.8048 218.043C31.9545 244.346 40.6795 269.982 57.7633 294.237C58.8726 295.814 60.0129 297.376 61.1842 298.928L67.9228 297.635C12.91 224.985 36.2112 137.085 138.09 77.729C270.88 0.366442 487.67 0.361264 621.332 77.729C755 155.097 755.707 280.984 622.916 358.347C540.284 406.489 425.129 424.681 317.715 412.903L316.007 416.948C337.517 419.327 359.446 420.533 381.633 420.522C426.92 420.522 471.04 415.536 512.767 405.697C555.969 395.507 594.688 380.543 627.87 361.212C661.036 341.887 686.69 319.35 704.094 294.231C720.899 269.966 729.34 244.336 729.191 218.033C729.052 191.735 720.316 166.099 703.232 141.839C685.555 116.726 659.653 94.1833 626.26 74.853V74.8582Z" fill="#A9A2F6"/>
<path d="M648.668 61.8032C612.235 40.7141 569.792 24.384 522.529 13.2731C496.168 7.07105 468.94 2.63807 441.114 0L441.614 1.32938C516.884 8.56595 589.166 28.998 647.259 62.6256C795.322 148.327 796.107 287.772 649.019 373.462C501.921 459.163 261.783 459.163 113.72 373.462C-34.3276 287.772 -35.1118 148.327 111.986 62.6256C129.632 52.3475 148.63 43.3005 168.64 35.4897L168.17 34.2224C147.599 42.2349 128.353 51.4475 110.572 61.8032C74.3668 82.8973 46.3702 107.488 27.3928 134.903C9.05525 161.377 -0.154825 189.351 -3.40916e-05 218.049C0.159917 246.742 9.69506 274.716 28.3319 301.19C47.6241 328.6 75.8838 353.196 112.316 374.279C148.759 395.374 191.203 411.699 238.471 422.82C284.124 433.553 332.321 438.995 381.741 439C431.155 439 479.295 433.553 524.83 422.82C571.964 411.704 614.232 395.374 650.438 374.279C686.633 353.19 714.619 328.594 733.602 301.19C751.939 274.716 761.16 246.737 761 218.049C760.835 189.351 751.31 161.377 732.668 134.909C713.376 107.493 685.116 82.9025 648.668 61.8083V61.8032Z" fill="#A9A2F6"/>
</g>
<g opacity="0.2">
<path d="M550.156 218.453C546.596 228.607 538.65 237.276 526.308 244.466C516.592 250.125 506.097 253.937 494.818 255.898C483.539 257.863 472.502 258.81 461.729 258.743C450.945 258.676 432.2 258.215 405.483 257.346C398.027 257.15 391.779 257.144 386.738 257.346C381.691 257.543 377.481 257.962 374.107 258.593C370.727 259.224 367.605 260.01 364.747 260.941C361.888 261.872 357.023 263.605 350.16 266.135C336.085 271.793 323.304 271.292 311.803 264.64C305.818 261.179 302.727 257.129 302.531 252.505C302.33 247.875 306.06 243.333 313.723 238.875C323.325 233.283 333.128 229.3 343.148 226.941C353.163 224.577 363.307 223.279 373.565 223.046C383.822 222.813 396.814 222.994 412.521 223.594C426.282 224.127 436.431 224.391 442.963 224.391C449.5 224.391 455.888 223.874 462.131 222.844C468.374 221.815 473.833 219.932 478.524 217.206C487.667 211.878 491.954 205.402 491.397 197.778C490.835 190.153 485.149 183.211 474.339 176.958C461.687 169.633 449.196 166.09 436.874 166.323C424.553 166.555 410.147 169.069 393.667 173.864C376.841 179.125 362.967 178.592 352.039 172.271C345.594 168.542 342.416 164.078 342.509 158.889C342.591 153.696 345.264 149.568 350.522 146.506C361.378 140.18 375.882 135.804 394.044 133.373C412.206 130.941 431.668 131.49 452.436 135.017C473.209 138.55 492.563 145.503 510.509 155.889C527.185 165.541 538.856 175.845 545.507 186.796C552.158 197.747 553.711 208.299 550.156 218.453Z" fill="#423E76"/>
</g>
<path d="M481.389 167.993C480.842 160.571 475.305 153.81 464.774 147.711C452.448 140.578 440.286 137.123 428.285 137.356C416.283 137.583 402.254 140.03 386.202 144.701C369.81 149.822 356.297 149.305 345.657 143.149C339.455 139.559 336.354 135.271 336.37 130.295L336.303 154.001C336.287 158.983 339.388 163.266 345.59 166.855C356.235 173.016 369.748 173.533 386.135 168.407C402.187 163.741 416.216 161.29 428.218 161.062C440.219 160.834 452.381 164.285 464.707 171.418C475.238 177.511 480.775 184.272 481.322 191.7C481.352 192.139 481.368 192.579 481.368 193.014L481.435 169.307C481.435 168.873 481.42 168.438 481.389 167.993Z" fill="#5245ED"/>
<path d="M540.426 177.744L540.359 201.451C540.348 204.958 539.745 208.418 538.553 211.832L538.62 188.126C539.812 184.712 540.415 181.251 540.426 177.744Z" fill="#D8D6F5"/>
<path d="M515.396 213.467C505.933 218.981 495.711 222.695 484.726 224.603C473.736 226.517 462.994 227.438 452.499 227.376C441.999 227.314 423.739 226.859 397.718 226.016C390.459 225.824 384.37 225.819 379.458 226.016C374.541 226.207 370.439 226.616 367.152 227.231C363.86 227.847 360.821 228.612 358.035 229.517C355.249 230.423 350.507 232.114 343.825 234.571C330.116 240.085 317.671 239.599 306.469 233.112C300.644 229.74 297.63 225.798 297.439 221.293C297.434 221.169 297.429 221.05 297.434 220.926L297.367 244.632C297.367 244.756 297.367 244.875 297.372 244.999C297.563 249.505 300.577 253.446 306.402 256.819C317.604 263.3 330.054 263.792 343.758 258.278C350.44 255.815 355.182 254.129 357.968 253.224C360.754 252.313 363.793 251.553 367.085 250.938C370.372 250.322 374.474 249.918 379.391 249.722C384.298 249.525 390.386 249.525 397.646 249.722C423.666 250.565 441.927 251.02 452.427 251.082C462.922 251.144 473.669 250.224 484.654 248.31C495.644 246.401 505.866 242.687 515.324 237.173C527.34 230.169 535.08 221.727 538.547 211.837L538.614 188.131C535.147 198.021 527.408 206.463 515.391 213.467H515.396Z" fill="#5245ED"/>
<path d="M538.619 188.131C535.152 198.021 527.412 206.463 515.396 213.466C505.933 218.981 495.711 222.695 484.726 224.603C473.736 226.517 462.994 227.438 452.499 227.376C441.999 227.314 423.738 226.859 397.718 226.015C390.458 225.824 384.37 225.819 379.458 226.015C374.541 226.207 370.439 226.615 367.152 227.231C363.86 227.847 360.821 228.612 358.035 229.517C355.249 230.423 350.507 232.114 343.825 234.571C330.116 240.085 317.67 239.599 306.469 233.112C300.643 229.74 297.63 225.798 297.439 221.293C297.243 216.787 300.876 212.365 308.337 208.015C317.686 202.568 327.236 198.688 336.999 196.392C346.756 194.09 356.631 192.828 366.621 192.6C376.615 192.372 389.267 192.548 404.565 193.138C417.965 193.655 427.851 193.914 434.218 193.914C440.585 193.914 446.808 193.412 452.891 192.409C458.969 191.405 464.294 189.574 468.855 186.915C477.761 181.727 481.935 175.416 481.393 167.993C480.846 160.571 475.31 153.81 464.779 147.711C452.452 140.578 440.291 137.123 428.289 137.356C416.288 137.583 402.259 140.03 386.207 144.701C369.814 149.822 356.301 149.305 345.662 143.149C339.388 139.518 336.287 135.173 336.379 130.114C336.462 125.055 339.063 121.036 344.186 118.051C354.758 111.891 368.886 107.628 386.573 105.259C404.261 102.89 423.217 103.428 443.449 106.863C463.68 110.303 482.533 117.079 500.009 127.191C516.252 136.595 527.619 146.63 534.099 157.296C540.58 167.962 542.087 178.241 538.63 188.131H538.619Z" fill="#A8A2F6"/>
<g opacity="0.2">
<path d="M300.742 268.344C308.332 272.736 312.145 277.934 312.176 283.929C312.212 289.924 308.456 295.123 300.918 299.515C292.533 304.398 283.246 306.668 273.035 306.317C262.829 305.965 254.166 303.735 247.061 299.618C239.708 295.366 235.658 290.271 234.905 284.343C234.151 278.415 238.021 272.979 246.524 268.023C254.063 263.632 263.056 261.469 273.504 261.537C283.958 261.604 293.034 263.875 300.748 268.339L300.742 268.344Z" fill="#423E76"/>
</g>
<path d="M231.742 280.257L231.809 256.551C231.809 257.006 231.835 257.461 231.897 257.922C232.599 263.436 236.365 268.169 243.202 272.126C249.811 275.948 257.866 278.028 267.354 278.354C276.848 278.679 285.486 276.569 293.282 272.027C300.294 267.941 303.782 263.11 303.751 257.534L303.684 281.24C303.715 286.816 300.227 291.647 293.215 295.734C285.419 300.275 276.781 302.381 267.287 302.06C257.794 301.734 249.744 299.66 243.135 295.832C236.298 291.875 232.532 287.142 231.83 281.628C231.773 281.168 231.742 280.712 231.742 280.257Z" fill="#5245ED"/>
<path d="M293.121 243.039C300.18 247.126 303.725 251.952 303.75 257.533C303.781 263.109 300.293 267.94 293.281 272.027C285.485 276.569 276.848 278.674 267.354 278.353C257.86 278.027 249.811 275.953 243.201 272.125C236.365 268.168 232.598 263.435 231.896 257.921C231.195 252.412 234.796 247.353 242.701 242.75C249.713 238.663 258.072 236.656 267.787 236.718C277.508 236.78 285.949 238.891 293.116 243.039H293.121Z" fill="#A8A2F6"/>
</g>
<defs>
<clipPath id="clip0_29240_5895">
<rect width="761" height="439" fill="white"/>
</clipPath>
</defs>
</svg>
