<svg width="41" height="40" viewBox="0 0 41 40" fill="none" xmlns="http://www.w3.org/2000/svg">
<path d="M7.82792 27.0928V37.304C7.82626 37.6877 7.51541 38 7.12976 38H3.60734C3.22168 38 2.91084 37.6877 2.90918 37.304V27.0928C2.91084 26.709 3.2217 26.3968 3.60734 26.3968H7.12976C7.51542 26.3968 7.82626 26.7091 7.82792 27.0928ZM31.3299 27.42C31.0224 27.42 27.0429 29.8569 26.6969 30.0247C24.604 31.4234 21.409 31.1144 19.0089 31.141L19.0072 31.1393C20.3071 31.1227 21.3511 30.0662 21.3511 28.7672C21.3511 27.4682 20.3071 26.41 19.0072 26.3934H14.3861C12.7554 26.2772 11.896 28.023 10.3949 28.2024V36.1675C12.147 36.008 12.9948 38.0628 14.7202 37.9383H21.5738C23.916 37.9416 26.1919 37.1559 28.0302 35.7057L33.3828 31.4863C34.2306 30.7936 34.4849 29.6059 33.9912 28.6275C33.4975 27.6507 32.3904 27.149 31.3282 27.4198L31.3299 27.42ZM34.6146 16.4017C34.6063 18.8685 33.6223 21.2321 31.8768 22.9765C30.1314 24.7224 27.7659 25.7058 25.2956 25.7141C12.9214 25.2523 12.9993 7.4996 25.2956 7.10241C27.7658 7.09909 30.1363 8.07752 31.8849 9.8217C33.632 11.5659 34.6146 13.9331 34.6146 16.4017ZM24.5776 14.3751C24.556 14.1757 24.6224 13.9764 24.7604 13.8302C24.9001 13.6841 25.0962 13.6076 25.2957 13.6193H27.337C28.0385 13.6076 28.6021 13.0362 28.6021 12.3352C28.6021 11.6342 28.0385 11.0644 27.337 11.0528H26.5923C26.6206 10.6691 26.4776 10.2937 26.2033 10.0246C25.9274 9.75545 25.5483 9.62089 25.1644 9.65744C24.782 9.69398 24.4346 9.89664 24.2152 10.2123C23.9958 10.5295 23.9259 10.9249 24.0257 11.297C22.5828 11.9166 21.7699 13.4581 22.0725 14.998C22.375 16.5379 23.7132 17.6575 25.2841 17.6841C25.4885 17.6675 25.6897 17.7423 25.8343 17.8884C25.9773 18.0346 26.0488 18.2373 26.0271 18.4416C26.0471 18.641 25.9756 18.8403 25.836 18.9831C25.6947 19.126 25.4969 19.2007 25.2957 19.1858H23.2677C22.5662 19.1958 22.0043 19.7672 22.0043 20.4682C22.0043 21.1692 22.5662 21.7406 23.2677 21.7506H24.0124C23.9825 22.136 24.1238 22.5164 24.3998 22.7871C24.674 23.0579 25.0564 23.1941 25.442 23.1576C25.8277 23.121 26.1768 22.9167 26.3962 22.5978C26.6156 22.2788 26.6821 21.8802 26.5791 21.5064C28.0219 20.8868 28.8365 19.3453 28.5323 17.8054C28.2297 16.2655 26.8915 15.1475 25.3223 15.1193C25.1195 15.1376 24.92 15.0645 24.7754 14.9216C24.6324 14.7771 24.5593 14.5778 24.5776 14.3751ZM36.6977 7.52124C27.0279 -4.48242 8.62613 4.87335 11.0382 18.5281C10.3998 18.2922 9.68835 18.5946 9.41906 19.2191C9.14977 19.8438 9.41906 20.5697 10.0291 20.8687L12.368 21.9767V21.9783C13.0097 22.2707 13.7677 22.0016 14.0785 21.3687L15.1873 19.0314V19.0298C15.415 18.5414 15.3103 17.9633 14.9263 17.5846C14.5423 17.2075 13.9622 17.1112 13.4751 17.3454C13.2257 14.0696 14.3462 10.8369 16.5703 8.41504C18.7928 5.99475 21.9195 4.60272 25.2077 4.57112C28.4958 4.5379 31.6493 5.86849 33.9201 8.24558C34.4636 8.74062 34.8526 9.63429 35.6904 9.59776V9.59942C36.1791 9.59112 36.6213 9.31038 36.8341 8.8702C37.0469 8.42997 36.9937 7.9084 36.6961 7.52133L36.6977 7.52124ZM38.4581 15.4033C37.0517 15.3851 37.1581 16.8037 37.0816 17.817V17.8187C37.0002 18.5213 37.5055 19.1575 38.2087 19.2389C38.9135 19.3203 39.5502 18.817 39.6316 18.1127C39.7912 17.0695 39.9076 15.4465 38.4581 15.4033ZM37.9577 14.1658C38.3566 14.1624 38.734 13.9747 38.9767 13.6575C39.2194 13.3402 39.2992 12.9265 39.1961 12.5412C38.9567 11.5129 38.4664 9.96803 37.1066 10.4631C35.8216 10.9747 36.4034 12.2588 36.7226 13.2239L36.7209 13.2222C36.8738 13.7787 37.3809 14.1641 37.9577 14.1658Z" fill="url(#paint0_linear_29342_12359)"/>
<defs>
<linearGradient id="paint0_linear_29342_12359" x1="21.3158" y1="15.1496" x2="21.3158" y2="38" gradientUnits="userSpaceOnUse">
<stop stop-color="#514B96"/>
<stop offset="1" stop-color="#423E76"/>
</linearGradient>
</defs>
</svg>
