<svg width="40" height="40" viewBox="0 0 40 40" fill="none" xmlns="http://www.w3.org/2000/svg">
<path d="M32.4465 16.518C31.1678 16.518 29.9291 16.0747 28.9701 15.2686C27.9712 16.0344 26.7725 16.518 25.4538 16.518C24.1752 16.518 22.9365 16.0747 21.9775 15.2686C20.9785 16.0344 19.7798 16.518 18.4612 16.518C17.1426 16.518 15.9438 16.0747 14.9449 15.2686C13.9859 16.0344 12.7472 16.518 11.4686 16.518C10.1499 16.518 8.95121 16.0747 7.95226 15.2686C6.99327 16.0344 5.75457 16.518 4.47592 16.518C4.15626 16.518 3.83659 16.4777 3.51693 16.4374C3.39706 16.4374 3.27718 16.3971 3.19727 16.3971V30.504C3.19727 31.8744 4.31609 33.0029 5.67466 33.0029H21.2982C21.0984 32.1968 20.9785 31.3504 20.9785 30.504C20.9785 24.9419 25.4538 20.3873 31.008 20.3873C31.927 20.3873 32.8061 20.5083 33.6452 20.7501V16.3568C33.3256 16.4374 32.886 16.518 32.4465 16.518ZM16.5033 25.3852H14.7851V29.4158C14.7851 29.7785 14.5054 30.0606 14.1457 30.0606H11.5884C11.2288 30.0606 10.9491 29.7785 10.9491 29.4158V25.3852H9.23091C8.71146 25.3852 8.43176 24.7806 8.75142 24.3776L12.3876 20.1455C12.6273 19.8634 13.0669 19.8634 13.3066 20.1455L16.9428 24.3776C17.2625 24.7806 17.0227 25.3852 16.5033 25.3852Z" fill="url(#paint0_linear_29346_4055)"/>
<path d="M35.0042 7.12642L30.489 1.92702C29.9695 1.32244 29.2103 1 28.4511 1H8.51209C7.71293 1 6.99369 1.32244 6.47424 1.92702L1.91903 7.12642C1.31966 7.81161 1 8.69833 1 9.62536V10.633C1 12.3258 2.35857 14.0993 3.99685 14.3008C5.83491 14.5426 7.43323 13.3738 7.87277 11.6809C7.91272 11.56 8.07256 11.56 8.11251 11.6809C8.51209 13.2125 9.87066 14.3411 11.5089 14.3411C13.1472 14.3411 14.5058 13.2125 14.9054 11.7212C14.9453 11.6003 15.1052 11.6003 15.1451 11.7212C15.5447 13.2528 16.9033 14.3411 18.5415 14.3411C20.1798 14.3411 21.5384 13.2125 21.938 11.6809C21.9779 11.56 22.1378 11.56 22.1777 11.6809C22.5773 13.2125 23.9359 14.3411 25.5741 14.3411C27.2124 14.3411 28.571 13.2125 28.9706 11.6809C29.0105 11.56 29.1703 11.56 29.2103 11.6809C29.6099 13.2125 30.9685 14.3411 32.6067 14.3411C34.5247 14.3411 36.0831 12.7692 36.0831 10.8345V9.62536C35.9632 8.69833 35.6036 7.81161 35.0042 7.12642Z" fill="url(#paint1_linear_29346_4055)"/>
<path d="M31.0485 22.4824C26.6931 22.4824 23.1768 26.0696 23.1768 30.4629C23.1768 34.8562 26.733 38.4434 31.0884 38.4434C35.4438 38.4434 39.0001 34.8562 39.0001 30.4629C38.9601 26.0696 35.4039 22.4824 31.0485 22.4824ZM30.6889 29.6165H31.4481C33.0064 29.6165 34.2451 30.9466 34.0853 32.5588C33.9654 33.7679 33.0464 34.6547 31.8876 34.8965V35.9847C31.8876 36.1056 31.8077 36.1863 31.6878 36.1863H30.4891C30.3692 36.1863 30.2493 36.1056 30.2493 35.9847V34.9368C29.0905 34.7353 28.1715 33.7679 28.0516 32.5588C28.0516 32.4379 28.1315 32.3169 28.2514 32.3169H29.4502C29.57 32.3169 29.6499 32.3975 29.6499 32.4782C29.7299 32.9618 30.1294 33.3246 30.6489 33.3246H31.3282C31.8476 33.3246 32.3271 32.9618 32.407 32.4782C32.5269 31.8333 32.0075 31.269 31.4081 31.269H30.7688C29.3702 31.269 28.1315 30.2614 28.0117 28.8507C27.8918 27.3997 28.8508 26.1905 30.2094 25.9487V24.9411C30.2094 24.8201 30.3292 24.6992 30.4491 24.6992H31.6478C31.7677 24.6992 31.8476 24.7798 31.8476 24.9411V25.989C33.0464 26.1905 33.9254 27.1578 34.0453 28.367C34.0453 28.4879 33.9654 28.6088 33.8455 28.6088H32.6468C32.5669 28.6088 32.447 28.5282 32.447 28.4476C32.3671 27.964 31.9275 27.6012 31.4481 27.6012H30.7688C30.2493 27.6012 29.8098 27.964 29.6899 28.4476C29.57 29.0925 30.0495 29.6165 30.6889 29.6165Z" fill="url(#paint2_linear_29346_4055)"/>
<defs>
<linearGradient id="paint0_linear_29346_4055" x1="18.4212" y1="21.7463" x2="18.4212" y2="33.0029" gradientUnits="userSpaceOnUse">
<stop stop-color="#514B96"/>
<stop offset="1" stop-color="#423E76"/>
</linearGradient>
<linearGradient id="paint1_linear_29346_4055" x1="18.5415" y1="5.87306" x2="18.5415" y2="14.3411" gradientUnits="userSpaceOnUse">
<stop stop-color="#514B96"/>
<stop offset="1" stop-color="#423E76"/>
</linearGradient>
<linearGradient id="paint2_linear_29346_4055" x1="31.0884" y1="28.3124" x2="31.0884" y2="38.4434" gradientUnits="userSpaceOnUse">
<stop stop-color="#514B96"/>
<stop offset="1" stop-color="#423E76"/>
</linearGradient>
</defs>
</svg>
