<svg width="40" height="40" viewBox="0 0 40 40" fill="none" xmlns="http://www.w3.org/2000/svg">
<path d="M18.8113 7.86193L19.323 7.64526C24.073 5.53193 28.7897 5.5836 31.8747 5.98526L32.558 6.08193L33.178 6.18693L33.733 6.29526L34.2163 6.40026C35.6563 6.73026 36.5563 7.96193 36.6563 9.28526L36.6663 9.53526V28.8436C36.6663 30.5553 35.0397 31.6786 33.5113 31.3269L33.0447 31.2236L32.503 31.1203L31.8947 31.0203C31.5535 30.9688 31.2112 30.9249 30.868 30.8886L30.113 30.8219C27.6413 30.6486 24.423 30.8236 21.188 32.1386L20.6763 32.3553C16.293 34.3053 11.9363 34.4119 8.86467 34.1003L8.12467 34.0169L7.44134 33.9169L6.82134 33.8119L6.53467 33.7586L5.78467 33.6003C4.34301 33.2703 3.44301 32.0386 3.34301 30.7153L3.33301 30.4653V11.1569C3.33301 9.44526 4.95967 8.32026 6.48801 8.6736L6.95467 8.77693L7.49634 8.88026L8.10467 8.98026C10.6647 9.3636 14.7247 9.5236 18.8113 7.86193ZM19.9997 13.3336C18.2316 13.3336 16.5359 14.036 15.2856 15.2862C14.0354 16.5365 13.333 18.2322 13.333 20.0003C13.333 21.7684 14.0354 23.4641 15.2856 24.7143C16.5359 25.9646 18.2316 26.6669 19.9997 26.6669C21.7678 26.6669 23.4635 25.9646 24.7137 24.7143C25.964 23.4641 26.6663 21.7684 26.6663 20.0003C26.6663 18.2322 25.964 16.5365 24.7137 15.2862C23.4635 14.036 21.7678 13.3336 19.9997 13.3336ZM19.9997 16.6669C20.8837 16.6669 21.7316 17.0181 22.3567 17.6432C22.9818 18.2684 23.333 19.1162 23.333 20.0003C23.333 20.8843 22.9818 21.7322 22.3567 22.3573C21.7316 22.9824 20.8837 23.3336 19.9997 23.3336C19.1156 23.3336 18.2678 22.9824 17.6427 22.3573C17.0175 21.7322 16.6663 20.8843 16.6663 20.0003C16.6663 19.1162 17.0175 18.2684 17.6427 17.6432C18.2678 17.0181 19.1156 16.6669 19.9997 16.6669Z" fill="url(#paint0_linear_29346_4019)"/>
<defs>
<linearGradient id="paint0_linear_29346_4019" x1="19.9997" y1="16.1646" x2="19.9997" y2="34.2335" gradientUnits="userSpaceOnUse">
<stop stop-color="#514B96"/>
<stop offset="1" stop-color="#423E76"/>
</linearGradient>
</defs>
</svg>
