<svg width="40" height="40" viewBox="0 0 40 40" fill="none" xmlns="http://www.w3.org/2000/svg">
<path fill-rule="evenodd" clip-rule="evenodd" d="M28.7237 7.88417C26.3033 6.14213 23.4168 5.16481 20.4359 5.07815C17.4551 4.99148 14.5166 5.79945 11.9991 7.39793C9.48162 8.99641 7.50049 11.3122 6.31101 14.0468C5.12154 16.7814 4.77822 19.8095 5.32531 22.741C5.41544 23.2677 5.29495 23.8086 4.98983 24.2473C4.68471 24.6859 4.21941 24.9871 3.69428 25.0857C3.16914 25.1844 2.62626 25.0728 2.18272 24.7748C1.73918 24.4769 1.43052 24.0165 1.32331 23.4931C0.615776 19.7065 1.07573 15.7944 2.64218 12.2752C4.20864 8.75601 6.80764 5.796 10.0946 3.78751C13.3817 1.77903 17.2014 0.816936 21.0477 1.02876C24.8939 1.24059 28.585 2.61633 31.6315 4.97362L33.2932 3.312C33.4829 3.12182 33.7247 2.99219 33.9881 2.93953C34.2515 2.88686 34.5246 2.91352 34.7729 3.01613C35.0211 3.11874 35.2333 3.29269 35.3827 3.51597C35.532 3.73924 35.6118 4.0018 35.6118 4.27042V10.4961C35.6118 10.8561 35.4688 11.2014 35.2142 11.456C34.9596 11.7106 34.6143 11.8536 34.2543 11.8536H28.0287C27.7606 11.853 27.4987 11.7731 27.276 11.6238C27.0533 11.4746 26.8798 11.2628 26.7773 11.0152C26.6748 10.7675 26.6479 10.495 26.7 10.232C26.7522 9.9691 26.881 9.72748 27.0702 9.53764L28.7237 7.88417ZM36.3014 14.8809C36.8321 14.7808 37.3809 14.8956 37.8269 15.2001C38.2729 15.5046 38.5797 15.9738 38.6798 16.5045C39.388 20.2915 38.9283 24.2043 37.3618 27.724C35.7953 31.2438 33.1959 34.2042 29.9083 36.2129C26.6208 38.2215 22.8003 39.1834 18.9535 38.9711C15.1068 38.7588 11.4154 37.3822 8.36889 35.0239L6.70727 36.6883C6.51741 36.8786 6.27531 37.0083 6.01165 37.0609C5.74799 37.1134 5.47466 37.0866 5.22631 36.9836C4.97795 36.8807 4.76576 36.7063 4.61662 36.4826C4.46749 36.2589 4.38813 35.996 4.38861 35.7271V29.5015C4.38861 29.1414 4.53164 28.7962 4.78622 28.5416C5.04081 28.287 5.3861 28.144 5.74614 28.144H11.9718C12.2406 28.1435 12.5036 28.2228 12.7273 28.372C12.9509 28.5211 13.1253 28.7333 13.2283 28.9817C13.3312 29.23 13.3581 29.5033 13.3055 29.767C13.2529 30.0307 13.1233 30.2728 12.9329 30.4626L11.2767 32.1161C13.6971 33.8581 16.5837 34.8354 19.5645 34.9221C22.5454 35.0088 25.4838 34.2008 28.0013 32.6023C30.5188 31.0038 32.4999 28.6881 33.6894 25.9535C34.8789 23.2189 35.2222 20.1908 34.6751 17.2593C34.6256 16.9961 34.6285 16.7258 34.6836 16.4637C34.7388 16.2017 34.845 15.9531 34.9963 15.7322C35.1476 15.5113 35.341 15.3224 35.5655 15.1763C35.7899 15.0302 36.0409 14.9298 36.3042 14.8809H36.3014ZM21.7026 10.9223C21.7026 10.3823 21.488 9.86432 21.1061 9.48244C20.7243 9.10056 20.2063 8.88602 19.6663 8.88602C19.1262 8.88602 18.6083 9.10056 18.2264 9.48244C17.8445 9.86432 17.63 10.3823 17.63 10.9223V11.8536C16.5685 12.0292 15.6014 12.5693 14.8951 13.3809C14.1888 14.1925 13.7875 15.2249 13.7602 16.3005C13.7329 17.3761 14.0813 18.4275 14.7454 19.274C15.4096 20.1204 16.348 20.7089 17.3992 20.9382L20.8202 21.6848C21.023 21.7363 21.2005 21.8592 21.32 22.0311C21.4394 22.2029 21.4928 22.4121 21.4704 22.6202C21.4479 22.8283 21.3511 23.0213 21.1977 23.1637C21.0443 23.3061 20.8447 23.3883 20.6355 23.3953H18.697C18.5185 23.3946 18.3446 23.339 18.1989 23.236C18.0532 23.1331 17.9427 22.9877 17.8825 22.8197C17.7933 22.5675 17.6554 22.3352 17.4765 22.1363C17.2976 21.9373 17.0813 21.7756 16.8399 21.6602C16.5985 21.5449 16.3367 21.4782 16.0696 21.464C15.8024 21.4499 15.5351 21.4884 15.2828 21.5776C15.0305 21.6667 14.7983 21.8047 14.5994 21.9836C14.4004 22.1624 14.2387 22.3788 14.1233 22.6202C14.008 22.8616 13.9413 23.1233 13.9271 23.3905C13.9129 23.6577 13.9515 23.925 14.0407 24.1772C14.32 24.9675 14.7958 25.6736 15.4232 26.2293C16.0506 26.785 16.8091 27.172 17.6273 27.3539V28.3367C17.6273 28.8768 17.8418 29.3947 18.2237 29.7766C18.6055 30.1585 19.1235 30.373 19.6635 30.373C20.2036 30.373 20.7215 30.1585 21.1034 29.7766C21.4853 29.3947 21.6998 28.8768 21.6998 28.3367V27.3539C22.7966 27.1081 23.7768 26.4957 24.4787 25.6179C25.1805 24.74 25.5622 23.6491 25.5606 22.5251C25.559 21.4012 25.1743 20.3113 24.47 19.4355C23.7656 18.5596 22.7837 17.95 21.6863 17.7073L18.2653 16.9579C18.1326 16.928 18.0155 16.8502 17.9364 16.7395C17.8573 16.6287 17.8218 16.4928 17.8365 16.3575C17.8513 16.2222 17.9154 16.0971 18.0165 16.006C18.1176 15.915 18.2487 15.8643 18.3848 15.8637H20.6328C20.8113 15.8644 20.9852 15.92 21.1309 16.023C21.2766 16.126 21.3871 16.2713 21.4473 16.4393C21.6274 16.9488 22.0024 17.3659 22.4899 17.5988C22.7313 17.7141 22.9931 17.7808 23.2603 17.795C23.5274 17.8092 23.7948 17.7706 24.047 17.6815C24.2993 17.5923 24.5315 17.4544 24.7304 17.2755C24.9294 17.0966 25.0912 16.8803 25.2065 16.6389C25.3218 16.3975 25.3885 16.1357 25.4027 15.8686C25.4169 15.6014 25.3783 15.3341 25.2892 15.0818C25.0096 14.2913 24.5334 13.5849 23.9054 13.0291C23.2775 12.4734 22.5185 12.0866 21.6998 11.9052V10.9277L21.7026 10.9223Z" fill="url(#paint0_linear_29346_4071)"/>
<defs>
<linearGradient id="paint0_linear_29346_4071" x1="20.0018" y1="14.8801" x2="20.0018" y2="39" gradientUnits="userSpaceOnUse">
<stop stop-color="#514B96"/>
<stop offset="1" stop-color="#423E76"/>
</linearGradient>
</defs>
</svg>
