<svg width="40" height="40" viewBox="0 0 40 40" fill="none" xmlns="http://www.w3.org/2000/svg">
<path d="M38.9518 20.5995C38.9518 30.7437 30.6617 39 20.4759 39C10.2901 39 2 30.7437 2 20.5995C2 10.4553 10.2901 2.19907 20.4759 2.19907C22.1628 2.19907 23.8417 2.4311 25.4563 2.87906C25.3278 2.19106 25.6732 1.47102 26.3319 1.159C27.1352 0.775007 28.0992 1.11105 28.4768 1.90306L30.0191 5.10314C30.2038 5.48714 30.2279 5.92709 30.0913 6.3271C29.9468 6.72711 29.6495 7.05524 29.272 7.23923L26.0508 8.77521C25.8339 8.88723 25.5929 8.93518 25.36 8.93518C24.7575 8.93518 24.1871 8.59923 23.914 8.02324C23.5445 7.27117 23.8337 6.35913 24.5567 5.95112C23.2312 5.58314 21.8575 5.39915 20.4759 5.39915C12.0573 5.39915 5.2132 12.2153 5.2132 20.5995C5.2132 28.9837 12.0573 35.7999 20.4759 35.7999C28.8944 35.7999 35.7386 28.9837 35.7386 20.5995C35.7386 19.7194 36.4535 18.9995 37.3452 18.9995C38.2288 18.9995 38.9518 19.7194 38.9518 20.5995Z" fill="url(#paint0_linear_29346_4030)"/>
<path d="M32.0842 20.8221C32.0842 25.5342 28.9112 29.5023 24.5732 30.7183C28.2203 28.8943 30.6784 25.1341 30.6784 20.8221C30.6784 16.5099 28.2283 12.7499 24.5893 10.9258C28.9192 12.1578 32.0842 16.1179 32.0842 20.8221Z" fill="url(#paint1_linear_29346_4030)"/>
<path d="M18.2528 17.8308C18.051 18.1023 17.9502 18.3864 17.9502 18.6831C17.9502 19.0414 18.0692 19.3218 18.3073 19.5246C18.5453 19.7272 18.8661 19.8683 19.2694 19.948L19.2693 17.3965C18.7933 17.4146 18.4544 17.5594 18.2528 17.8308Z" fill="url(#paint2_linear_29346_4030)"/>
<path d="M20.768 21.4563C20.5755 21.3188 20.2521 21.1885 19.7979 21.0654V23.921C20.4193 23.8921 20.8481 23.6658 21.0843 23.2423C21.2078 23.0252 21.2696 22.7737 21.2696 22.4877C21.2696 22.0354 21.1024 21.6916 20.768 21.4563Z" fill="url(#paint3_linear_29346_4030)"/>
<path d="M20.6394 10.5875C20.2779 10.5395 19.9084 10.5234 19.5308 10.5234C13.8194 10.5234 9.19238 15.1316 9.19238 20.8198C9.19238 26.5078 13.8194 31.116 19.5308 31.116C19.9084 31.116 20.2779 31.1 20.6394 31.052C25.8288 30.5079 29.8773 26.1318 29.8773 20.8198C29.8773 15.5075 25.8288 11.1315 20.6394 10.5875ZM19.5342 28.9302C15.0439 28.9302 11.3906 25.2918 11.3906 20.8198C11.3898 16.3478 15.0423 12.7094 19.5334 12.7086C24.0245 12.7086 27.6778 16.347 27.6778 20.819C27.6778 25.291 24.0245 28.9294 19.5342 28.9302Z" fill="url(#paint4_linear_29346_4030)"/>
<path d="M19.5339 13.5098C15.486 13.5105 12.1936 16.7903 12.1943 20.8209C12.1943 24.8515 15.4875 28.1312 19.5346 28.1312C23.5817 28.1304 26.8749 24.8507 26.8749 20.8201C26.8749 16.7895 23.5817 13.5098 19.5339 13.5098ZM14.5077 21.2209H13.8527C13.6307 21.2209 13.4511 21.042 13.4511 20.8209C13.4511 20.5998 13.6307 20.4209 13.8527 20.4209H14.5077C14.7297 20.4209 14.9094 20.5998 14.9094 20.8209C14.9094 21.042 14.7297 21.2209 14.5077 21.2209ZM21.3087 24.2758C20.9599 24.5001 20.4566 24.6485 19.7988 24.721L19.7989 25.7741H19.2811V24.721C18.2236 24.6522 17.5058 24.2795 17.1279 23.6027C16.9208 23.2372 16.8171 22.7432 16.8171 22.1207H17.7819C17.8111 22.6164 17.8892 22.9784 18.0164 23.2064C18.2416 23.6153 18.6596 23.8452 19.2701 23.8958V20.9371C18.485 20.7889 17.9055 20.5409 17.5311 20.1935C17.1569 19.8461 16.9696 19.3647 16.9696 18.7494C16.9696 18.1993 17.1722 17.7035 17.5774 17.262C17.9826 16.8204 18.5503 16.596 19.2809 16.5887V15.8668H19.7986V16.5779C20.5218 16.6286 21.0769 16.8411 21.4639 17.2157C21.851 17.5903 22.0536 18.0853 22.0718 18.7005H21.1179C21.0924 18.4254 21.0179 18.1884 20.8943 17.9894C20.6654 17.6237 20.3002 17.4319 19.7986 17.414L19.7988 20.0523C20.6418 20.2875 21.2142 20.5082 21.5158 20.7145C22.0064 21.0547 22.2517 21.5578 22.2518 22.2237C22.2518 23.1864 21.9375 23.8704 21.3087 24.2758ZM25.2166 21.2201H24.5607C24.3387 21.2201 24.1591 21.0412 24.1591 20.8201C24.1591 20.599 24.3387 20.4201 24.5607 20.4201H25.2166C25.4386 20.4201 25.6182 20.599 25.6182 20.8201C25.6182 21.0412 25.4386 21.2201 25.2166 21.2201Z" fill="url(#paint5_linear_29346_4030)"/>
<defs>
<linearGradient id="paint0_linear_29346_4030" x1="20.4759" y1="14.8801" x2="20.4759" y2="39" gradientUnits="userSpaceOnUse">
<stop stop-color="#514B96"/>
<stop offset="1" stop-color="#423E76"/>
</linearGradient>
<linearGradient id="paint1_linear_29346_4030" x1="28.3287" y1="18.1553" x2="28.3287" y2="30.7183" gradientUnits="userSpaceOnUse">
<stop stop-color="#514B96"/>
<stop offset="1" stop-color="#423E76"/>
</linearGradient>
<linearGradient id="paint2_linear_29346_4030" x1="18.6098" y1="18.3285" x2="18.6098" y2="19.948" gradientUnits="userSpaceOnUse">
<stop stop-color="#514B96"/>
<stop offset="1" stop-color="#423E76"/>
</linearGradient>
<linearGradient id="paint3_linear_29346_4030" x1="20.5337" y1="22.1085" x2="20.5337" y2="23.921" gradientUnits="userSpaceOnUse">
<stop stop-color="#514B96"/>
<stop offset="1" stop-color="#423E76"/>
</linearGradient>
<linearGradient id="paint4_linear_29346_4030" x1="19.5349" y1="18.0452" x2="19.5349" y2="31.116" gradientUnits="userSpaceOnUse">
<stop stop-color="#514B96"/>
<stop offset="1" stop-color="#423E76"/>
</linearGradient>
<linearGradient id="paint5_linear_29346_4030" x1="19.5346" y1="18.8505" x2="19.5346" y2="28.1312" gradientUnits="userSpaceOnUse">
<stop stop-color="#514B96"/>
<stop offset="1" stop-color="#423E76"/>
</linearGradient>
</defs>
</svg>
