<svg width="20" height="20" viewBox="0 0 20 20" fill="none" xmlns="http://www.w3.org/2000/svg">
<path fill-rule="evenodd" clip-rule="evenodd" d="M7.86767 4.53412C4.39858 5.52321 1.88277 8.85843 1.87649 12.7734C1.33751 13.2133 1 13.8985 1 14.6423C1 15.9127 1.98284 17.012 3.27965 17.012H16.7203C18.0172 17.012 19 15.9127 19 14.6423C19 13.8985 18.6625 13.2133 18.1235 12.7734C18.1174 8.85816 15.6015 5.52321 12.1323 4.53412C11.8122 3.65322 10.9992 3 9.99995 3C9.00074 3 8.18777 3.65322 7.86767 4.53412ZM9.35676 5.3697C9.35676 4.93287 9.68199 4.64848 10.0001 4.64848C10.3181 4.64848 10.6433 4.93284 10.6433 5.3697V12.2728H9.35674L9.35676 5.3697ZM16.7204 13.9213C17.0385 13.9213 17.3637 14.2056 17.3637 14.6425C17.3637 15.0793 17.0385 15.3637 16.7204 15.3637H3.2797C2.96165 15.3637 2.63642 15.0793 2.63642 14.6425C2.63642 14.2056 2.96165 13.9213 3.2797 13.9213H16.7204ZM3.53026 12.2728H7.7204V6.32372C5.42132 7.24275 3.7206 9.52072 3.53026 12.2728ZM12.2797 12.2728H16.4698C16.2796 9.52072 14.5788 7.24291 12.2797 6.32372V12.2728Z" fill="white"/>
</svg>
