<svg width="20" height="24" viewBox="0 0 20 24" fill="none" xmlns="http://www.w3.org/2000/svg">
<g clip-path="url(#clip0_29274_18664)">
<path fill-rule="evenodd" clip-rule="evenodd" d="M19.173 6.31575V22.1051C19.173 23.1517 18.3266 24 17.2831 24H2.79417C1.75025 24 0.904297 23.1517 0.904297 22.1051V1.89488C0.904297 0.84825 1.75025 0 2.79417 0H12.8732L19.173 6.31575Z" fill="#100A55"/>
<path fill-rule="evenodd" clip-rule="evenodd" d="M14.6598 14.2549C14.5539 14.2039 14.4174 14.1788 14.2504 14.1788C13.9529 14.1788 13.7407 14.2703 13.6144 14.4533C13.488 14.6367 13.425 14.9205 13.425 15.3049C13.425 15.6893 13.4898 15.9702 13.6196 16.1479C13.7493 16.3253 13.9708 16.4142 14.2843 16.4142C14.4197 16.4142 14.5438 16.395 14.6564 16.3564C14.7694 16.3182 14.8764 16.233 14.9778 16.1022L15.6377 16.5668C15.5024 16.7682 15.3242 16.9208 15.1031 17.0247C14.882 17.1285 14.6024 17.1807 14.2642 17.1807C13.6912 17.1807 13.2579 17.0243 12.9649 16.7108C12.6715 16.3977 12.525 15.9334 12.525 15.3184C12.525 14.7192 12.667 14.2523 12.9511 13.9174C13.2356 13.5829 13.6617 13.4153 14.2303 13.4153C14.5349 13.4153 14.8059 13.4652 15.0438 13.5645C15.282 13.6643 15.4628 13.818 15.587 14.0258L14.9375 14.4908C14.8585 14.3843 14.766 14.3059 14.6598 14.2549ZM10.2037 17.1807C9.06696 17.1807 8.49839 16.5555 8.49839 15.3049C8.49839 14.7034 8.63485 14.238 8.90776 13.9088C9.18067 13.5799 9.61278 13.4153 10.2037 13.4153C10.7902 13.4153 11.22 13.5799 11.493 13.9088C11.7659 14.238 11.9023 14.7034 11.9023 15.3049C11.9023 15.8974 11.7659 16.3583 11.493 16.6872C11.22 17.0164 10.7902 17.1807 10.2037 17.1807ZM10.8163 14.4484C10.6944 14.2684 10.4904 14.1788 10.2037 14.1788C9.91962 14.1788 9.71419 14.2707 9.58817 14.4552C9.46178 14.6393 9.3984 14.9228 9.3984 15.3049C9.3984 15.6848 9.46104 15.9645 9.58631 16.1445C9.71158 16.3242 9.91738 16.4142 10.2037 16.4142C10.4856 16.4142 10.6888 16.3253 10.8129 16.1479C10.9367 15.9702 10.999 15.6893 10.999 15.3049C10.999 14.9138 10.9382 14.628 10.8163 14.4484ZM6.89149 16.7295C6.72894 16.8675 6.55744 16.9774 6.37699 17.0588C6.19654 17.1402 5.99111 17.1807 5.76108 17.1807C5.31443 17.1807 4.97291 17.019 4.73617 16.6958C4.49905 16.3722 4.38086 15.9154 4.38086 15.3252C4.38086 14.7214 4.51098 14.2523 4.77159 13.9174C5.03219 13.5829 5.39794 13.4153 5.86957 13.4153C6.03622 13.4153 6.20772 13.4498 6.3837 13.5188C6.55968 13.5878 6.70508 13.6755 6.82028 13.7817V12.0244H7.69308V17.0757H6.89149V16.7295ZM6.82028 14.5043C6.72782 14.4207 6.61336 14.3464 6.47691 14.2819C6.34045 14.2178 6.20101 14.1855 6.05897 14.1855C5.82446 14.1855 5.63618 14.2868 5.49376 14.4889C5.35171 14.6914 5.28087 14.9655 5.28087 15.3117C5.28087 15.6533 5.33866 15.921 5.45498 16.1157C5.5713 16.3103 5.75101 16.4074 5.99484 16.4074C6.13912 16.4074 6.28602 16.374 6.43627 16.3073C6.58615 16.2405 6.71403 16.1584 6.82028 16.0613V14.5043Z" fill="white"/>
<path fill-rule="evenodd" clip-rule="evenodd" d="M19.1728 5.96212V6.74813H14.0229C12.9566 6.74813 12.4648 5.87813 12.4648 4.80525V0H13.2448L19.1728 5.96212Z" fill="#E0DEF7"/>
</g>
<defs>
<clipPath id="clip0_29274_18664">
<rect width="18.2687" height="24" fill="white" transform="translate(0.904297)"/>
</clipPath>
</defs>
</svg>
