<svg width="21" height="20" viewBox="0 0 21 20" fill="none" xmlns="http://www.w3.org/2000/svg">
<g clip-path="url(#clip0_29274_18644)">
<path d="M1.67871 5.3125C1.67871 4.56658 1.97503 3.85121 2.50247 3.32376C3.02992 2.79632 3.74529 2.5 4.49121 2.5H6.96871C7.25599 2.49998 7.54045 2.55654 7.80586 2.66646C8.07128 2.77638 8.31244 2.9375 8.51559 3.14063L9.80371 4.42813L7.63184 6.60063C7.45609 6.77626 7.2178 6.87495 6.96934 6.875H1.67871V5.3125ZM1.67871 8.125V14.6875C1.67871 15.4334 1.97503 16.1488 2.50247 16.6762C3.02992 17.2037 3.74529 17.5 4.49121 17.5H10.7512C9.99019 16.3613 9.67073 14.9841 9.85276 13.6267C10.0348 12.2693 10.7058 11.025 11.7399 10.127C12.7741 9.2291 14.1003 8.73931 15.4698 8.74952C16.8393 8.75973 18.1581 9.26925 19.1787 10.1825V7.5C19.1787 7.1306 19.1059 6.76483 18.9646 6.42356C18.8232 6.08229 18.616 5.77221 18.3547 5.51104C18.0935 5.24987 17.7834 5.04271 17.4421 4.90141C17.1008 4.7601 16.735 4.68742 16.3656 4.6875H11.3118L8.51496 7.48438C8.10485 7.89445 7.54867 8.12488 6.96871 8.125H1.67871ZM15.4287 19.0625C16.6719 19.0625 17.8642 18.5686 18.7433 17.6896C19.6224 16.8105 20.1162 15.6182 20.1162 14.375C20.1162 13.1318 19.6224 11.9395 18.7433 11.0604C17.8642 10.1814 16.6719 9.6875 15.4287 9.6875C14.1855 9.6875 12.9932 10.1814 12.1141 11.0604C11.2351 11.9395 10.7412 13.1318 10.7412 14.375C10.7412 15.6182 11.2351 16.8105 12.1141 17.6896C12.9932 18.5686 14.1855 19.0625 15.4287 19.0625ZM16.0537 11.4062V13.75H18.3975C18.5218 13.75 18.641 13.7994 18.7289 13.8873C18.8168 13.9752 18.8662 14.0944 18.8662 14.2188C18.8662 14.3431 18.8168 14.4623 18.7289 14.5502C18.641 14.6381 18.5218 14.6875 18.3975 14.6875H16.0537V17.0312C16.0537 17.1556 16.0043 17.2748 15.9164 17.3627C15.8285 17.4506 15.7093 17.5 15.585 17.5C15.4606 17.5 15.3414 17.4506 15.2535 17.3627C15.1656 17.2748 15.1162 17.1556 15.1162 17.0312V14.6875H12.7725C12.6481 14.6875 12.5289 14.6381 12.441 14.5502C12.3531 14.4623 12.3037 14.3431 12.3037 14.2188C12.3037 14.0944 12.3531 13.9752 12.441 13.8873C12.5289 13.7994 12.6481 13.75 12.7725 13.75H15.1162V11.4062C15.1162 11.2819 15.1656 11.1627 15.2535 11.0748C15.3414 10.9869 15.4606 10.9375 15.585 10.9375C15.7093 10.9375 15.8285 10.9869 15.9164 11.0748C16.0043 11.1627 16.0537 11.2819 16.0537 11.4062Z" fill="url(#paint0_linear_29274_18644)"/>
</g>
<defs>
<linearGradient id="paint0_linear_29274_18644" x1="10.8975" y1="8.54973" x2="10.8975" y2="19.0625" gradientUnits="userSpaceOnUse">
<stop stop-color="#514B96"/>
<stop offset="1" stop-color="#423E76"/>
</linearGradient>
<clipPath id="clip0_29274_18644">
<rect width="20" height="20" fill="white" transform="translate(0.428711)"/>
</clipPath>
</defs>
</svg>
