<svg width="21" height="20" viewBox="0 0 21 20" fill="none" xmlns="http://www.w3.org/2000/svg">
<path fill-rule="evenodd" clip-rule="evenodd" d="M4.67905 2.87566C4.67905 2.64342 4.58679 2.42069 4.42257 2.25647C4.25836 2.09226 4.03563 2 3.80339 2C3.57115 2 3.34843 2.09226 3.18421 2.25647C3.01999 2.42069 2.92773 2.64342 2.92773 2.87566V17.1243C2.92773 17.6077 3.32003 18 3.80339 18H18.0521C18.2843 18 18.507 17.9077 18.6713 17.7435C18.8355 17.5793 18.9277 17.3566 18.9277 17.1243C18.9277 16.8921 18.8355 16.6694 18.6713 16.5052C18.507 16.3409 18.2843 16.2487 18.0521 16.2487H4.67788L4.67905 2.87566ZM14.7748 4.6655C14.6474 4.57465 14.503 4.51033 14.3503 4.47638C14.1975 4.44242 14.0395 4.43951 13.8856 4.46783C13.7317 4.49615 13.5851 4.55511 13.4544 4.64121C13.3238 4.72732 13.2118 4.83881 13.125 4.96906L9.53135 10.3584L7.79872 8.6258C7.69024 8.51725 7.56145 8.43113 7.41969 8.37235C7.27793 8.31357 7.12598 8.28329 6.97251 8.28323C6.81905 8.28318 6.66708 8.31335 6.52528 8.37203C6.38347 8.43071 6.25462 8.51674 6.14606 8.62522C6.03751 8.7337 5.95139 8.86249 5.89261 9.00425C5.83383 9.14601 5.80355 9.29796 5.8035 9.45143C5.80344 9.60489 5.83362 9.75686 5.89229 9.89866C5.95097 10.0405 6.037 10.1693 6.14548 10.2779L8.8857 13.0169C9.00782 13.1393 9.15558 13.233 9.31832 13.2913C9.48106 13.3496 9.65471 13.371 9.82674 13.354C9.99877 13.3371 10.1649 13.2821 10.3131 13.1931C10.4613 13.1041 10.5879 12.9833 10.6837 12.8395L14.3977 7.26678L17.2535 9.30648C17.5055 9.48639 17.8187 9.5588 18.1242 9.50778C18.4296 9.45676 18.7023 9.2865 18.8822 9.03444C19.0621 8.78239 19.1345 8.46919 19.0835 8.16374C19.0325 7.8583 18.8622 7.58563 18.6102 7.40572L14.7748 4.6655Z" fill="white"/>
</svg>
