<svg width="20" height="24" viewBox="0 0 20 24" fill="none" xmlns="http://www.w3.org/2000/svg">
<path fill-rule="evenodd" clip-rule="evenodd" d="M19.2793 6.31575V22.1051C19.2793 23.1517 18.428 24 17.3784 24H2.80517C1.75517 24 0.904297 23.1517 0.904297 22.1051V1.89488C0.904297 0.84825 1.75517 0 2.80517 0H12.9429L19.2793 6.31575Z" fill="#E32B2B"/>
<path fill-rule="evenodd" clip-rule="evenodd" d="M19.2792 5.96212V6.74813H14.0994C13.0269 6.74813 12.5322 5.87813 12.5322 4.80525V0H13.3167L19.2792 5.96212Z" fill="#FB8D8D"/>
<path fill-rule="evenodd" clip-rule="evenodd" d="M15.0063 12.7678C14.8428 12.7138 14.6853 12.6864 14.5334 12.6864C14.3609 12.6864 14.2424 12.722 14.1776 12.7933C14.1131 12.8645 14.0808 12.9905 14.0808 13.1717V13.5178H14.8057V14.213H14.0808V17.0762H13.2026V14.213H12.7499V13.5178H13.2026V13.1717C13.2026 12.7307 13.3121 12.4119 13.5311 12.215C13.7501 12.0182 14.0793 11.9199 14.5196 11.9199C14.7262 11.9199 14.9452 11.948 15.1766 12.0047L15.0063 12.7678ZM11.3276 16.73C11.1641 16.868 10.9916 16.9779 10.8101 17.0593C10.6286 17.1407 10.4223 17.1812 10.1909 17.1812C9.74169 17.1812 9.39782 17.0195 9.15969 16.6963C8.92119 16.3727 8.80232 15.9159 8.80232 15.3257C8.80232 14.7219 8.9332 14.2528 9.19532 13.9179C9.45745 13.5834 9.82532 13.4158 10.2997 13.4158C10.4677 13.4158 10.6398 13.4503 10.8168 13.5193C10.9938 13.5883 11.1404 13.676 11.2559 13.7822V12.0249H12.1342V17.0762H11.3276V16.73ZM11.2559 14.5048C11.1629 14.4212 11.0478 14.3469 10.9106 14.2824C10.7733 14.2183 10.6331 14.186 10.4902 14.186C10.2543 14.186 10.0649 14.2873 9.92207 14.4894C9.77882 14.6919 9.70757 14.966 9.70757 15.3122C9.70757 15.6538 9.76607 15.9215 9.8827 16.1162C9.9997 16.3108 10.1804 16.4079 10.4257 16.4079C10.5708 16.4079 10.7189 16.3745 10.8697 16.3078C11.0204 16.241 11.1494 16.1589 11.2559 16.0618V14.5048ZM7.50219 16.9505C7.28657 17.1043 7.02932 17.1812 6.7297 17.1812C6.33482 17.1812 5.99807 17.0582 5.71907 16.8114V18.416H4.84082V13.5178H5.65082V13.8669C5.81432 13.7267 5.98607 13.6164 6.16645 13.5362C6.34682 13.4559 6.55382 13.4158 6.78745 13.4158C7.23895 13.4158 7.58282 13.574 7.81869 13.8909C8.05457 14.2074 8.17269 14.6675 8.17269 15.2713C8.17269 15.6538 8.11494 15.9905 7.99907 16.2823C7.8832 16.574 7.71782 16.7968 7.50219 16.9505ZM7.08707 14.4759C6.9667 14.2824 6.78745 14.186 6.54932 14.186C6.40645 14.186 6.25945 14.2194 6.1087 14.2858C5.95757 14.3525 5.82782 14.4347 5.71907 14.5318V16.0888C5.81207 16.1728 5.9272 16.2467 6.06445 16.3112C6.2017 16.3757 6.34269 16.4079 6.4882 16.4079C6.72857 16.4079 6.91869 16.3055 7.05819 16.1008C7.19769 15.896 7.26745 15.6242 7.26745 15.2852C7.26745 14.939 7.20707 14.6694 7.08707 14.4759Z" fill="white"/>
</svg>
