<svg width="41" height="40" viewBox="0 0 41 40" fill="none" xmlns="http://www.w3.org/2000/svg">
<path d="M4.24871 12.1641L20.7305 5.56158L37.2114 12.1641C37.4202 12.2482 37.6436 12.2903 37.8687 12.2879C38.0938 12.2855 38.3162 12.2387 38.5232 12.1501C38.7302 12.0616 38.9177 11.9331 39.0751 11.7719C39.2324 11.6107 39.3565 11.42 39.4402 11.2108C39.5239 11.0015 39.5656 10.7778 39.563 10.5524C39.5602 10.327 39.5132 10.1043 39.4245 9.89712C39.3358 9.68994 39.2072 9.5023 39.046 9.34494C38.8848 9.18757 38.6943 9.06357 38.4852 8.98002L21.3665 2.12304C20.9583 1.95899 20.5026 1.95899 20.0944 2.12304L2.97658 8.98002C2.55605 9.14973 2.2199 9.47954 2.04185 9.89711C1.8638 10.3147 1.8584 10.7859 2.02682 11.2075C2.19524 11.629 2.52374 11.9665 2.94027 12.1458C3.3568 12.3251 3.82734 12.3317 4.24871 12.1641Z" fill="url(#paint0_linear_29342_12368)"/>
<path d="M8.74765 38.0007H32.7126C34.0734 37.9966 35.3772 37.4535 36.3394 36.49C37.3016 35.5264 37.844 34.2206 37.848 32.8579V14.0012C37.4145 14.0011 36.9848 13.9197 36.5812 13.7612L20.7301 7.40137L4.87902 13.7612C4.47544 13.9197 4.0458 14.0011 3.6123 14.0012V32.8579C3.61631 34.2206 4.15864 35.5264 5.12084 36.49C6.08304 37.4535 7.38691 37.9966 8.74765 38.0007ZM20.7301 24.8224C19.568 24.8257 18.4429 24.4126 17.5584 23.6577C16.6739 22.9027 16.0883 21.8558 15.9073 20.7061C15.7264 19.5565 15.9622 18.3799 16.572 17.3892C17.1818 16.3984 18.1254 15.6588 19.2323 15.304V14.0012C19.2323 13.6034 19.3901 13.2219 19.671 12.9406C19.9519 12.6593 20.3329 12.5012 20.7301 12.5012C21.1274 12.5012 21.5084 12.6593 21.7892 12.9406C22.0701 13.2219 22.2279 13.6034 22.2279 14.0012V15.304C23.2081 15.6184 24.0637 16.2356 24.6719 17.0672C25.28 17.8987 25.6095 18.9018 25.6131 19.9325C25.6131 20.3303 25.4553 20.7118 25.1744 20.9931C24.8935 21.2744 24.5125 21.4325 24.1153 21.4325C23.718 21.4325 23.337 21.2744 23.0561 20.9931C22.7752 20.7118 22.6174 20.3303 22.6174 19.9325C22.6174 19.5588 22.5067 19.1935 22.2993 18.8828C22.0919 18.5721 21.7973 18.33 21.4525 18.187C21.1077 18.044 20.7284 18.0066 20.3624 18.0796C19.9964 18.1525 19.6602 18.3324 19.3963 18.5967C19.1325 18.8609 18.9528 19.1976 18.8799 19.5641C18.8071 19.9306 18.8444 20.3105 18.9872 20.6558C19.13 21.001 19.3717 21.2962 19.682 21.5038C19.9922 21.7115 20.357 21.8224 20.7301 21.8225C21.8924 21.8189 23.0177 22.2319 23.9023 22.9869C24.787 23.7418 25.3728 24.7888 25.5537 25.9386C25.7347 27.0884 25.4988 28.2651 24.8888 29.2559C24.2789 30.2467 23.335 30.9862 22.2279 31.3408V32.6436C22.2279 33.0414 22.0701 33.423 21.7892 33.7043C21.5084 33.9856 21.1274 34.1436 20.7301 34.1436C20.3329 34.1436 19.9519 33.9856 19.671 33.7043C19.3901 33.423 19.2323 33.0414 19.2323 32.6436V31.3408C18.2524 31.0261 17.3971 30.4088 16.7892 29.5773C16.1812 28.7458 15.8518 27.7429 15.8481 26.7123C15.8481 26.3145 16.0059 25.933 16.2868 25.6517C16.5677 25.3704 16.9487 25.2124 17.3459 25.2124C17.7432 25.2124 18.1242 25.3704 18.4051 25.6517C18.6859 25.933 18.8438 26.3145 18.8438 26.7123C18.8438 27.0861 18.9546 27.4514 19.162 27.7621C19.3694 28.0728 19.6641 28.315 20.0089 28.4579C20.3537 28.6009 20.7331 28.6382 21.0992 28.5652C21.4652 28.4922 21.8014 28.3122 22.0652 28.0479C22.329 27.7835 22.5087 27.4468 22.5814 27.0802C22.6541 26.7136 22.6166 26.3337 22.4737 25.9884C22.3308 25.6432 22.0889 25.3481 21.7785 25.1406C21.4682 24.933 21.1033 24.8223 20.7301 24.8224Z" fill="url(#paint1_linear_29342_12368)"/>
<defs>
<linearGradient id="paint0_linear_29342_12368" x1="20.7337" y1="5.75786" x2="20.7337" y2="12.288" gradientUnits="userSpaceOnUse">
<stop stop-color="#514B96"/>
<stop offset="1" stop-color="#423E76"/>
</linearGradient>
<linearGradient id="paint1_linear_29342_12368" x1="20.7301" y1="18.5783" x2="20.7301" y2="38.0007" gradientUnits="userSpaceOnUse">
<stop stop-color="#514B96"/>
<stop offset="1" stop-color="#423E76"/>
</linearGradient>
</defs>
</svg>
