<svg width="41" height="40" viewBox="0 0 41 40" fill="none" xmlns="http://www.w3.org/2000/svg">
<g clip-path="url(#clip0_29342_12379)">
<path d="M36.0451 18.0802C36.7535 18.5824 37.7536 18.5405 38.4203 17.9547C39.3371 17.1595 39.2954 15.6949 38.2953 14.9416L32.1697 10.5894V5.14908C32.1697 4.47951 31.628 3.93548 30.9612 3.93548H28.7943C28.1276 3.93548 27.5859 4.47951 27.5859 5.14908V7.2415L20.6685 2.2197C20.2935 1.92677 19.7934 1.92677 19.4184 2.2197L1.70821 14.9834C0.708109 15.6949 0.624767 17.1595 1.5832 17.9965C2.24994 18.5824 3.25004 18.6242 3.95845 18.1221L20.0018 6.48823L36.0451 18.0802Z" fill="url(#paint0_linear_29342_12379)"/>
<path d="M33.6698 22.7679V19.42L19.9601 9.50195L6.29199 19.4618V32.7278C6.29199 34.0251 7.33377 35.1131 8.66724 35.1131H26.044C25.5857 34.0251 25.3356 32.8533 25.3356 31.5979C25.3356 26.869 29.0443 23.019 33.6698 22.7679ZM15.918 17.9553C17.7515 17.9553 19.21 19.42 19.21 21.2195C19.21 23.019 17.7515 24.4836 15.918 24.4836C14.1261 24.4836 12.6677 23.019 12.6677 21.2195C12.626 19.42 14.0845 17.9553 15.918 17.9553ZM20.9602 32.1H10.8758C10.4174 32.1 10.0424 31.6816 10.0841 31.2212L10.3757 28.5011C10.5841 26.9108 11.6259 25.6554 13.0427 25.1114C13.8344 25.7391 14.8762 26.1157 15.9597 26.1157C17.0431 26.1157 18.0432 25.7391 18.8766 25.1114C20.2934 25.6554 21.3352 26.9108 21.5436 28.5011L21.8353 31.2212C21.7936 31.6816 21.4186 32.1 20.9602 32.1Z" fill="url(#paint1_linear_29342_12379)"/>
<path d="M34.1286 25.1943C30.5866 25.1943 27.7529 28.0819 27.7529 31.5971C27.7529 35.1542 30.6282 37.9999 34.1286 37.9999C37.6706 37.9999 40.5042 35.1124 40.5042 31.5971C40.5042 28.04 37.6289 25.1943 34.1286 25.1943ZM37.3789 30.5928L34.0036 34.3591C33.8369 34.5684 33.5869 34.6521 33.2952 34.6521C33.0451 34.6521 32.7951 34.5265 32.5868 34.3591L30.7116 32.2248C30.3782 31.8482 30.3782 31.2623 30.7949 30.8857C30.9616 30.7183 31.1699 30.6346 31.42 30.6346C31.67 30.6346 31.92 30.7602 32.1284 30.9276L33.3368 32.3085L36.0038 29.3373C36.1705 29.1281 36.4205 29.0444 36.7122 29.0444C36.9622 29.0444 37.1706 29.1281 37.3373 29.2955C37.5039 29.4629 37.6289 29.714 37.6289 29.965C37.6289 30.1743 37.5456 30.4254 37.3789 30.5928Z" fill="url(#paint2_linear_29342_12379)"/>
</g>
<defs>
<linearGradient id="paint0_linear_29342_12379" x1="19.9936" y1="8.01584" x2="19.9936" y2="18.4697" gradientUnits="userSpaceOnUse">
<stop stop-color="#514B96"/>
<stop offset="1" stop-color="#423E76"/>
</linearGradient>
<linearGradient id="paint1_linear_29342_12379" x1="19.9809" y1="18.8569" x2="19.9809" y2="35.1131" gradientUnits="userSpaceOnUse">
<stop stop-color="#514B96"/>
<stop offset="1" stop-color="#423E76"/>
</linearGradient>
<linearGradient id="paint2_linear_29342_12379" x1="34.1286" y1="29.8718" x2="34.1286" y2="37.9999" gradientUnits="userSpaceOnUse">
<stop stop-color="#514B96"/>
<stop offset="1" stop-color="#423E76"/>
</linearGradient>
<clipPath id="clip0_29342_12379">
<rect width="40" height="40" fill="white" transform="translate(0.90918)"/>
</clipPath>
</defs>
</svg>
