<svg width="64" height="64" viewBox="0 0 64 64" fill="none" xmlns="http://www.w3.org/2000/svg">
<circle cx="32" cy="32" r="31.5" fill="white" stroke="#E0DEF7"/>
<circle cx="32" cy="32" r="28" fill="#E0DEF7"/>
<path d="M26.0078 25.98C26.0078 26.2454 26.1133 26.5 26.301 26.6878C26.4887 26.8755 26.7433 26.9809 27.0088 26.9809H37.0186C37.284 26.9809 37.5386 26.8755 37.7264 26.6878C37.9141 26.5 38.0195 26.2454 38.0195 25.98C38.0176 25.754 37.9381 25.5355 37.7944 25.3611C37.6507 25.1866 37.4514 25.0669 37.23 25.0217L38 21.1716C38.0343 20.9996 38.0229 20.8217 37.9669 20.6555C37.9109 20.4894 37.8122 20.3409 37.6808 20.2248C37.5494 20.1088 37.3898 20.0293 37.218 19.9943C37.0462 19.9593 36.8682 19.9701 36.7018 20.0254L34.4242 20.7845L32.8465 18.4179C32.7498 18.2882 32.6241 18.1829 32.4796 18.1103C32.335 18.0378 32.1754 18 32.0136 18C31.8519 18 31.6923 18.0378 31.5477 18.1103C31.4032 18.1829 31.2775 18.2882 31.1808 18.4179L29.6031 20.7845L27.3255 20.0254C27.1592 19.97 26.9812 19.9593 26.8094 19.9943C26.6376 20.0293 26.478 20.1088 26.3465 20.2248C26.2151 20.3409 26.1165 20.4894 26.0604 20.6555C26.0044 20.8217 25.993 20.9996 26.0274 21.1715L26.7974 25.0217C26.5759 25.0668 26.3767 25.1866 26.233 25.361C26.0892 25.5355 26.0097 25.754 26.0078 25.98ZM29.695 22.9257C29.9034 22.9948 30.1287 22.9936 30.3363 22.9224C30.5439 22.8511 30.7225 22.7138 30.8446 22.5313L32.0137 20.7776L33.1828 22.5313C33.3048 22.7139 33.4833 22.8514 33.691 22.9227C33.8987 22.9939 34.124 22.995 34.3324 22.9257L35.6989 22.4702L35.197 24.979H28.8304L28.3284 22.4702L29.695 22.9257Z" fill="#100A55"/>
<path d="M19.5239 46H24.4839C24.8879 45.9995 25.2752 45.8388 25.5609 45.5531C25.8466 45.2674 26.0073 44.8801 26.0078 44.4761V33.5103C26.0073 33.1063 25.8466 32.7189 25.5609 32.4332C25.2752 32.1476 24.8879 31.9868 24.4839 31.9863H19.5239C19.1199 31.9868 18.7326 32.1476 18.4469 32.4332C18.1612 32.7189 18.0005 33.1063 18 33.5103V44.4761C18.0005 44.8801 18.1612 45.2674 18.4469 45.5531C18.7326 45.8388 19.1199 45.9995 19.5239 46ZM20.002 33.9883H24.0059V43.9981H20.002V33.9883Z" fill="#100A55"/>
<path d="M28.5112 28.9834C28.1132 28.9838 27.7315 29.1422 27.45 29.4236C27.1685 29.7051 27.0102 30.0868 27.0098 30.4849V44.4986C27.0102 44.8966 27.1685 45.2783 27.45 45.5598C27.7315 45.8413 28.1132 45.9996 28.5112 46H35.5181C35.9162 45.9996 36.2978 45.8413 36.5793 45.5598C36.8608 45.2783 37.0191 44.8966 37.0195 44.4986V30.4849C37.0191 30.0868 36.8608 29.7051 36.5793 29.4236C36.2978 29.1422 35.9162 28.9838 35.5181 28.9834H28.5112ZM35.0176 43.9981H29.0117V30.9854H35.0176V43.9981Z" fill="#100A55"/>
<path d="M44.4667 33.9883H39.5801C39.1664 33.9887 38.7697 34.1532 38.4771 34.4458C38.1845 34.7384 38.0199 35.1351 38.0195 35.5489V44.4394C38.0199 44.8532 38.1845 45.2499 38.4771 45.5425C38.7697 45.8351 39.1664 45.9996 39.5801 46H44.4667C44.8805 45.9996 45.2772 45.8351 45.5698 45.5425C45.8624 45.2499 46.0269 44.8532 46.0274 44.4394V35.5489C46.0269 35.1351 45.8624 34.7384 45.5698 34.4458C45.2772 34.1532 44.8805 33.9887 44.4667 33.9883ZM44.0254 43.9981H40.0215V35.9902H44.0254V43.9981Z" fill="#100A55"/>
<path d="M40.0225 26.9814C40.5753 26.9814 41.0234 26.5333 41.0234 25.9805C41.0234 25.4276 40.5753 24.9795 40.0225 24.9795C39.4696 24.9795 39.0215 25.4276 39.0215 25.9805C39.0215 26.5333 39.4696 26.9814 40.0225 26.9814Z" fill="#100A55"/>
</svg>
