<svg width="64" height="64" viewBox="0 0 64 64" fill="none" xmlns="http://www.w3.org/2000/svg">
<circle cx="32" cy="32" r="31.5" fill="white" stroke="#E0DEF7"/>
<circle cx="32" cy="32" r="28" fill="#E0DEF7"/>
<path d="M26.5742 33.3574H37.4268C37.979 33.3574 38.4268 32.9102 38.4268 32.3574C38.4268 31.8047 37.979 31.3574 37.4268 31.3574H26.5742C26.022 31.3574 25.5742 31.8047 25.5742 32.3574C25.5742 32.9102 26.022 33.3574 26.5742 33.3574Z" fill="#100A55"/>
<path d="M29.1362 30.3661C29.3262 30.5966 29.6094 30.7304 29.9082 30.7304C30.207 30.7304 30.4902 30.5966 30.6802 30.3661L32.2075 28.5097L32.6553 29.0536C32.8418 29.2802 33.1177 29.413 33.4111 29.4179C33.7105 29.415 33.9844 29.2978 34.1782 29.078L38.1763 24.5302C38.541 24.1152 38.5005 23.4833 38.0855 23.1191C37.6699 22.7538 37.0386 22.7958 36.6743 23.2099L33.4522 26.8749L32.9795 26.3007C32.5996 25.8398 31.8154 25.8398 31.4355 26.3007L29.9082 28.1562L28.8833 26.9111C28.5322 26.4853 27.9023 26.4228 27.4761 26.7743C27.0493 27.1259 26.9883 27.7558 27.3394 28.1825L29.1362 30.3661Z" fill="#100A55"/>
<path d="M45 19.5557H19C18.4478 19.5557 18 20.0029 18 20.5557C18 21.1084 18.4478 21.5557 19 21.5557H19.2725V35.6709C19.2725 36.2236 19.7202 36.6709 20.2725 36.6709H28.2587L26.5801 43.1953C26.4424 43.7305 26.7642 44.2754 27.2993 44.4131C27.3828 44.4346 27.4668 44.4443 27.5488 44.4443C27.9946 44.4443 28.4009 44.1445 28.5166 43.6934L29.4319 40.1357H34.5944L35.5098 43.6934C35.6255 44.1445 36.0317 44.4443 36.4775 44.4443C36.5596 44.4443 36.6436 44.4346 36.7271 44.4131C37.2622 44.2754 37.584 43.7305 37.4463 43.1953L35.7676 36.6709H43.7275C44.2798 36.6709 44.7275 36.2236 44.7275 35.6709V21.5557H45C45.5522 21.5557 46 21.1084 46 20.5557C46 20.0029 45.5522 19.5557 45 19.5557ZM42.7275 34.6709H21.2725V21.5557H42.7275V34.6709ZM34.0799 38.1357H29.9465L30.3234 36.6709H33.703L34.0799 38.1357Z" fill="#100A55"/>
</svg>
