<svg width="64" height="64" viewBox="0 0 64 64" fill="none" xmlns="http://www.w3.org/2000/svg">
<circle cx="32" cy="32" r="31.5" fill="white" stroke="#E0DEF7"/>
<circle cx="32" cy="32" r="28" fill="#E0DEF7"/>
<path fill-rule="evenodd" clip-rule="evenodd" d="M34.0858 20.8269C32.8962 19.7912 31.1038 19.7912 29.9142 20.8269L21.5421 28.1164C20.8719 28.7 20.4884 29.5365 20.4884 30.4148V43.9498H22.5814V36.7031C22.5814 35.4752 22.5813 34.4512 22.6929 33.6382C22.8107 32.7801 23.0698 32.0055 23.7053 31.3829C24.3408 30.7603 25.1317 30.5066 26.0077 30.3913C26.8376 30.282 27.8831 30.282 29.1368 30.282H34.8633C36.117 30.282 37.1624 30.282 37.9923 30.3913C38.8683 30.5066 39.6592 30.7603 40.2947 31.3829C40.9302 32.0055 41.1893 32.7801 41.3071 33.6382C41.4187 34.4512 41.4186 35.4752 41.4186 36.7032V43.9498H43.5116V30.4148C43.5116 29.5365 43.1282 28.7 42.4579 28.1164L34.0858 20.8269ZM45.6047 43.9498V30.4148C45.6047 28.9509 44.9654 27.5567 43.8485 26.5841L35.4764 19.2946C33.4937 17.5685 30.5063 17.5685 28.5237 19.2946L20.1516 26.5841C19.0345 27.5567 18.3953 28.9509 18.3953 30.4148V43.9498H18.0465C17.4685 43.9498 17 44.4087 17 44.9749C17 45.541 17.4685 46 18.0465 46H45.9535C46.5314 46 47 45.541 47 44.9749C47 44.4087 46.5314 43.9498 45.9535 43.9498H45.6047ZM39.3256 43.9498V36.7743C39.3256 35.4566 39.3233 34.5716 39.2328 33.9113C39.1461 33.2807 38.9966 33.0107 38.8147 32.8326C38.6329 32.6545 38.3573 32.5079 37.7134 32.4231C37.0394 32.3343 36.1358 32.3323 34.7907 32.3323H29.2093C27.8642 32.3323 26.9606 32.3343 26.2866 32.4231C25.6427 32.5079 25.3671 32.6545 25.1853 32.8326C25.0034 33.0107 24.8538 33.2807 24.7673 33.9113C24.6766 34.5716 24.6744 35.4566 24.6744 36.7743V43.9498H39.3256ZM28.1628 27.2068C28.1628 26.6406 28.6313 26.1817 29.2093 26.1817H34.7907C35.3687 26.1817 35.8372 26.6406 35.8372 27.2068C35.8372 27.7729 35.3687 28.2319 34.7907 28.2319H29.2093C28.6313 28.2319 28.1628 27.7729 28.1628 27.2068ZM26.7674 36.0909C26.7674 35.5246 27.236 35.0658 27.814 35.0658H36.186C36.764 35.0658 37.2326 35.5246 37.2326 36.0909C37.2326 36.657 36.764 37.116 36.186 37.116H27.814C27.236 37.116 26.7674 36.657 26.7674 36.0909ZM26.7674 40.1912C26.7674 39.625 27.236 39.1661 27.814 39.1661H36.186C36.764 39.1661 37.2326 39.625 37.2326 40.1912C37.2326 40.7573 36.764 41.2162 36.186 41.2162H27.814C27.236 41.2162 26.7674 40.7573 26.7674 40.1912Z" fill="#100A55"/>
</svg>
