<svg width="64" height="64" viewBox="0 0 64 64" fill="none" xmlns="http://www.w3.org/2000/svg">
<circle cx="32" cy="32" r="31.5" fill="white" stroke="#E0DEF7"/>
<circle cx="32" cy="32" r="28" fill="#E0DEF7"/>
<path d="M38.0802 44.9999H21.7939C20.3568 44.9976 19.1908 43.8477 19.1896 42.4279V33.9062C18.4244 33.0857 18 32.0114 18 30.8963V26.0095C17.9965 24.4756 19.2497 23.2291 20.8024 23.221H25.8992V20.6978C25.9004 19.2081 27.123 18.0012 28.632 18H31.7622C33.2712 18.0012 34.4938 19.2081 34.4962 20.6978V23.2198H39.593V23.2209C41.1457 23.2291 42.3989 24.4767 42.3942 26.0095C42.3576 27.5178 42.4967 30.9371 42.2892 31.7717V31.7705C43.9021 32.9006 44.3407 35.0759 43.2914 36.7297C45.7566 38.1752 47.2633 42.3301 44.5741 44.3052C43.6675 44.9721 42.4909 45.1723 41.4098 44.8429C40.4113 44.4612 39.171 44.8976 38.0805 45L38.0802 44.9999ZM40.4865 42.8236C41.4804 42.7328 42.5061 43.5614 43.4516 42.8084C45.1033 41.392 43.4032 38.6432 41.7362 38.0229L41.7374 38.0217C40.7895 38.4337 39.7095 38.4279 38.7663 38.0078C37.3469 38.6642 36.4367 40.0701 36.4332 41.6179C36.6501 43.835 38.9562 42.8411 40.4878 42.8237L40.4865 42.8236ZM21.0761 35.1167V42.4279C21.0761 42.8201 21.398 43.1367 21.7941 43.1378H34.9195C33.8832 40.9591 35.1175 38.1357 37.2232 36.7112C36.9603 36.2958 36.7822 35.8325 36.7009 35.3496C36.2552 35.2797 20.7791 35.5497 21.0761 35.1167ZM39.4398 36.2538C42.1927 37.4118 43.077 33.1278 40.2733 33.0533C39.4999 33.0579 38.8232 33.5689 38.6169 34.3044C38.4094 35.04 38.723 35.8221 39.3832 36.2189C39.4021 36.2306 39.4209 36.2433 39.4398 36.2538ZM20.7601 32.8227C21.2364 33.2487 21.8565 33.4861 22.4991 33.4872H36.8755C37.4308 32.0185 38.888 31.077 40.4737 31.1619C40.5562 30.2436 40.5268 28.6469 40.5091 27.7728C40.3688 26.6008 40.9571 25.2461 39.593 25.0832C33.9798 25.0844 26.4182 25.0832 20.8026 25.0832C20.2909 25.089 19.8818 25.5045 19.8865 26.0096V30.8977V30.8965C19.883 31.6332 20.2013 32.335 20.7601 32.8227ZM27.7858 23.2211H32.61V20.6979C32.6088 20.237 32.2304 19.8623 31.7623 19.8623H28.6322C28.1653 19.8623 27.7857 20.237 27.7857 20.6979L27.7858 23.2211Z" fill="#100A55"/>
</svg>
