<svg width="20" height="20" viewBox="0 0 20 20" fill="none" xmlns="http://www.w3.org/2000/svg">
<g opacity="0.4" clip-path="url(#clip0_29778_2535)">
<path d="M6 10C5.71667 10 5.47917 10.0958 5.2875 10.2875C5.09583 10.4792 5 10.7167 5 11V14C5 14.2833 5.09583 14.5208 5.2875 14.7125C5.47917 14.9042 5.71667 15 6 15C6.28333 15 6.52083 14.9042 6.7125 14.7125C6.90417 14.5208 7 14.2833 7 14V11C7 10.7167 6.90417 10.4792 6.7125 10.2875C6.52083 10.0958 6.28333 10 6 10ZM14 5C13.7167 5 13.4792 5.09583 13.2875 5.2875C13.0958 5.47917 13 5.71667 13 6V14C13 14.2833 13.0958 14.5208 13.2875 14.7125C13.4792 14.9042 13.7167 15 14 15C14.2833 15 14.5208 14.9042 14.7125 14.7125C14.9042 14.5208 15 14.2833 15 14V6C15 5.71667 14.9042 5.47917 14.7125 5.2875C14.5208 5.09583 14.2833 5 14 5ZM10 12C9.71667 12 9.47917 12.0958 9.2875 12.2875C9.09583 12.4792 9 12.7167 9 13V14C9 14.2833 9.09583 14.5208 9.2875 14.7125C9.47917 14.9042 9.71667 15 10 15C10.2833 15 10.5208 14.9042 10.7125 14.7125C10.9042 14.5208 11 14.2833 11 14V13C11 12.7167 10.9042 12.4792 10.7125 12.2875C10.5208 12.0958 10.2833 12 10 12ZM3 19C2.45 19 1.97917 18.8042 1.5875 18.4125C1.19583 18.0208 1 17.55 1 17V3C1 2.45 1.19583 1.97917 1.5875 1.5875C1.97917 1.19583 2.45 1 3 1H17C17.55 1 18.0208 1.19583 18.4125 1.5875C18.8042 1.97917 19 2.45 19 3V17C19 17.55 18.8042 18.0208 18.4125 18.4125C18.0208 18.8042 17.55 19 17 19H3ZM3 17H17V3H3V17ZM10 10C10.2833 10 10.5208 9.90417 10.7125 9.7125C10.9042 9.52083 11 9.28333 11 9C11 8.71667 10.9042 8.47917 10.7125 8.2875C10.5208 8.09583 10.2833 8 10 8C9.71667 8 9.47917 8.09583 9.2875 8.2875C9.09583 8.47917 9 8.71667 9 9C9 9.28333 9.09583 9.52083 9.2875 9.7125C9.47917 9.90417 9.71667 10 10 10Z" fill="#100A55"/>
</g>
<defs>
<clipPath id="clip0_29778_2535">
<rect width="20" height="20" fill="white"/>
</clipPath>
</defs>
</svg>
