<svg width="20" height="20" viewBox="0 0 20 20" fill="none" xmlns="http://www.w3.org/2000/svg">
<path d="M9.16634 16.5837V3.41699C9.16634 2.16699 8.63301 1.66699 7.30801 1.66699H3.94134C2.61634 1.66699 2.08301 2.16699 2.08301 3.41699V16.5837C2.08301 17.8337 2.61634 18.3337 3.94134 18.3337H7.30801C8.63301 18.3337 9.16634 17.8337 9.16634 16.5837Z" fill="#100A55"/>
<path d="M17.9163 16.3663V12.7997C17.9163 11.7163 17.083 10.833 16.058 10.833H12.6913C11.6663 10.833 10.833 11.7163 10.833 12.7997V16.3663C10.833 17.4497 11.6663 18.333 12.6913 18.333H16.058C17.083 18.333 17.9163 17.4497 17.9163 16.3663Z" fill="#100A55"/>
<path d="M17.9163 7.20033V3.63366C17.9163 2.55033 17.083 1.66699 16.058 1.66699H12.6913C11.6663 1.66699 10.833 2.55033 10.833 3.63366V7.20033C10.833 8.28366 11.6663 9.16699 12.6913 9.16699H16.058C17.083 9.16699 17.9163 8.28366 17.9163 7.20033Z" fill="#100A55"/>
</svg>
