<svg width="18" height="18" viewBox="0 0 18 18" fill="none" xmlns="http://www.w3.org/2000/svg">
<path d="M11.1 16.0389L16.2 14.4532C16.1286 14.3246 16.025 14.2139 15.8893 14.121C15.7536 14.0282 15.6 13.9818 15.4286 13.9818H11.1C10.7143 13.9818 10.4071 13.9675 10.1786 13.9389C9.95 13.9103 9.71429 13.8532 9.47143 13.7675L8.25 13.3603C8.02143 13.2889 7.85714 13.146 7.75714 12.9318C7.65714 12.7175 7.64286 12.496 7.71429 12.2675C7.78571 12.0389 7.925 11.871 8.13214 11.7639C8.33929 11.6568 8.55714 11.6389 8.78571 11.7103L9.68571 12.0103C9.92857 12.0818 10.2036 12.1389 10.5107 12.1818C10.8179 12.2246 11.2357 12.2532 11.7643 12.2675H12C12 12.1103 11.9536 11.9603 11.8607 11.8175C11.7679 11.6746 11.6571 11.5818 11.5286 11.5389L6.51429 9.69604H5.14286V14.4103L11.1 16.0389ZM10.65 17.7103L5.14286 16.1675C5.02857 16.5389 4.80357 16.8389 4.46786 17.0675C4.13214 17.296 3.78571 17.4103 3.42857 17.4103H1.71429C1.24286 17.4103 0.839286 17.2425 0.503571 16.9068C0.167857 16.571 0 16.1675 0 15.696V9.69604C0 9.22461 0.167857 8.82104 0.503571 8.48532C0.839286 8.14961 1.24286 7.98175 1.71429 7.98175H6.51429C6.61429 7.98175 6.71429 7.99247 6.81429 8.0139C6.91429 8.03532 7.00714 8.06032 7.09286 8.0889L12.1286 9.95318C12.6 10.1246 12.9821 10.4246 13.275 10.8532C13.5679 11.2818 13.7143 11.7532 13.7143 12.2675H15.4286C16.1429 12.2675 16.75 12.5032 17.25 12.9746C17.75 13.446 18 14.0675 18 14.8389C18 15.1532 17.9179 15.3996 17.7536 15.5782C17.5893 15.7568 17.3357 15.9032 16.9929 16.0175L11.6357 17.6889C11.4786 17.746 11.3143 17.7746 11.1429 17.7746C10.9714 17.7746 10.8071 17.7532 10.65 17.7103ZM1.71429 15.696H3.42857V9.69604H1.71429V15.696ZM11.1429 0.224609C11.3143 0.224609 11.4821 0.249609 11.6464 0.299609C11.8107 0.349609 11.9714 0.431752 12.1286 0.546038L16.4143 3.61032C16.6429 3.76747 16.8214 3.96747 16.95 4.21032C17.0786 4.45318 17.1429 4.71747 17.1429 5.00318V9.69604C17.1429 9.9389 17.0607 10.1425 16.8964 10.3068C16.7321 10.471 16.5286 10.5532 16.2857 10.5532C16.0429 10.5532 15.8393 10.471 15.675 10.3068C15.5107 10.1425 15.4286 9.9389 15.4286 9.69604V4.98175L11.1429 1.98175L6.85714 4.98175V5.41032C6.85714 5.65318 6.775 5.85675 6.61071 6.02104C6.44643 6.18532 6.24286 6.26747 6 6.26747C5.75714 6.26747 5.55357 6.18532 5.38929 6.02104C5.225 5.85675 5.14286 5.65318 5.14286 5.41032V5.00318C5.14286 4.71747 5.20714 4.45318 5.33571 4.21032C5.46429 3.96747 5.64286 3.76747 5.87143 3.61032L10.1571 0.546038C10.3143 0.431752 10.475 0.349609 10.6393 0.299609C10.8036 0.249609 10.9714 0.224609 11.1429 0.224609ZM10.2857 5.41032C10.4 5.41032 10.5 5.36747 10.5857 5.28175C10.6714 5.19604 10.7143 5.09604 10.7143 4.98175C10.7143 4.86747 10.6714 4.76747 10.5857 4.68175C10.5 4.59604 10.4 4.55318 10.2857 4.55318C10.1714 4.55318 10.0714 4.59604 9.98571 4.68175C9.9 4.76747 9.85714 4.86747 9.85714 4.98175C9.85714 5.09604 9.9 5.19604 9.98571 5.28175C10.0714 5.36747 10.1714 5.41032 10.2857 5.41032ZM12 5.41032C12.1143 5.41032 12.2143 5.36747 12.3 5.28175C12.3857 5.19604 12.4286 5.09604 12.4286 4.98175C12.4286 4.86747 12.3857 4.76747 12.3 4.68175C12.2143 4.59604 12.1143 4.55318 12 4.55318C11.8857 4.55318 11.7857 4.59604 11.7 4.68175C11.6143 4.76747 11.5714 4.86747 11.5714 4.98175C11.5714 5.09604 11.6143 5.19604 11.7 5.28175C11.7857 5.36747 11.8857 5.41032 12 5.41032ZM10.2857 7.12461C10.4 7.12461 10.5 7.08175 10.5857 6.99604C10.6714 6.91032 10.7143 6.81032 10.7143 6.69604C10.7143 6.58175 10.6714 6.48175 10.5857 6.39604C10.5 6.31032 10.4 6.26747 10.2857 6.26747C10.1714 6.26747 10.0714 6.31032 9.98571 6.39604C9.9 6.48175 9.85714 6.58175 9.85714 6.69604C9.85714 6.81032 9.9 6.91032 9.98571 6.99604C10.0714 7.08175 10.1714 7.12461 10.2857 7.12461ZM12 7.12461C12.1143 7.12461 12.2143 7.08175 12.3 6.99604C12.3857 6.91032 12.4286 6.81032 12.4286 6.69604C12.4286 6.58175 12.3857 6.48175 12.3 6.39604C12.2143 6.31032 12.1143 6.26747 12 6.26747C11.8857 6.26747 11.7857 6.31032 11.7 6.39604C11.6143 6.48175 11.5714 6.58175 11.5714 6.69604C11.5714 6.81032 11.6143 6.91032 11.7 6.99604C11.7857 7.08175 11.8857 7.12461 12 7.12461Z" fill="#100A55"/>
</svg>
