<svg width="20" height="20" viewBox="0 0 20 20" fill="none" xmlns="http://www.w3.org/2000/svg">
<g opacity="0.4" clip-path="url(#clip0_29778_2542)">
<path d="M12.1 17.0389L17.2 15.4532C17.1286 15.3246 17.025 15.2139 16.8893 15.121C16.7536 15.0282 16.6 14.9818 16.4286 14.9818H12.1C11.7143 14.9818 11.4071 14.9675 11.1786 14.9389C10.95 14.9103 10.7143 14.8532 10.4714 14.7675L9.25 14.3603C9.02143 14.2889 8.85714 14.146 8.75714 13.9318C8.65714 13.7175 8.64286 13.496 8.71429 13.2675C8.78571 13.0389 8.925 12.871 9.13214 12.7639C9.33929 12.6568 9.55714 12.6389 9.78571 12.7103L10.6857 13.0103C10.9286 13.0818 11.2036 13.1389 11.5107 13.1818C11.8179 13.2246 12.2357 13.2532 12.7643 13.2675H13C13 13.1103 12.9536 12.9603 12.8607 12.8175C12.7679 12.6746 12.6571 12.5818 12.5286 12.5389L7.51429 10.696H6.14286V15.4103L12.1 17.0389ZM11.65 18.7103L6.14286 17.1675C6.02857 17.5389 5.80357 17.8389 5.46786 18.0675C5.13214 18.296 4.78571 18.4103 4.42857 18.4103H2.71429C2.24286 18.4103 1.83929 18.2425 1.50357 17.9068C1.16786 17.571 1 17.1675 1 16.696V10.696C1 10.2246 1.16786 9.82104 1.50357 9.48532C1.83929 9.14961 2.24286 8.98175 2.71429 8.98175H7.51429C7.61429 8.98175 7.71429 8.99247 7.81429 9.0139C7.91429 9.03532 8.00714 9.06032 8.09286 9.0889L13.1286 10.9532C13.6 11.1246 13.9821 11.4246 14.275 11.8532C14.5679 12.2818 14.7143 12.7532 14.7143 13.2675H16.4286C17.1429 13.2675 17.75 13.5032 18.25 13.9746C18.75 14.446 19 15.0675 19 15.8389C19 16.1532 18.9179 16.3996 18.7536 16.5782C18.5893 16.7568 18.3357 16.9032 17.9929 17.0175L12.6357 18.6889C12.4786 18.746 12.3143 18.7746 12.1429 18.7746C11.9714 18.7746 11.8071 18.7532 11.65 18.7103ZM2.71429 16.696H4.42857V10.696H2.71429V16.696ZM12.1429 1.22461C12.3143 1.22461 12.4821 1.24961 12.6464 1.29961C12.8107 1.34961 12.9714 1.43175 13.1286 1.54604L17.4143 4.61032C17.6429 4.76747 17.8214 4.96747 17.95 5.21032C18.0786 5.45318 18.1429 5.71747 18.1429 6.00318V10.696C18.1429 10.9389 18.0607 11.1425 17.8964 11.3068C17.7321 11.471 17.5286 11.5532 17.2857 11.5532C17.0429 11.5532 16.8393 11.471 16.675 11.3068C16.5107 11.1425 16.4286 10.9389 16.4286 10.696V5.98175L12.1429 2.98175L7.85714 5.98175V6.41032C7.85714 6.65318 7.775 6.85675 7.61071 7.02104C7.44643 7.18532 7.24286 7.26747 7 7.26747C6.75714 7.26747 6.55357 7.18532 6.38929 7.02104C6.225 6.85675 6.14286 6.65318 6.14286 6.41032V6.00318C6.14286 5.71747 6.20714 5.45318 6.33571 5.21032C6.46429 4.96747 6.64286 4.76747 6.87143 4.61032L11.1571 1.54604C11.3143 1.43175 11.475 1.34961 11.6393 1.29961C11.8036 1.24961 11.9714 1.22461 12.1429 1.22461ZM11.2857 6.41032C11.4 6.41032 11.5 6.36747 11.5857 6.28175C11.6714 6.19604 11.7143 6.09604 11.7143 5.98175C11.7143 5.86747 11.6714 5.76747 11.5857 5.68175C11.5 5.59604 11.4 5.55318 11.2857 5.55318C11.1714 5.55318 11.0714 5.59604 10.9857 5.68175C10.9 5.76747 10.8571 5.86747 10.8571 5.98175C10.8571 6.09604 10.9 6.19604 10.9857 6.28175C11.0714 6.36747 11.1714 6.41032 11.2857 6.41032ZM13 6.41032C13.1143 6.41032 13.2143 6.36747 13.3 6.28175C13.3857 6.19604 13.4286 6.09604 13.4286 5.98175C13.4286 5.86747 13.3857 5.76747 13.3 5.68175C13.2143 5.59604 13.1143 5.55318 13 5.55318C12.8857 5.55318 12.7857 5.59604 12.7 5.68175C12.6143 5.76747 12.5714 5.86747 12.5714 5.98175C12.5714 6.09604 12.6143 6.19604 12.7 6.28175C12.7857 6.36747 12.8857 6.41032 13 6.41032ZM11.2857 8.12461C11.4 8.12461 11.5 8.08175 11.5857 7.99604C11.6714 7.91032 11.7143 7.81032 11.7143 7.69604C11.7143 7.58175 11.6714 7.48175 11.5857 7.39604C11.5 7.31032 11.4 7.26747 11.2857 7.26747C11.1714 7.26747 11.0714 7.31032 10.9857 7.39604C10.9 7.48175 10.8571 7.58175 10.8571 7.69604C10.8571 7.81032 10.9 7.91032 10.9857 7.99604C11.0714 8.08175 11.1714 8.12461 11.2857 8.12461ZM13 8.12461C13.1143 8.12461 13.2143 8.08175 13.3 7.99604C13.3857 7.91032 13.4286 7.81032 13.4286 7.69604C13.4286 7.58175 13.3857 7.48175 13.3 7.39604C13.2143 7.31032 13.1143 7.26747 13 7.26747C12.8857 7.26747 12.7857 7.31032 12.7 7.39604C12.6143 7.48175 12.5714 7.58175 12.5714 7.69604C12.5714 7.81032 12.6143 7.91032 12.7 7.99604C12.7857 8.08175 12.8857 8.12461 13 8.12461Z" fill="#100A55"/>
</g>
<defs>
<clipPath id="clip0_29778_2542">
<rect width="20" height="20" fill="white"/>
</clipPath>
</defs>
</svg>
