<svg width="20" height="20" viewBox="0 0 20 20" fill="none" xmlns="http://www.w3.org/2000/svg">
<g opacity="0.4">
<path d="M3.72943 18.0618C3.23675 18.0618 2.81498 17.8864 2.46412 17.5355C2.11327 17.1847 1.93784 16.7629 1.93784 16.2702V9.14865C1.59445 8.83512 1.32945 8.43201 1.14282 7.93933C0.9562 7.44664 0.952468 6.90916 1.13163 6.3269L2.07221 3.28119C2.19165 2.89301 2.4044 2.57202 2.71047 2.31821C3.01653 2.0644 3.37111 1.9375 3.77422 1.9375H16.2258C16.6289 1.9375 16.9797 2.06067 17.2783 2.30702C17.5769 2.55336 17.7934 2.87808 17.9278 3.28119L18.8684 6.3269C19.0475 6.90916 19.0438 7.43918 18.8572 7.91693C18.6706 8.39469 18.4055 8.80526 18.0622 9.14865V16.2702C18.0622 16.7629 17.8867 17.1847 17.5359 17.5355C17.185 17.8864 16.7633 18.0618 16.2706 18.0618H3.72943ZM11.9707 8.20807C12.3739 8.20807 12.6799 8.06996 12.8889 7.79376C13.098 7.51756 13.1801 7.20776 13.1353 6.86437L12.6426 3.72909H10.8958V7.04353C10.8958 7.35706 11.0003 7.62953 11.2093 7.86095C11.4183 8.09236 11.6722 8.20807 11.9707 8.20807ZM7.93967 8.20807C8.28306 8.20807 8.563 8.09236 8.77948 7.86095C8.99596 7.62953 9.10421 7.35706 9.10421 7.04353V3.72909H7.3574L6.86472 6.86437C6.805 7.22269 6.88338 7.53622 7.09986 7.80496C7.31635 8.0737 7.59628 8.20807 7.93967 8.20807ZM3.95338 8.20807C4.22212 8.20807 4.45727 8.11102 4.65882 7.91693C4.86037 7.72284 4.98355 7.4765 5.02834 7.1779L5.52102 3.72909H3.77422L2.87843 6.73C2.78885 7.0286 2.83737 7.3496 3.02399 7.69298C3.21062 8.03637 3.52041 8.20807 3.95338 8.20807ZM16.0466 8.20807C16.4796 8.20807 16.7931 8.03637 16.9872 7.69298C17.1813 7.3496 17.2261 7.0286 17.1216 6.73L16.181 3.72909H14.479L14.9717 7.1779C15.0165 7.4765 15.1396 7.72284 15.3412 7.91693C15.5427 8.11102 15.7779 8.20807 16.0466 8.20807ZM3.72943 16.2702H16.2706V9.95487C16.1959 9.98473 16.1474 9.99966 16.125 9.99966H16.0466C15.6435 9.99966 15.2889 9.93247 14.9829 9.7981C14.6768 9.66373 14.3745 9.44725 14.0759 9.14865C13.8071 9.41739 13.5011 9.62641 13.1577 9.77571C12.8143 9.92501 12.4485 9.99966 12.0603 9.99966C11.6572 9.99966 11.2802 9.92501 10.9294 9.77571C10.5785 9.62641 10.2687 9.41739 10 9.14865C9.74619 9.41739 9.45133 9.62641 9.1154 9.77571C8.77948 9.92501 8.41743 9.99966 8.02925 9.99966C7.59628 9.99966 7.20437 9.92501 6.85352 9.77571C6.50267 9.62641 6.19287 9.41739 5.92413 9.14865C5.6106 9.46218 5.30081 9.6824 4.99474 9.8093C4.68868 9.9362 4.34156 9.99966 3.95338 9.99966H3.85261C3.81528 9.99966 3.77422 9.98473 3.72943 9.95487V16.2702Z" fill="#100A55"/>
</g>
</svg>
