<svg width="18" height="18" viewBox="0 0 18 18" fill="none" xmlns="http://www.w3.org/2000/svg">
<path d="M2.72943 17.0618C2.23675 17.0618 1.81498 16.8864 1.46412 16.5355C1.11327 16.1847 0.937843 15.7629 0.937843 15.2702V8.14865C0.594455 7.83512 0.329448 7.43201 0.142825 6.93933C-0.0437995 6.44664 -0.047532 5.90916 0.131627 5.3269L1.07221 2.28119C1.19165 1.89301 1.4044 1.57202 1.71047 1.31821C2.01653 1.0644 2.37111 0.9375 2.77422 0.9375H15.2258C15.6289 0.9375 15.9797 1.06067 16.2783 1.30702C16.5769 1.55336 16.7934 1.87808 16.9278 2.28119L17.8684 5.3269C18.0475 5.90916 18.0438 6.43918 17.8572 6.91693C17.6706 7.39469 17.4055 7.80526 17.0622 8.14865V15.2702C17.0622 15.7629 16.8867 16.1847 16.5359 16.5355C16.185 16.8864 15.7633 17.0618 15.2706 17.0618H2.72943ZM10.9707 7.20807C11.3739 7.20807 11.6799 7.06996 11.8889 6.79376C12.098 6.51756 12.1801 6.20776 12.1353 5.86437L11.6426 2.72909H9.89579V6.04353C9.89579 6.35706 10.0003 6.62953 10.2093 6.86095C10.4183 7.09236 10.6722 7.20807 10.9707 7.20807ZM6.93967 7.20807C7.28306 7.20807 7.563 7.09236 7.77948 6.86095C7.99596 6.62953 8.10421 6.35706 8.10421 6.04353V2.72909H6.3574L5.86472 5.86437C5.805 6.22269 5.88338 6.53622 6.09986 6.80496C6.31635 7.0737 6.59628 7.20807 6.93967 7.20807ZM2.95338 7.20807C3.22212 7.20807 3.45727 7.11102 3.65882 6.91693C3.86037 6.72284 3.98355 6.4765 4.02834 6.1779L4.52102 2.72909H2.77422L1.87843 5.73C1.78885 6.0286 1.83737 6.3496 2.02399 6.69298C2.21062 7.03637 2.52041 7.20807 2.95338 7.20807ZM15.0466 7.20807C15.4796 7.20807 15.7931 7.03637 15.9872 6.69298C16.1813 6.3496 16.2261 6.0286 16.1216 5.73L15.181 2.72909H13.479L13.9717 6.1779C14.0165 6.4765 14.1396 6.72284 14.3412 6.91693C14.5427 7.11102 14.7779 7.20807 15.0466 7.20807ZM2.72943 15.2702H15.2706V8.95487C15.1959 8.98473 15.1474 8.99966 15.125 8.99966H15.0466C14.6435 8.99966 14.2889 8.93247 13.9829 8.7981C13.6768 8.66373 13.3745 8.44725 13.0759 8.14865C12.8071 8.41739 12.5011 8.62641 12.1577 8.77571C11.8143 8.92501 11.4485 8.99966 11.0603 8.99966C10.6572 8.99966 10.2802 8.92501 9.92939 8.77571C9.57853 8.62641 9.26874 8.41739 9 8.14865C8.74619 8.41739 8.45133 8.62641 8.1154 8.77571C7.77948 8.92501 7.41743 8.99966 7.02925 8.99966C6.59628 8.99966 6.20437 8.92501 5.85352 8.77571C5.50267 8.62641 5.19287 8.41739 4.92413 8.14865C4.6106 8.46218 4.30081 8.6824 3.99474 8.8093C3.68868 8.9362 3.34156 8.99966 2.95338 8.99966H2.85261C2.81528 8.99966 2.77422 8.98473 2.72943 8.95487V15.2702Z" fill="#100A55"/>
</svg>
