<svg width="20" height="20" viewBox="0 0 20 20" fill="none" xmlns="http://www.w3.org/2000/svg">
<g opacity="0.4">
<path d="M10 18.5C8.755 18.5 7.585 18.2638 6.49 17.7913C5.395 17.3188 4.4425 16.6775 3.6325 15.8675C2.8225 15.0575 2.18125 14.105 1.70875 13.01C1.23625 11.915 1 10.745 1 9.5C1 8.255 1.23625 7.085 1.70875 5.99C2.18125 4.895 2.8225 3.9425 3.6325 3.1325C4.4425 2.3225 5.395 1.68125 6.49 1.20875C7.585 0.73625 8.755 0.5 10 0.5C11.245 0.5 12.415 0.73625 13.51 1.20875C14.605 1.68125 15.5575 2.3225 16.3675 3.1325C17.1775 3.9425 17.8188 4.895 18.2913 5.99C18.7638 7.085 19 8.255 19 9.5C19 10.745 18.7638 11.915 18.2913 13.01C17.8188 14.105 17.1775 15.0575 16.3675 15.8675C15.5575 16.6775 14.605 17.3188 13.51 17.7913C12.415 18.2638 11.245 18.5 10 18.5ZM7.39 16.205L8.47 13.73C7.84 13.505 7.29625 13.1563 6.83875 12.6838C6.38125 12.2113 6.025 11.66 5.77 11.03L3.295 12.065C3.64 13.025 4.1725 13.865 4.8925 14.585C5.6125 15.305 6.445 15.845 7.39 16.205ZM5.77 7.97C6.025 7.34 6.38125 6.78875 6.83875 6.31625C7.29625 5.84375 7.84 5.495 8.47 5.27L7.435 2.795C6.475 3.155 5.635 3.695 4.915 4.415C4.195 5.135 3.655 5.975 3.295 6.935L5.77 7.97ZM10 12.2C10.75 12.2 11.3875 11.9375 11.9125 11.4125C12.4375 10.8875 12.7 10.25 12.7 9.5C12.7 8.75 12.4375 8.1125 11.9125 7.5875C11.3875 7.0625 10.75 6.8 10 6.8C9.25 6.8 8.6125 7.0625 8.0875 7.5875C7.5625 8.1125 7.3 8.75 7.3 9.5C7.3 10.25 7.5625 10.8875 8.0875 11.4125C8.6125 11.9375 9.25 12.2 10 12.2ZM12.61 16.205C13.555 15.845 14.3838 15.3088 15.0963 14.5963C15.8088 13.8838 16.345 13.055 16.705 12.11L14.23 11.03C14.005 11.66 13.66 12.2038 13.195 12.6613C12.73 13.1188 12.19 13.475 11.575 13.73L12.61 16.205ZM14.23 7.925L16.705 6.89C16.345 5.945 15.8088 5.11625 15.0963 4.40375C14.3838 3.69125 13.555 3.155 12.61 2.795L11.575 5.315C12.19 5.54 12.7225 5.88125 13.1725 6.33875C13.6225 6.79625 13.975 7.325 14.23 7.925Z" fill="#100A55"/>
</g>
</svg>
