<svg width="18" height="19" viewBox="0 0 18 19" fill="none" xmlns="http://www.w3.org/2000/svg">
<path d="M9 18.5C7.755 18.5 6.585 18.2638 5.49 17.7913C4.395 17.3188 3.4425 16.6775 2.6325 15.8675C1.8225 15.0575 1.18125 14.105 0.70875 13.01C0.23625 11.915 0 10.745 0 9.5C0 8.255 0.23625 7.085 0.70875 5.99C1.18125 4.895 1.8225 3.9425 2.6325 3.1325C3.4425 2.3225 4.395 1.68125 5.49 1.20875C6.585 0.73625 7.755 0.5 9 0.5C10.245 0.5 11.415 0.73625 12.51 1.20875C13.605 1.68125 14.5575 2.3225 15.3675 3.1325C16.1775 3.9425 16.8188 4.895 17.2913 5.99C17.7638 7.085 18 8.255 18 9.5C18 10.745 17.7638 11.915 17.2913 13.01C16.8188 14.105 16.1775 15.0575 15.3675 15.8675C14.5575 16.6775 13.605 17.3188 12.51 17.7913C11.415 18.2638 10.245 18.5 9 18.5ZM6.39 16.205L7.47 13.73C6.84 13.505 6.29625 13.1563 5.83875 12.6838C5.38125 12.2113 5.025 11.66 4.77 11.03L2.295 12.065C2.64 13.025 3.1725 13.865 3.8925 14.585C4.6125 15.305 5.445 15.845 6.39 16.205ZM4.77 7.97C5.025 7.34 5.38125 6.78875 5.83875 6.31625C6.29625 5.84375 6.84 5.495 7.47 5.27L6.435 2.795C5.475 3.155 4.635 3.695 3.915 4.415C3.195 5.135 2.655 5.975 2.295 6.935L4.77 7.97ZM9 12.2C9.75 12.2 10.3875 11.9375 10.9125 11.4125C11.4375 10.8875 11.7 10.25 11.7 9.5C11.7 8.75 11.4375 8.1125 10.9125 7.5875C10.3875 7.0625 9.75 6.8 9 6.8C8.25 6.8 7.6125 7.0625 7.0875 7.5875C6.5625 8.1125 6.3 8.75 6.3 9.5C6.3 10.25 6.5625 10.8875 7.0875 11.4125C7.6125 11.9375 8.25 12.2 9 12.2ZM11.61 16.205C12.555 15.845 13.3838 15.3088 14.0963 14.5963C14.8088 13.8838 15.345 13.055 15.705 12.11L13.23 11.03C13.005 11.66 12.66 12.2038 12.195 12.6613C11.73 13.1188 11.19 13.475 10.575 13.73L11.61 16.205ZM13.23 7.925L15.705 6.89C15.345 5.945 14.8088 5.11625 14.0963 4.40375C13.3838 3.69125 12.555 3.155 11.61 2.795L10.575 5.315C11.19 5.54 11.7225 5.88125 12.1725 6.33875C12.6225 6.79625 12.975 7.325 13.23 7.925Z" fill="#100A55"/>
</svg>
