<svg width="18" height="16" viewBox="0 0 18 16" fill="none" xmlns="http://www.w3.org/2000/svg">
<path d="M0 13.3998V2.5998C0 2.1048 0.17625 1.68105 0.52875 1.32855C0.88125 0.976055 1.305 0.799805 1.8 0.799805H16.2C16.695 0.799805 17.1188 0.976055 17.4713 1.32855C17.8238 1.68105 18 2.1048 18 2.5998V13.3998C18 13.8948 17.8238 14.3186 17.4713 14.6711C17.1188 15.0236 16.695 15.1998 16.2 15.1998H1.8C1.305 15.1998 0.88125 15.0236 0.52875 14.6711C0.17625 14.3186 0 13.8948 0 13.3998ZM16.2 7.0998V2.5998H1.8V7.0998H16.2ZM7.2 13.3998H16.2V8.8998H7.2V13.3998ZM1.8 13.3998H5.4V8.8998H1.8V13.3998Z" fill="#100A55"/>
</svg>
