<svg width="20" height="20" viewBox="0 0 20 20" fill="none" xmlns="http://www.w3.org/2000/svg">
<g opacity="0.4">
<path d="M1 15.3998V4.5998C1 4.1048 1.17625 3.68105 1.52875 3.32855C1.88125 2.97605 2.305 2.7998 2.8 2.7998H17.2C17.695 2.7998 18.1188 2.97605 18.4713 3.32855C18.8238 3.68105 19 4.1048 19 4.5998V15.3998C19 15.8948 18.8238 16.3186 18.4713 16.6711C18.1188 17.0236 17.695 17.1998 17.2 17.1998H2.8C2.305 17.1998 1.88125 17.0236 1.52875 16.6711C1.17625 16.3186 1 15.8948 1 15.3998ZM17.2 9.0998V4.5998H2.8V9.0998H17.2ZM8.2 15.3998H17.2V10.8998H8.2V15.3998ZM2.8 15.3998H6.4V10.8998H2.8V15.3998Z" fill="#100A55"/>
</g>
</svg>
