<svg width="64" height="64" viewBox="0 0 64 64" fill="none" xmlns="http://www.w3.org/2000/svg">
<circle cx="32" cy="32" r="31.5" fill="white" stroke="#E0DEF7"/>
<circle cx="32" cy="32" r="28" fill="#E0DEF7"/>
<path d="M28.2799 34.8747C28.2385 34.7852 28.1799 34.7047 28.1074 34.6378C28.0348 34.571 27.9498 34.5191 27.8572 34.4852C27.7646 34.4513 27.6662 34.436 27.5677 34.4401C27.4691 34.4443 27.3724 34.4679 27.2829 34.5095C27.1935 34.5511 27.1132 34.61 27.0466 34.6827C26.9799 34.7554 26.9283 34.8406 26.8946 34.9333C26.861 35.026 26.8459 35.1244 26.8504 35.223C26.8548 35.3215 26.8787 35.4182 26.9205 35.5075L27.3424 36.4138C27.384 36.503 27.4427 36.5832 27.5152 36.6498C27.5878 36.7163 27.6727 36.768 27.7652 36.8017C27.8577 36.8354 27.956 36.8506 28.0543 36.8464C28.1527 36.8421 28.2493 36.8186 28.3385 36.777C28.4278 36.7355 28.508 36.6768 28.5745 36.6042C28.6411 36.5317 28.6927 36.4467 28.7264 36.3542C28.7602 36.2617 28.7754 36.1635 28.7711 36.0651C28.7669 35.9668 28.7433 35.8702 28.7018 35.7809L28.2799 34.8747Z" fill="#100A55"/>
<path d="M41.2774 23.6897C41.0903 23.1681 40.7172 22.7341 40.2296 22.4709C39.742 22.2076 39.1743 22.1339 38.6356 22.2638C38.097 22.3936 37.6253 22.7179 37.3112 23.1744C36.997 23.6309 36.8627 24.1873 36.9339 24.7369L31.937 29.9934L26.4629 31.9739C26.1233 32.0967 25.8112 32.2852 25.5445 32.5286C25.2778 32.772 25.0616 33.0656 24.9083 33.3926C24.7551 33.7195 24.6677 34.0735 24.6513 34.4342C24.6348 34.7949 24.6896 35.1554 24.8125 35.4949L25.4922 37.3763C25.6853 37.9079 26.0373 38.3672 26.5005 38.6919C26.9636 39.0165 27.5155 39.1907 28.0811 39.1908C28.3992 39.1907 28.7148 39.135 29.0137 39.0262L29.2491 38.941L29.9717 40.9403C30.4883 42.363 31.3276 43.6466 32.4239 44.6903L33.3321 45.5545C33.573 45.7836 33.8568 45.9627 34.1672 46.0816C34.4777 46.2004 34.8085 46.2567 35.1408 46.2471C35.4731 46.2376 35.8002 46.1623 36.1032 46.0258C36.4063 45.8893 36.6794 45.6941 36.9067 45.4516C37.134 45.2091 37.3111 44.924 37.4278 44.6127C37.5444 44.3014 37.5983 43.9702 37.5864 43.638C37.5745 43.3058 37.4969 42.9792 37.3583 42.6771C37.2196 42.375 37.0225 42.1034 36.7783 41.8778L36.6075 41.7201C36.1095 41.2586 35.7288 40.6849 35.4971 40.0467L34.4207 37.07L34.4881 37.0457L41.7151 37.8914C42.013 38.3546 42.4712 38.6916 43.0021 38.8381C43.5329 38.9845 44.0991 38.9302 44.5923 38.6854C45.0856 38.4406 45.4713 38.0226 45.6757 37.5113C45.8801 37 45.8888 36.4313 45.7002 35.9139L41.2774 23.6897ZM35.5889 42.8216L35.7608 42.9798C35.8891 43.0986 35.9847 43.2485 36.0384 43.415C36.0921 43.5814 36.102 43.7589 36.0673 43.9304C36.0326 44.1018 35.9544 44.2614 35.8401 44.3939C35.7259 44.5264 35.5795 44.6272 35.4151 44.6868C35.2369 44.7512 35.0444 44.7647 34.859 44.7259C34.6736 44.6871 34.5026 44.5975 34.3653 44.467L33.4571 43.6028C32.5294 42.7198 31.819 41.6338 31.3819 40.4299L30.6592 38.4314L33.0108 37.5808L34.0869 40.5564C34.4005 41.4201 34.9153 42.1966 35.5889 42.8216ZM26.9024 36.866L26.2227 34.9847C26.1102 34.6729 26.126 34.3293 26.2666 34.0292C26.4072 33.7291 26.6612 33.4971 26.9727 33.3841L31.9092 31.5984L32.4209 33.0122L33.4402 35.83L28.5039 37.616C28.192 37.7277 27.8486 37.7116 27.5486 37.5711C27.2485 37.4306 27.0162 37.1771 26.9024 36.866ZM34.9483 35.5891L33.2227 30.8186L37.459 26.3616L41.0557 36.304L34.9483 35.5891ZM44.2637 36.9978C44.2008 37.1322 44.0994 37.245 43.9724 37.3217C43.8454 37.3985 43.6985 37.4359 43.5503 37.4291C43.402 37.4224 43.2591 37.3718 43.1396 37.2838C43.0201 37.1959 42.9294 37.0744 42.8789 36.9348L38.4571 24.7098C38.4232 24.6171 38.408 24.5186 38.4123 24.4201C38.4166 24.3215 38.4402 24.2247 38.482 24.1354C38.5237 24.046 38.5827 23.9657 38.6556 23.8991C38.7284 23.8326 38.8136 23.781 38.9064 23.7475C38.9992 23.714 39.0977 23.6991 39.1963 23.7037C39.2948 23.7083 39.3915 23.7323 39.4807 23.7743C39.57 23.8163 39.6501 23.8756 39.7164 23.9486C39.7827 24.0217 39.834 24.1071 39.8672 24.2L44.2901 36.4246C44.3239 36.5171 44.3389 36.6155 44.3344 36.7139C44.3299 36.8123 44.3058 36.9088 44.2637 36.9978Z" fill="#100A55"/>
<path d="M29.6909 23.6691C29.4765 22.202 28.7037 20.8744 27.5339 19.9634C26.3641 19.0525 24.8876 18.6286 23.4127 18.7802C21.9378 18.9317 20.5785 19.6471 19.6184 20.777C18.6584 21.9068 18.1718 23.3638 18.2603 24.8439C18.3682 26.3247 19.0371 27.7086 20.1305 28.7132C21.2239 29.7177 22.6593 30.2673 24.144 30.2496H28.2505C28.4604 30.2496 28.665 30.1836 28.8353 30.0608C29.0056 29.938 29.1329 29.7648 29.1992 29.5656C29.2656 29.3665 29.2676 29.1515 29.2049 28.9511C29.1422 28.7508 29.0181 28.5752 28.8501 28.4493L28.4419 28.1432C28.9491 27.5249 29.3221 26.8078 29.5371 26.0375C29.7522 25.2673 29.8045 24.4607 29.6909 23.6691ZM26.8169 27.6749C26.7421 27.7416 26.6813 27.8226 26.6382 27.9131C26.5951 28.0036 26.5706 28.1018 26.5661 28.202C26.5615 28.3021 26.577 28.4022 26.6117 28.4962C26.6464 28.5903 26.6996 28.6764 26.7681 28.7496H24.1441C23.0419 28.7676 21.9745 28.3644 21.1595 27.6222C20.3445 26.8801 19.8433 25.855 19.7583 24.756C19.7233 24.1765 19.8073 23.596 20.0053 23.0503C20.2032 22.5046 20.5109 22.0052 20.9094 21.583C21.3078 21.1608 21.7885 20.8247 22.3218 20.5955C22.8551 20.3662 23.4298 20.2487 24.0103 20.2501C24.1852 20.2503 24.36 20.2609 24.5337 20.2819C25.453 20.4026 26.3082 20.8187 26.9706 21.4674C27.6329 22.1161 28.0667 22.9625 28.2066 23.879C28.3119 24.5775 28.2398 25.2913 27.997 25.9546C27.7542 26.618 27.3484 27.2095 26.8169 27.6749Z" fill="#100A55"/>
<path d="M21.7285 25.25C22.1427 25.25 22.4785 24.9142 22.4785 24.5C22.4785 24.0858 22.1427 23.75 21.7285 23.75C21.3143 23.75 20.9785 24.0858 20.9785 24.5C20.9785 24.9142 21.3143 25.25 21.7285 25.25Z" fill="#100A55"/>
<path d="M24 25.25C24.4142 25.25 24.75 24.9142 24.75 24.5C24.75 24.0858 24.4142 23.75 24 23.75C23.5858 23.75 23.25 24.0858 23.25 24.5C23.25 24.9142 23.5858 25.25 24 25.25Z" fill="#100A55"/>
<path d="M26.2734 25.25C26.6877 25.25 27.0234 24.9142 27.0234 24.5C27.0234 24.0858 26.6877 23.75 26.2734 23.75C25.8592 23.75 25.5234 24.0858 25.5234 24.5C25.5234 24.9142 25.8592 25.25 26.2734 25.25Z" fill="#100A55"/>
</svg>
