<svg width="64" height="64" viewBox="0 0 64 64" fill="none" xmlns="http://www.w3.org/2000/svg">
<circle cx="32" cy="32" r="31.5" fill="white" stroke="#E0DEF7"/>
<circle cx="32" cy="32" r="28" fill="#E0DEF7"/>
<path d="M43.4162 21.5H20.5838C19.1588 21.5 18 22.6588 18 24.0838V37.6485C18 38.8273 18.794 39.8244 19.8762 40.1332C19.7923 40.4481 19.7193 40.7685 19.6597 41.0938C19.5217 41.8458 19.7236 42.6149 20.2142 43.204C20.7072 43.7962 21.4325 44.136 22.2028 44.136H41.7972C42.5675 44.136 43.2928 43.7962 43.7858 43.204C44.2764 42.6149 44.4783 41.8458 44.3403 41.0938C44.2807 40.7685 44.2077 40.4481 44.1238 40.1332C45.2054 39.8244 46 38.8279 46 37.6485V24.0838C46 22.6588 44.8412 21.5 43.4162 21.5ZM42.6186 42.2307C42.4149 42.4751 42.1158 42.6155 41.7978 42.6155H22.2028C21.8848 42.6155 21.5857 42.4751 21.3821 42.2307C21.1808 41.9893 21.0981 41.675 21.1547 41.368C22.1153 36.1414 26.6767 32.3478 32.0006 32.3478C37.3245 32.3478 41.8854 36.1414 42.8465 41.368C42.9031 41.675 42.8198 41.9893 42.6192 42.2307H42.6186ZM44.4801 37.6485C44.4801 38.1562 44.122 38.5823 43.6448 38.6869C41.7698 34.016 37.2053 30.8279 32 30.8279C26.7947 30.8279 22.2308 34.016 20.3552 38.6869C19.878 38.5817 19.5199 38.1562 19.5199 37.6485V24.0838C19.5199 23.4971 19.9971 23.0199 20.5838 23.0199H43.4162C44.0029 23.0199 44.4801 23.4971 44.4801 24.0838V37.6485Z" fill="#100A55"/>
<path d="M22.5277 26.8346C23.1492 26.8346 23.653 26.3308 23.653 25.7093C23.653 25.0878 23.1492 24.584 22.5277 24.584C21.9062 24.584 21.4023 25.0878 21.4023 25.7093C21.4023 26.3308 21.9062 26.8346 22.5277 26.8346Z" fill="#100A55"/>
<path d="M25.6253 26.8346C26.2468 26.8346 26.7507 26.3308 26.7507 25.7093C26.7507 25.0878 26.2468 24.584 25.6253 24.584C25.0038 24.584 24.5 25.0878 24.5 25.7093C24.5 26.3308 25.0038 26.8346 25.6253 26.8346Z" fill="#100A55"/>
<path d="M28.721 26.8346C29.3425 26.8346 29.8464 26.3308 29.8464 25.7093C29.8464 25.0878 29.3425 24.584 28.721 24.584C28.0995 24.584 27.5957 25.0878 27.5957 25.7093C27.5957 26.3308 28.0995 26.8346 28.721 26.8346Z" fill="#100A55"/>
<path d="M41.6644 24.9492H32.6271C32.2076 24.9492 31.8672 25.2897 31.8672 25.7092C31.8672 26.1287 32.2076 26.4691 32.6271 26.4691H41.6644C42.0839 26.4691 42.4243 26.1287 42.4243 25.7092C42.4243 25.2897 42.0839 24.9492 41.6644 24.9492Z" fill="#100A55"/>
<path d="M37.3386 35.1309H33.3249C32.9054 35.1309 32.565 35.4713 32.565 35.8908C32.565 36.3103 32.9054 36.6507 33.3249 36.6507H35.5038L31.4627 40.6918C31.1661 40.9885 31.1661 41.47 31.4627 41.7667C31.6111 41.915 31.8056 41.9892 32.0002 41.9892C32.1947 41.9892 32.3893 41.915 32.5376 41.7667L36.5787 37.7256V39.9045C36.5787 40.324 36.9191 40.6645 37.3386 40.6645C37.7581 40.6645 38.0986 40.324 38.0986 39.9045V35.8908C38.0986 35.4713 37.7581 35.1309 37.3386 35.1309Z" fill="#100A55"/>
</svg>
