<svg width="64" height="64" viewBox="0 0 64 64" fill="none" xmlns="http://www.w3.org/2000/svg">
<circle cx="32" cy="32" r="31.5" fill="white" stroke="#E0DEF7"/>
<circle cx="32" cy="32" r="28" fill="#E0DEF7"/>
<path d="M30.6545 31.1134C30.6545 30.3984 30.0745 29.8184 29.3595 29.8184C28.6445 29.8184 28.0645 30.3984 28.0645 31.1134C28.0645 31.8284 28.6445 32.4084 29.3595 32.4084C30.0755 32.4084 30.6545 31.8284 30.6545 31.1134Z" fill="#100A55"/>
<path d="M35.3595 31.1134C35.3595 30.3984 34.7795 29.8184 34.0645 29.8184C33.3495 29.8184 32.7695 30.3984 32.7695 31.1134C32.7695 31.8284 33.3495 32.4084 34.0645 32.4084C34.7795 32.4084 35.3595 31.8284 35.3595 31.1134Z" fill="#100A55"/>
<path d="M38.7677 32.4084C39.4829 32.4084 40.0627 31.8286 40.0627 31.1134C40.0627 30.3982 39.4829 29.8184 38.7677 29.8184C38.0524 29.8184 37.4727 30.3982 37.4727 31.1134C37.4727 31.8286 38.0524 32.4084 38.7677 32.4084Z" fill="#100A55"/>
<path d="M41.9198 21.6992H26.2098C24.8528 21.6992 23.5638 22.4182 22.8458 23.5752C22.5838 23.9972 22.7138 24.5532 23.1358 24.8142C23.5568 25.0772 24.1138 24.9462 24.3748 24.5242C24.7678 23.8932 25.4708 23.5002 26.2098 23.5002H41.9198C43.1218 23.5002 44.0998 24.4782 44.0998 25.6802V36.5402C44.0998 37.7422 43.1218 38.7202 41.9198 38.7202H37.2698C37.0298 38.7202 36.7978 38.8172 36.6288 38.9882L34.2058 41.4422C34.1538 41.4952 34.0508 41.4992 34.0648 41.5012C34.0298 41.5012 33.9798 41.4912 33.9278 41.4382L31.4978 38.9882C31.3288 38.8182 31.0998 38.7212 30.8588 38.7212H26.2088C25.4658 38.7212 24.7778 38.3382 24.3678 37.6972C24.0998 37.2782 23.5418 37.1562 23.1248 37.4232C22.7058 37.6922 22.5828 38.2472 22.8508 38.6662C23.5938 39.8282 24.8488 40.5222 26.2088 40.5222H30.4838L32.6378 42.6942C33.0088 43.0832 33.5118 43.2982 34.0528 43.3012C34.0568 43.3012 34.0608 43.3012 34.0648 43.3012C34.5978 43.3012 35.1188 43.0822 35.4888 42.7042L37.6438 40.5212H41.9178C44.1118 40.5212 45.8978 38.7352 45.8978 36.5412V25.6802C45.8998 23.4852 44.1138 21.6992 41.9198 21.6992Z" fill="#100A55"/>
<path d="M25.4593 34.1773C25.4593 33.6803 25.0563 33.2773 24.5593 33.2773H21.0523C20.5553 33.2773 20.1523 33.6803 20.1523 34.1773C20.1523 34.6743 20.5553 35.0773 21.0523 35.0773H24.5593C25.0563 35.0773 25.4593 34.6743 25.4593 34.1773Z" fill="#100A55"/>
<path d="M25.459 31.1129C25.459 30.6159 25.056 30.2129 24.559 30.2129H20.025C19.528 30.2129 19.125 30.6159 19.125 31.1129C19.125 31.6099 19.528 32.0129 20.025 32.0129H24.558C25.056 32.0139 25.459 31.6099 25.459 31.1129Z" fill="#100A55"/>
<path d="M25.4586 28.0504C25.4586 27.5534 25.0556 27.1504 24.5586 27.1504H18.9996C18.5026 27.1504 18.0996 27.5534 18.0996 28.0504C18.0996 28.5474 18.5026 28.9504 18.9996 28.9504H24.5586C25.0556 28.9504 25.4586 28.5474 25.4586 28.0504Z" fill="#100A55"/>
</svg>
