<svg width="20" height="20" viewBox="0 0 20 20" fill="none" xmlns="http://www.w3.org/2000/svg">
<path d="M18.8262 11.974C18.7713 12.029 18.7061 12.0726 18.6344 12.1024C18.5626 12.1322 18.4857 12.1475 18.4079 12.1475C18.3302 12.1475 18.2533 12.1322 18.1815 12.1024C18.1098 12.0726 18.0446 12.029 17.9897 11.974L10.4438 4.42833L7.19177 7.67998C7.08084 7.79084 6.93042 7.85309 6.77359 7.85303C6.61677 7.85298 6.46639 7.79063 6.35553 7.6797C6.24468 7.56878 6.18243 7.41835 6.18248 7.26153C6.18253 7.10471 6.24488 6.95432 6.35581 6.84347L10.0259 3.17309C10.1368 3.06226 10.2872 3 10.444 3C10.6008 3 10.7512 3.06226 10.8621 3.17309L13.6672 5.9785V4.53909C13.6675 4.38236 13.73 4.23214 13.8409 4.12141C13.9518 4.01069 14.1021 3.9485 14.2589 3.9485C14.4156 3.9485 14.5659 4.01069 14.6768 4.12141C14.7878 4.23214 14.8502 4.38236 14.8505 4.53909V7.16147L18.8265 11.1374C18.8815 11.1923 18.9252 11.2575 18.9549 11.3293C18.9847 11.4011 19 11.4781 19 11.5558C19 11.6335 18.9846 11.7104 18.9548 11.7822C18.925 11.854 18.8813 11.9191 18.8262 11.974ZM17.1342 11.8166L10.8621 5.54453C10.8072 5.48961 10.7421 5.44604 10.6703 5.41631C10.5986 5.38659 10.5217 5.37129 10.444 5.37129C10.3664 5.37129 10.2895 5.38659 10.2177 5.41631C10.146 5.44604 10.0808 5.48961 10.0259 5.54453L7.61593 7.95454C8.4194 8.35463 9.1093 8.95043 9.62213 9.68708C10.135 10.4237 10.4542 11.2775 10.5505 12.1699C10.7904 12.2179 11.0063 12.3474 11.1615 12.5365C11.3168 12.7255 11.4018 12.9624 11.4023 13.207V15.455C11.403 15.834 11.5539 16.1973 11.822 16.4653C12.0901 16.7333 12.4534 16.884 12.8325 16.8846H15.8937C16.2727 16.8842 16.6362 16.7335 16.9042 16.4655C17.1723 16.1975 17.3231 15.8341 17.3236 15.455V12.3944C17.3234 12.3033 17.3145 12.2125 17.297 12.1231C17.2748 12.0069 17.218 11.9001 17.1342 11.8166ZM9.95742 12.4062C9.95737 13.292 9.69465 14.1579 9.20249 14.8944C8.71032 15.6308 8.01082 16.2048 7.19244 16.5438C6.37406 16.8827 5.47355 16.9714 4.60478 16.7985C3.73601 16.6257 2.93801 16.1991 2.31168 15.5727C1.68535 14.9464 1.25882 14.1483 1.08604 13.2795C0.913249 12.4108 1.00196 11.5103 1.34096 10.6919C1.67995 9.87354 2.254 9.17408 2.99052 8.68197C3.72704 8.18986 4.59294 7.9272 5.47873 7.9272C6.66659 7.92728 7.80576 8.3992 8.64567 9.23917C9.48558 10.0791 9.95743 11.2183 9.95742 12.4062ZM7.68501 12.4062C7.68505 12.3091 7.66597 12.213 7.62886 12.1233C7.59174 12.0336 7.53732 11.952 7.4687 11.8834C7.40008 11.8147 7.3186 11.7602 7.22892 11.723C7.13924 11.6858 7.04312 11.6667 6.94603 11.6667H6.21828V10.9392C6.21828 10.8421 6.19915 10.746 6.162 10.6563C6.12485 10.5666 6.0704 10.4851 6.00175 10.4165C5.93311 10.3478 5.85161 10.2934 5.76192 10.2562C5.67223 10.2191 5.5761 10.2 5.47902 10.2C5.38194 10.2 5.28581 10.2191 5.19612 10.2562C5.10643 10.2934 5.02493 10.3478 4.95628 10.4165C4.88764 10.4851 4.83318 10.5666 4.79603 10.6563C4.75888 10.746 4.73976 10.8421 4.73976 10.9392V11.6667H4.012C3.81591 11.6667 3.62784 11.7446 3.48918 11.8832C3.35052 12.0219 3.27262 12.2099 3.27262 12.406C3.27262 12.6021 3.35052 12.7902 3.48918 12.9289C3.62784 13.0675 3.81591 13.1454 4.012 13.1454H4.73976V13.8729C4.73976 14.069 4.81765 14.257 4.95628 14.3957C5.09492 14.5343 5.28296 14.6122 5.47902 14.6122C5.67508 14.6122 5.86312 14.5343 6.00175 14.3957C6.14039 14.257 6.21828 14.069 6.21828 13.8729V13.1454H6.94603C7.0431 13.1454 7.13922 13.1263 7.22889 13.0892C7.31857 13.052 7.40005 12.9976 7.46867 12.9289C7.53729 12.8603 7.59172 12.7788 7.62884 12.6891C7.66596 12.5994 7.68505 12.5033 7.68501 12.4062Z" fill="white"/>
</svg>
