<svg width="16" height="16" viewBox="0 0 16 16" fill="none" xmlns="http://www.w3.org/2000/svg">
<path fill-rule="evenodd" clip-rule="evenodd" d="M10.6805 1.58527C11.1527 2.03769 11.4259 2.65591 11.441 3.30615C11.4476 3.92708 11.3891 4.54702 11.2667 5.15605L11.2116 5.42843H11.8585C12.6109 5.41576 13.344 5.66493 13.9297 6.13246C14.5154 6.59999 14.9165 7.25619 15.0632 7.98653C15.1632 8.5458 15.1053 9.12154 14.8957 9.65031L13.1615 13.963C13.0423 14.2578 12.8365 14.5106 12.5707 14.6886C12.3049 14.8666 11.9913 14.9617 11.6704 14.9617H6.16486C5.73898 14.9617 5.33054 14.7943 5.0294 14.4963C4.72826 14.1984 4.55908 13.7942 4.55908 13.3728V6.56335C4.5595 6.24978 4.65369 5.94336 4.82976 5.68265L7.58253 1.59697C7.729 1.37934 7.92748 1.20085 8.16038 1.07731C8.39327 0.953774 8.65338 0.889017 8.91762 0.888782C9.57492 0.882645 10.2082 1.13286 10.6805 1.58527ZM12.7685 6.99095C12.5002 6.85386 12.2017 6.78492 11.8998 6.79033H10.2504C10.1543 6.79007 10.0596 6.76818 9.97331 6.72631C9.88704 6.68444 9.81154 6.6237 9.75252 6.54868C9.6935 6.47365 9.65251 6.38632 9.63266 6.2933C9.6128 6.20028 9.61461 6.10401 9.63793 6.01178L9.83521 5.22869C9.98725 4.62586 10.0643 4.00691 10.0646 3.38559C10.0646 3.08459 9.94377 2.79592 9.72867 2.58309C9.51356 2.37025 9.22182 2.25068 8.91762 2.25068H8.79604L5.93546 6.49525V13.5998H11.8264L13.6065 9.18953C13.7118 8.92692 13.7513 8.64301 13.7218 8.362C13.6922 8.08099 13.5944 7.81122 13.4368 7.57569C13.2664 7.32898 13.0368 7.12805 12.7685 6.99095ZM2.26506 7.92533V14.2808C2.26506 14.4614 2.19255 14.6346 2.06349 14.7623C1.93443 14.89 1.75938 14.9618 1.57686 14.9618C1.39434 14.9618 1.2193 14.89 1.09024 14.7623C0.961178 14.6346 0.888672 14.4614 0.888672 14.2808V7.92533C0.888672 7.74473 0.961178 7.57153 1.09024 7.44382C1.2193 7.31612 1.39434 7.24438 1.57686 7.24438C1.75938 7.24438 1.93443 7.31612 2.06349 7.44382C2.19255 7.57153 2.26506 7.74473 2.26506 7.92533Z" fill="white"/>
</svg>
