<svg width="20" height="20" viewBox="0 0 20 20" fill="none" xmlns="http://www.w3.org/2000/svg">
<path d="M2.31429 7.77714L6.57143 5.65143V16.0686L2.82857 17.9371C2.74896 17.9779 2.66088 17.9995 2.57143 18C2.46444 18.0003 2.35951 17.9706 2.26857 17.9143C2.18622 17.8628 2.11835 17.7912 2.07136 17.7062C2.02436 17.6212 1.99981 17.5257 2 17.4286V8.28571C2.00032 8.18019 2.02985 8.07682 2.08533 7.98705C2.1408 7.89728 2.22005 7.82463 2.31429 7.77714ZM7.71429 5.64571V16.0686L11.1429 17.7829V11.2457C10.0914 9.98286 8.94286 8.17714 8.85714 6.22286L7.71429 5.64571ZM15.0971 13.0343C14.7875 13.2878 14.4001 13.427 14 13.4286C13.5987 13.4277 13.2105 13.2862 12.9029 13.0286C12.8171 12.96 12.5943 12.7657 12.2857 12.4571V17.7657L16.5429 15.6343C16.6346 15.5882 16.7121 15.5182 16.7674 15.4317C16.8227 15.3452 16.8537 15.2454 16.8571 15.1429V11.2457C16.3225 11.8909 15.7336 12.4893 15.0971 13.0343ZM10 6C10 4.93913 10.4214 3.92172 11.1716 3.17157C11.9217 2.42143 12.9391 2 14 2C15.0609 2 16.0783 2.42143 16.8284 3.17157C17.5786 3.92172 18 4.93913 18 6C18 9.09143 14.5143 12.0286 14.3657 12.1543C14.263 12.2398 14.1336 12.2866 14 12.2866C13.8664 12.2866 13.737 12.2398 13.6343 12.1543C13.4857 12.0286 10 9.09143 10 6ZM14 7.71429C14.3391 7.71429 14.6705 7.61374 14.9524 7.42538C15.2343 7.23701 15.454 6.96927 15.5838 6.65603C15.7135 6.34278 15.7475 5.9981 15.6813 5.66556C15.6152 5.33302 15.4519 5.02756 15.2122 4.78782C14.9724 4.54807 14.667 4.3848 14.3344 4.31865C14.0019 4.25251 13.6572 4.28646 13.344 4.41621C13.0307 4.54596 12.763 4.76568 12.5746 5.04759C12.3863 5.32951 12.2857 5.66095 12.2857 6C12.2857 6.45466 12.4663 6.89069 12.7878 7.21218C13.1093 7.53367 13.5453 7.71429 14 7.71429Z" fill="white"/>
</svg>
