<svg width="24" height="24" viewBox="0 0 24 24" fill="none" xmlns="http://www.w3.org/2000/svg">
<path d="M15.5005 14.0005H14.7105L14.4305 13.7305C15.0554 13.0044 15.5122 12.1492 15.768 11.2261C16.0239 10.3029 16.0725 9.33462 15.9105 8.39046C15.4405 5.61046 13.1205 3.39046 10.3205 3.05046C9.33608 2.92593 8.33625 3.02823 7.39749 3.34955C6.45872 3.67087 5.60591 4.20268 4.90429 4.90429C4.20268 5.60591 3.67087 6.45872 3.34955 7.39749C3.02823 8.33625 2.92593 9.33608 3.05046 10.3205C3.39046 13.1205 5.61046 15.4405 8.39046 15.9105C9.33462 16.0725 10.3029 16.0239 11.2261 15.768C12.1492 15.5122 13.0044 15.0554 13.7305 14.4305L14.0005 14.7105V15.5005L18.2505 19.7505C18.6605 20.1605 19.3305 20.1605 19.7405 19.7505C20.1505 19.3405 20.1505 18.6705 19.7405 18.2605L15.5005 14.0005ZM9.50046 14.0005C7.01046 14.0005 5.00046 11.9905 5.00046 9.50046C5.00046 7.01046 7.01046 5.00046 9.50046 5.00046C11.9905 5.00046 14.0005 7.01046 14.0005 9.50046C14.0005 11.9905 11.9905 14.0005 9.50046 14.0005Z" fill="url(#paint0_linear_29274_14667)"/>
<defs>
<linearGradient id="paint0_linear_29274_14667" x1="11.5235" y1="9.23009" x2="11.5235" y2="20.058" gradientUnits="userSpaceOnUse">
<stop stop-color="#514B96"/>
<stop offset="1" stop-color="#423E76"/>
</linearGradient>
</defs>
</svg>
