<svg width="20" height="20" viewBox="0 0 20 20" fill="none" xmlns="http://www.w3.org/2000/svg">
<path d="M17.2242 9.48047C16.7935 9.48047 16.4481 9.82875 16.4481 10.2646V12.2856C16.4481 12.9822 15.8967 13.54 15.2066 13.54L7.6551 13.5393L9.39662 11.7797C9.70666 11.4665 9.70666 10.9788 9.39662 10.6648C9.08658 10.3516 8.60386 10.3516 8.29316 10.6648L5.20679 13.7832C4.91341 14.0796 4.89676 14.5842 5.20679 14.8806L8.29316 18.0509C8.44851 18.2079 8.63786 18.2772 8.84456 18.2772C9.03392 18.2772 9.24128 18.2079 9.39597 18.0509C9.70601 17.7545 9.70601 17.2499 9.4133 16.936L7.58644 15.1071H15.2068C16.741 15.1071 17.9997 13.8352 17.9997 12.2852L18.0004 10.2648C18.0004 9.82897 17.655 9.48067 17.2243 9.48067L17.2242 9.48047Z" fill="url(#paint0_linear_29274_14677)"/>
<path d="M10.603 8.52368C10.3096 8.83693 10.3096 9.32466 10.6204 9.63858C10.7757 9.79555 10.9651 9.86493 11.1718 9.86493C11.3785 9.86493 11.5685 9.79555 11.7232 9.63858L14.8095 6.4683C15.1029 6.15505 15.1029 5.66732 14.8095 5.3709L11.7064 2.23494C11.3964 1.92169 10.9137 1.92169 10.603 2.23494C10.2929 2.54819 10.2929 3.03592 10.603 3.34984L12.3959 5.16133H4.79296C3.2581 5.16133 2 6.43321 2 7.98325V9.98669C2 10.4219 2.3447 10.7708 2.7761 10.7708C3.20681 10.7708 3.5522 10.4226 3.5522 9.98669L3.55153 7.98325C3.55153 7.28668 4.10293 6.7289 4.79301 6.7289H12.362L10.603 8.52368Z" fill="url(#paint1_linear_29274_14677)"/>
<defs>
<linearGradient id="paint0_linear_29274_14677" x1="11.4904" y1="12.6936" x2="11.4904" y2="18.2772" gradientUnits="userSpaceOnUse">
<stop stop-color="#514B96"/>
<stop offset="1" stop-color="#423E76"/>
</linearGradient>
<linearGradient id="paint1_linear_29274_14677" x1="8.51478" y1="5.2037" x2="8.51478" y2="10.7708" gradientUnits="userSpaceOnUse">
<stop stop-color="#514B96"/>
<stop offset="1" stop-color="#423E76"/>
</linearGradient>
</defs>
</svg>
