<svg width="376" height="347" viewBox="0 0 376 347" fill="none" xmlns="http://www.w3.org/2000/svg">
<g opacity="0.2" clip-path="url(#clip0_29248_1424)">
<rect width="376" height="347" fill="white"/>
<path d="M6.03451 347H105.489C109.597 347 109.597 340.633 105.489 340.633H6.03451C1.926 340.633 1.926 347 6.03451 347Z" fill="#E4BB67"/>
<path d="M43.7747 165.464L43.038 149.305C42.8397 145.23 36.4644 145.202 36.6627 149.305L37.3994 165.464C37.5978 169.539 43.9731 169.567 43.7747 165.464Z" fill="#E4BB67"/>
<path d="M39.9505 152.22H55.5346C59.6431 152.22 59.6431 145.853 55.5346 145.853H39.9505C35.842 145.853 35.842 152.22 39.9505 152.22Z" fill="#E4BB67"/>
<path d="M52.6434 149.163C52.6434 154.314 52.5301 159.436 52.2467 164.558C52.0484 168.661 58.4237 168.633 58.622 164.558C58.877 159.436 59.0187 154.286 59.0187 149.163C59.0187 145.06 52.6434 145.06 52.6434 149.163Z" fill="#E4BB67"/>
<path d="M55.5346 168.152C65.4801 167.473 74.3205 170.869 82.5658 176.189C82.1975 174.746 81.8008 173.274 81.4324 171.831C78.4856 177.915 75.9639 184.113 73.8388 190.537C72.5637 194.442 78.7123 196.111 79.9874 192.234C81.9141 186.348 84.2376 180.632 86.9294 175.057C87.7227 173.444 87.326 171.69 85.796 170.699C76.7006 164.813 66.5284 161.049 55.563 161.785C51.4828 162.068 51.4544 168.435 55.563 168.152H55.5346Z" fill="#E4BB67"/>
<path d="M78.2874 189.094C71.0621 185.16 63.6101 182.783 55.3364 182.33C51.2279 182.104 51.2562 188.471 55.3364 188.697C62.4484 189.094 68.8237 191.216 75.0573 194.612C78.6558 196.593 81.8859 191.074 78.2874 189.122V189.094Z" fill="#E4BB67"/>
<path d="M52.0777 185.358C51.8794 192.998 52.0211 200.611 52.4744 208.251C52.7294 212.327 59.1047 212.355 58.8497 208.251C58.368 200.639 58.2547 192.998 58.453 185.358C58.5663 181.254 52.1911 181.254 52.0777 185.358Z" fill="#E4BB67"/>
<path d="M36.3517 185.075C36.2951 191.413 36.2384 197.752 36.1817 204.063C36.1534 208.166 42.5287 208.166 42.557 204.063C42.6137 197.724 42.6704 191.385 42.727 185.075C42.7554 180.971 36.3801 180.971 36.3517 185.075Z" fill="#E4BB67"/>
<path d="M40.177 201.459C36.8335 200.865 34.4534 198.969 33.4617 195.686C32.4133 192.234 38.5336 189.064 40.942 187.876C44.6255 186.065 41.3954 180.575 37.7119 182.386C32.555 184.933 25.8964 189.829 27.1148 196.366C28.1915 202.11 32.725 206.61 38.4769 207.629C42.5004 208.336 44.2289 202.195 40.177 201.488V201.459Z" fill="#E4BB67"/>
<path d="M38.6189 161.983C21.1931 166.766 7.30917 173.784 4.98573 192.914C2.32228 214.902 23.1482 222.628 39.7523 228.995C43.6058 230.466 45.2492 224.297 41.4524 222.854C26.3217 217.053 11.106 212.214 11.361 192.914C11.5877 177.095 27.5967 171.633 40.319 168.124C44.2858 167.049 42.5857 160.88 38.6189 161.983Z" fill="#E4BB67"/>
<path d="M37.2855 226.504L37.6539 250.898C37.7106 255.001 44.0858 255.001 44.0292 250.898L43.6608 226.504C43.6041 222.401 37.2289 222.401 37.2855 226.504Z" fill="#E4BB67"/>
<path d="M40.8566 247.983C30.9395 247.615 22.4958 242.606 14.2221 237.597C10.7086 235.446 7.50676 240.965 10.9919 243.087C20.2857 248.719 29.7211 253.926 40.8282 254.35C44.9368 254.492 44.9368 248.124 40.8282 247.983H40.8566Z" fill="#E4BB67"/>
<path d="M9.51897 239.436C7.62055 245.181 3.4837 250.671 0.451902 255.906C-1.61652 259.472 3.90872 262.67 5.94881 259.132C9.29229 253.359 13.5708 247.502 15.6392 241.134C16.9143 237.229 10.7657 235.559 9.49064 239.436H9.51897Z" fill="#E4BB67"/>
<path d="M1.24526 259.84C12.3808 269.434 26.038 272.49 40.3753 273.622C44.4838 273.933 44.4555 267.566 40.3753 267.255C27.8514 266.264 15.5259 263.746 5.75046 255.341C2.66199 252.681 -1.87155 257.152 1.24526 259.84Z" fill="#E4BB67"/>
<path d="M58.3948 250.728V232.023C58.3948 227.919 52.0195 227.919 52.0195 232.023V250.728C52.0195 254.832 58.3948 254.832 58.3948 250.728Z" fill="#E4BB67"/>
<path d="M54.3727 234.767C57.9995 235.56 62.4481 235.984 62.5047 240.484C62.5897 245.238 57.7162 247.304 53.9194 248.407C49.9808 249.539 51.6526 255.708 55.6194 254.548C62.023 252.681 68.115 248.888 68.795 241.616C69.5884 233.041 63.3831 230.268 56.0728 228.655C52.0776 227.778 50.3775 233.918 54.3727 234.796V234.767Z" fill="#E4BB67"/>
<path d="M36.4077 271.075C36.5494 276.31 36.8328 281.545 37.3144 286.78C37.6828 290.827 44.0581 290.884 43.6897 286.78C43.2364 281.545 42.9247 276.31 42.783 271.075C42.6697 266.971 36.2944 266.971 36.4077 271.075Z" fill="#E4BB67"/>
<path d="M40.5462 290.262H56.2719C60.3804 290.262 60.3804 283.895 56.2719 283.895H40.5462C36.4377 283.895 36.4377 290.262 40.5462 290.262Z" fill="#E4BB67"/>
<path d="M59.6999 286.922C59.7565 280.753 59.8415 274.555 59.8982 268.386C59.9549 264.283 53.5796 264.283 53.5229 268.386C53.4663 274.555 53.3813 280.753 53.3246 286.922C53.2679 291.025 59.6432 291.025 59.6999 286.922Z" fill="#E4BB67"/>
<path d="M57.717 272.037C72.3943 268.217 86.5332 259.897 87.7516 243.116C89.31 221.807 74.5194 215.836 58.7937 206.186C55.2802 204.035 52.0784 209.525 55.5635 211.676C67.7191 219.147 80.753 222.967 81.603 239.635C82.3964 255.058 68.7958 262.557 55.9885 265.896C52.0217 266.915 53.6934 273.084 57.6886 272.037H57.717Z" fill="#E4BB67"/>
<path d="M109.995 343.83C110.335 318.135 110.646 292.44 110.987 266.744C111.043 262.641 104.668 262.641 104.611 266.744C104.271 292.44 103.96 318.135 103.62 343.83C103.563 347.934 109.938 347.934 109.995 343.83Z" fill="#E4BB67"/>
<path d="M108.833 269.094H200.581C204.689 269.094 204.689 262.727 200.581 262.727H108.833C104.725 262.727 104.725 269.094 108.833 269.094Z" fill="#E4BB67"/>
<path d="M204.916 265.018C203.612 241.53 204.321 218.183 207.069 194.809C207.551 190.733 201.176 190.79 200.694 194.809C197.946 218.183 197.237 241.53 198.541 265.018C198.767 269.093 205.143 269.121 204.916 265.018Z" fill="#E4BB67"/>
<path d="M204.009 196.422C232.882 195.941 261.755 196.083 290.628 196.903C294.736 197.016 294.736 190.649 290.628 190.536C261.755 189.715 232.882 189.574 204.009 190.055C199.901 190.112 199.901 196.479 204.009 196.422Z" fill="#E4BB67"/>
<path d="M295.389 193.96C295.446 172.538 296.182 151.144 297.571 129.75C297.826 125.647 291.45 125.675 291.195 129.75C289.779 151.144 289.07 172.538 289.014 193.96C289.014 198.064 295.389 198.064 295.389 193.96Z" fill="#E4BB67"/>
<path d="M294.906 130.939C320.917 131.363 346.928 131.76 372.939 132.184C377.048 132.241 377.048 125.873 372.939 125.817C346.928 125.392 320.917 124.996 294.906 124.572C290.797 124.515 290.797 130.882 294.906 130.939Z" fill="#E4BB67"/>
<path d="M122.009 183.687C166.636 109.771 245.519 60.1349 331.628 52.1546L328.455 48.9851C328.398 57.3616 327.888 65.54 326.755 73.8598C326.443 76.2369 328.88 79.3498 331.43 77.4538C345.965 66.7285 358.376 53.4847 370.928 40.6087C372.09 39.3919 372.232 37.2977 370.928 36.1092C358.404 24.5916 346.475 12.4231 333.952 0.905472C332.308 -0.622664 329.135 -0.141584 328.625 2.32041C327.066 9.93279 327.208 17.998 327.435 25.7518C327.378 23.6577 290.061 31.4682 286.406 32.3737C261.302 38.5712 238.067 49.919 216.108 63.3326C172.558 89.9618 128.129 130.373 115.067 181.424C114.047 185.414 120.195 187.083 121.215 183.122C133.003 137.136 170.943 101.734 208.798 75.6426C246.341 49.8058 286.803 36.6752 331.6 30.506C332.903 30.3362 334.037 28.6949 333.952 27.4498C333.357 19.8657 333.243 11.4892 334.773 4.01834C332.988 4.49942 331.231 4.9522 329.446 5.43328C341.97 16.9509 353.899 29.1194 366.423 40.637V36.1375C354.268 48.6173 342.31 61.6347 328.228 71.9921C329.786 73.1806 331.345 74.3975 332.903 75.586C334.122 66.7285 334.802 57.9559 334.83 49.0134C334.83 47.4004 333.357 45.6742 331.656 45.844C243.253 54.0506 162.386 104.564 116.54 180.518C114.415 184.055 119.912 187.253 122.037 183.744L122.009 183.687Z" fill="#E4BB67"/>
</g>
<defs>
<clipPath id="clip0_29248_1424">
<rect width="376" height="347" fill="white"/>
</clipPath>
</defs>
</svg>
